<?xml version="1.0" encoding="UTF-8" standalone="no"?>
<!-- Created with Inkscape (http://www.inkscape.org/) -->

<svg
   xmlns:dc="http://purl.org/dc/elements/1.1/"
   xmlns:cc="http://creativecommons.org/ns#"
   xmlns:rdf="http://www.w3.org/1999/02/22-rdf-syntax-ns#"
   xmlns:svg="http://www.w3.org/2000/svg"
   xmlns="http://www.w3.org/2000/svg"
   xmlns:sodipodi="http://sodipodi.sourceforge.net/DTD/sodipodi-0.dtd"
   xmlns:inkscape="http://www.inkscape.org/namespaces/inkscape"
   width="744.09448819"
   height="1052.3622047"
   id="svg3018"
   version="1.1"
   inkscape:version="0.48.3.1 r9886"
   sodipodi:docname="New document 2">
  <defs
     id="defs3020" />
  <sodipodi:namedview
     id="base"
     pagecolor="#ffffff"
     bordercolor="#666666"
     borderopacity="1.0"
     inkscape:pageopacity="0.0"
     inkscape:pageshadow="2"
     inkscape:zoom="0.35"
     inkscape:cx="375"
     inkscape:cy="520"
     inkscape:document-units="px"
     inkscape:current-layer="layer1"
     showgrid="false"
     inkscape:window-width="521"
     inkscape:window-height="437"
     inkscape:window-x="13"
     inkscape:window-y="84"
     inkscape:window-maximized="0" />
  <metadata
     id="metadata3023">
    <rdf:RDF>
      <cc:Work
         rdf:about="">
        <dc:format>image/svg+xml</dc:format>
        <dc:type
           rdf:resource="http://purl.org/dc/dcmitype/StillImage" />
        <dc:title></dc:title>
      </cc:Work>
    </rdf:RDF>
  </metadata>
  <g
     inkscape:label="Layer 1"
     inkscape:groupmode="layer"
     id="layer1">
    <path
       sodipodi:nodetypes="cssssscscsssssssacssssssssscscssczsssassscscsscccszasssscsssscscssc"
       inkscape:connector-curvature="0"
       id="path4192"
       d="m 216.60552,236.19738 c 0,0 67.4015,38.5771 107.7364,90.4418 15.54,19.9821 43.4352,76.7692 48.4858,77.7793 5.0507,1.0102 17.1721,-11.1113 26.2632,-10.1012 9.0911,1.0101 18.1822,2.0203 22.2227,0 4.0405,-2.0202 16.1619,-1.0101 25.253,0 9.0911,1.0101 17.1721,8.081 17.1721,8.081 0,0 46.8367,-68.9445 72.2237,-97.9818 38.6371,-44.1928 75.5066,-55.3042 75.5066,-55.3042 0,0 -29.6648,56.2647 -37.627,75.5066 -18.1822,43.9403 -38.3846,64.1427 -56.5668,81.3148 -18.1822,17.1721 -30.6947,26.2897 -31.8189,32.0714 -3.5354,18.1822 8.5861,28.0309 7.5759,47.2232 -1.0101,19.1923 -6.0607,28.2834 -12.1214,28.2834 -6.0608,0 5.4555,6.5454 9.7411,23.6878 4.2856,17.1423 5.9667,37.4153 3.8239,45.2722 -2.1428,7.8569 -4.9299,13.8259 -4.6248,20.981 0.2469,5.7886 4.4589,10.8798 5.1731,16.5939 0.7143,5.7141 -3.492,13.4485 -1.3492,17.7341 2.1428,4.2856 16.3921,18.405 24.249,19.1193 7.8569,0.7142 32.2496,-8.5638 45.7488,-5.6634 6.6249,1.4234 20.9229,10.0789 20.9229,15.7931 0,5.7141 2.8929,11.1397 -8.1454,12.8134 -18.5367,2.8105 -29.2415,6.515 -36.3841,11.5149 -7.1426,4.9998 -13.2467,10.3673 -23.2464,7.5102 -9.9997,-2.857 -22.8923,-12.5967 -32.1778,-20.4536 -3.6202,-3.0634 -18.4683,-7.9399 -25.07,-12.442 -10.3305,-7.045 -8.5004,-10.2561 -8.5004,-10.2561 0,0 0.067,4.6169 -4.7082,6.7773 -5.5409,2.5067 -9.0719,3.7708 -9.0719,3.7708 0,0 1.8468,13.8669 -1.7245,18.8667 -3.5713,4.9999 -4.3288,6.9409 -6.4716,20.5119 -2.1428,13.571 -20.9663,28.354 -20.9663,28.354 0,0 19.6116,7.9521 20.5045,17.4889 0.8929,9.5368 6.1326,18.1376 -2.4386,20.9946 -8.5712,2.8571 -16.2982,7.6911 -28.4407,14.8337 -12.1424,7.1427 -11.7674,14.1479 -19.8693,19.1118 -10.4251,6.3874 -15.0245,5.7204 -22.4381,8.8237 -10.0237,4.1959 -21.2187,18.9534 -29.7899,13.2393 -8.5711,-5.7141 -7.5251,-14.7111 -11.8107,-19.711 -4.2856,-4.9998 3.3696,-14.5662 4.7981,-20.9946 1.4285,-6.4284 2.857,-21.4279 2.857,-21.4279 0,0 -13.5276,-19.5377 -21.3845,-20.9662 -7.8569,-1.4285 -17.4941,-8.6217 -17.4941,-8.6217 0,0 -17.6699,25.0762 -31.3359,24.9631 -15.7663,-0.1305 -33.2503,-15.3812 -46.9845,-25.3074 -8.2377,-5.9537 -13.7637,-6.9211 -13.7637,-6.9211 0,0 -14.7112,15.2954 -15.4254,21.0095 -0.7143,5.7141 2.1428,20.2952 2.1428,20.2952 0,0 14.5327,4.7689 10.5047,13.4052 -3.1529,6.7601 -9.8938,12.4054 -17.8133,10.6706 -7.9194,-1.7349 -21.447,1.3392 -28.0221,-5.5482 -9.5046,-9.9562 -5.4109,-20.6914 -6.1326,-40.8356 -0.3562,-9.9422 6.8035,-6.8976 10.3748,-14.0402 3.5713,-7.1427 24.0265,-47.0587 25.3236,-55.0986 2.3012,-14.2642 13.8669,-17.9174 19.0325,-11.703 6.2192,7.4818 12.525,8.7803 12.525,8.7803 0,0 0.1972,-27.9412 0.5992,-42.2208 0.7576,-26.9118 11.7753,-52.9317 26.4278,-68.5693 16.2384,-17.3302 32.0552,-27.1421 39.9121,-38.5703 7.8569,-11.4282 31.8714,-39.197 44.4861,-47.5598 16.4273,-10.8904 32.2434,-12.0411 31.976,-11.3057 0,0 4.3479,-10.3498 4.7541,-15.3984 0.4271,-5.3082 2.7965,-14.6619 2.7965,-14.6619 0,0 -5.1076,-7.6167 -21.7851,-21.0708 -42.4987,-34.2847 -49.2842,-61.4267 -72.8549,-98.5684 -23.5708,-37.1418 -42.7549,-82.3148 -42.7549,-82.3148 z"
       style="fill:#ff9955;stroke:none" />
    <g
       id="g4240"
       transform="translate(-4740.4289,306.56988)">
      <path
         style="fill:none;stroke:#0000ff;stroke-width:6;stroke-linecap:round;stroke-linejoin:round;stroke-miterlimit:4;stroke-opacity:1;stroke-dasharray:none"
         d="m 4947.2749,372.19108 c 0,0 -2.6151,-29.97226 -2.2131,-44.25187 0.7576,-26.9118 11.7753,-52.9317 26.4278,-68.56934 16.2384,-17.33022 32.0552,-27.14203 39.9121,-38.57027 7.8569,-11.4282 31.8714,-39.197 44.4861,-47.5598 16.4273,-10.8904 44.2737,-14.0722 44.0063,-13.3368 m -9.5305,1.2499 c 0,0 1.8481,-9.5686 2.2543,-14.6172 0.4271,-5.3082 2.7965,-14.6619 2.7965,-14.6619 0,0 -5.1076,-7.6167 -21.7851,-21.0708 -42.4987,-34.2847 -49.2842,-61.4267 -72.8549,-98.5684 -23.5708,-37.1418 -42.7549,-82.3148 -42.7549,-82.3148 0,0 67.4015,38.5771 107.7364,90.4417 15.54,19.9822 43.4352,76.7693 48.4858,77.7794 m -10.3116,10.6242 c 0,0 13.7348,-20.4856 37.5122,-20.0223 18.348,1.0598 27.3826,-5.1683 43.1011,-3.3591 9.0911,1.0101 19.3594,9.9558 19.3594,9.9558 m -5.0571,19.4262 c 0,0 -0.3822,-11.166 5.7212,-20.977 16.6133,-26.7056 54.2433,-74.4141 72.8095,-95.6498 38.6372,-44.1927 75.5066,-55.3042 75.5066,-55.3042 0,0 -29.6648,56.2647 -37.627,75.5066 -18.1822,43.9403 -38.3846,64.1427 -56.5668,81.3148 -18.1822,17.1721 -30.6947,24.5711 -31.8189,30.3528 -3.5354,18.1821 8.5861,29.7494 7.5759,48.9418 -1.0101,19.1923 -10.5916,26.5648 -16.6523,26.5648 m -20.9951,-22.4744 c 0,0 2.8091,5.8959 8.928,12.7627 9.3617,10.5061 23.1224,11.4712 28.2139,36.68044 3.4981,17.32019 4.1924,29.87879 3.0428,44.80347 -0.5752,7.46711 -5.2044,14.43402 -4.9373,21.91847 0.1808,5.06701 3.6777,8.84875 4.3919,14.56286 0.7143,5.71411 -3.492,13.44847 -1.3492,17.73405 0.98,1.9599 6.8613,9.05699 13.9736,14.6565 8.4396,6.64455 18.2297,11.75419 18.2297,11.75419 m -8.9897,-5.23355 c 7.8569,0.71426 35.941,-10.46538 49.4402,-7.565 6.6249,1.42341 18.2669,9.92268 18.2669,15.63679 0,5.71411 2.8929,11.1398 -8.1454,12.81342 -18.5367,2.81055 -29.2415,6.51503 -36.3841,11.51488 -7.1426,4.99985 -13.2467,10.36734 -23.2464,7.51029 -9.9997,-2.85706 -22.2674,-14.00287 -31.5529,-21.85982 -3.6202,-3.0633 -18.4089,-9.36716 -25.2262,-13.53559 -8.4556,-5.17021 -9.7093,-9.83448 -9.7093,-9.83448 m -41.582,79.1089 c 0,0 19.17,11.59621 19.8842,18.73885 0.7143,7.14264 6.1326,18.13759 -2.4386,20.99465 -8.5712,2.85705 -16.2982,7.69102 -28.4407,14.83366 -12.1424,7.14264 -11.7674,14.14786 -19.8693,19.11182 -10.4251,6.38735 -15.0245,5.72036 -22.4381,8.82369 -10.0237,4.19591 -13.9229,15.62325 -25.5715,11.98937 -11.6486,-3.63387 -8.9312,-15.33607 -13.2168,-20.33592 -4.2856,-4.99984 2.4321,-18.62844 3.8606,-25.05681 1.4285,-6.42838 5.5493,-12.19067 2.3883,-19.55307 -3.1609,-7.3624 -14.0053,-15.84174 -21.2282,-19.24757 -5.4909,-2.58911 -13.3405,-6.53895 -22.3171,-9.52905 -8.9767,-2.99009 -19.0805,-5.02042 -19.0805,-5.02042 m 19.8726,6.31611 c 0,0 -9.7331,28.28135 -28.8674,26.91833 -15.727,-1.1203 -33.2503,-15.38116 -46.9845,-25.30739 -8.2377,-5.95372 -13.7637,-6.92114 -13.7637,-6.92114 m 14.8954,-24.77812 c 0,0 -1.488,7.1284 -5.6441,12.53219 -8.7234,11.34233 -24.193,29.38521 -24.6767,33.25544 -0.7142,5.71412 1.2054,26.19166 1.2054,26.19166 m -0.625,-7.92749 c 0,0 16.0951,6.79991 12.0671,15.43622 -3.1529,6.76013 -7.4648,10.97576 -15.3843,9.2409 -7.9194,-1.73486 -23.3651,3.377 -30.4511,-4.1185 -9.4559,-10.00238 -3.3798,-18.50404 -4.1015,-38.64828 -0.3562,-9.9422 4.7724,-9.08486 8.3437,-16.2275 3.5713,-7.14264 25.1202,-45.49629 26.4173,-53.5362 2.3012,-14.26425 15.273,-19.63604 20.4386,-13.42166 3.2837,3.95032 15.4702,16.88239 25.653,24.96565 9.1033,7.22627 13.9799,10.0434 13.9799,10.0434 m 202.2915,-38.90148 c 0,0 10.3312,-2.49511 13.2903,-6.42688 7.3595,-9.77842 7.4341,-24.009 6.2109,-36.18616 -0.8247,-8.21003 -6.8664,-15.0947 -8.9561,-23.07704 -1.5855,-6.05623 -2.656,-18.59223 -2.656,-18.59223 m -35.6221,32.80983 c 0,0 2.126,16.25924 6.5619,22.81063 3.9515,5.83594 13.3025,6.79546 16.6965,12.97228 6.0003,10.91991 7.1026,32.21248 3.5313,37.21233 -3.5713,4.99984 -1.371,18.29457 -5.3779,26.29266 -4.2287,8.44064 -16.7503,16.33816 -24.6085,24.99588 -6.2993,6.94015 -14.1921,13.02235 -18.0381,21.5696 -1.3065,2.90376 -1.17,6.27207 -1.4196,9.44645 -0.6614,8.40983 -2.4999,9.218 -8.1244,13.43641 -5.6246,4.2184 -9.0694,4.56161 -12.3428,8.28057 -1.1541,1.31121 -2.3435,4.68712 -2.3435,4.68712"
         id="path4218"
         inkscape:connector-curvature="0"
         sodipodi:nodetypes="cssssccscsscsccccccsscssssccssaacssccsssssssccsccsszzczssccssscssccszcccccsccsssaascaaaassac" />
      <path
         style="fill:none;stroke:#0000ff;stroke-width:6;stroke-linecap:round;stroke-linejoin:round;stroke-miterlimit:4;stroke-opacity:1;stroke-dasharray:none"
         d="m 5010.9568,255.46738 c 0,0 1.0101,1.51519 -7.0709,5.30314 -8.081,3.78796 -17.9297,6.81832 -20.2024,16.16195 -2.2728,9.34363 -3.5355,11.36387 -3.5355,11.36387 0,0 -6.3132,2.27277 -7.0708,11.6164 -0.7576,9.34363 2.0202,26.26316 5.5557,32.07136 3.5354,5.8082 15.1518,18.18219 15.1518,18.18219"
         id="path4220"
         inkscape:connector-curvature="0" />
      <path
         style="fill:none;stroke:#0000ff;stroke-width:6;stroke-linecap:round;stroke-linejoin:round;stroke-miterlimit:4;stroke-opacity:1;stroke-dasharray:none"
         d="m 5027.8763,253.44714 c 0,0 11.3639,7.57591 11.8689,18.18219 0.5051,10.60628 -5.0506,18.93978 -7.3234,22.98027 -2.2727,4.04049 -0.7576,9.34363 -0.2525,12.87905 0.5051,3.53543 -7.3234,9.34363 -7.3234,13.13158 0,3.78796 -0.7576,5.55567 2.0203,7.32339 2.7778,1.76771 6.0607,3.78795 6.0607,9.34362 0,5.55567 0,5.55567 0,5.55567"
         id="path4222"
         inkscape:connector-curvature="0" />
      <path
         style="fill:none;stroke:#0000ff;stroke-width:6;stroke-linecap:round;stroke-linejoin:round;stroke-miterlimit:4;stroke-opacity:1;stroke-dasharray:none"
         d="m 5013.796,351.63599 c 0,0 -5.6245,-4.99959 -9.218,-7.03067 -3.5934,-2.03109 -8.9055,-4.84336 -10.1554,-8.28058 -1.2499,-3.43722 -1.8749,-7.34315 -1.8749,-7.34315"
         id="path4224"
         inkscape:connector-curvature="0" />
      <path
         style="fill:none;stroke:#0000ff;stroke-width:6;stroke-linecap:round;stroke-linejoin:round;stroke-miterlimit:4;stroke-opacity:1;stroke-dasharray:none"
         d="m 5016.7346,380.02425 3.0933,12.59431"
         id="path4226"
         inkscape:connector-curvature="0" />
    </g>
  </g>
</svg>
