<?xml version="1.0" encoding="UTF-8" standalone="no"?>
<!-- Created with Inkscape (http://www.inkscape.org/) -->

<svg
   xmlns:dc="http://purl.org/dc/elements/1.1/"
   xmlns:cc="http://creativecommons.org/ns#"
   xmlns:rdf="http://www.w3.org/1999/02/22-rdf-syntax-ns#"
   xmlns:svg="http://www.w3.org/2000/svg"
   xmlns="http://www.w3.org/2000/svg"
   xmlns:sodipodi="http://sodipodi.sourceforge.net/DTD/sodipodi-0.dtd"
   xmlns:inkscape="http://www.inkscape.org/namespaces/inkscape"
   width="744.09448819"
   height="1052.3622047"
   id="svg2"
   version="1.1"
   inkscape:version="0.48.3.1 r9886"
   sodipodi:docname="type.svg"
   inkscape:export-filename="/home/stone/SparkleShare/osp.workshop.chaumont-2013/type.png"
   inkscape:export-xdpi="90"
   inkscape:export-ydpi="90">
  <defs
     id="defs4" />
  <sodipodi:namedview
     id="base"
     pagecolor="#ffffff"
     bordercolor="#666666"
     borderopacity="1.0"
     inkscape:pageopacity="0.0"
     inkscape:pageshadow="2"
     inkscape:zoom="4"
     inkscape:cx="165.22823"
     inkscape:cy="976.03195"
     inkscape:document-units="px"
     inkscape:current-layer="layer1-7"
     showgrid="false"
     inkscape:window-width="1818"
     inkscape:window-height="1031"
     inkscape:window-x="52"
     inkscape:window-y="27"
     inkscape:window-maximized="0" />
  <metadata
     id="metadata7">
    <rdf:RDF>
      <cc:Work
         rdf:about="">
        <dc:format>image/svg+xml</dc:format>
        <dc:type
           rdf:resource="http://purl.org/dc/dcmitype/StillImage" />
        <dc:title></dc:title>
      </cc:Work>
    </rdf:RDF>
  </metadata>
  <g
     inkscape:label="Layer 1"
     inkscape:groupmode="layer"
     id="layer1">
    <g
       id="layer1-7"
       inkscape:label="Layer 1"
       transform="translate(23.580008,22.280961)">
      <path
         style="fill:#000000"
         d="m 430.48331,68.225166 -3.45097,-0.0986 0.0699,-5.81735 c 0.0384,-3.19954 0.13717,-10.5649 0.2194,-16.36746 0.0822,-5.80256 0.13954,-12.01431 0.12733,-13.80388 l -0.0222,-3.25378 -2.76078,-0.0986 -2.76077,-0.0986 0.0206,-2.46498 c 0.0112,-1.35574 0.0335,-3.05652 0.0493,-3.77949 l 0.0287,-1.31452 9.55429,0.0327 c 6.50268,0.0223 9.62192,0.10035 9.76601,0.24446 0.13927,0.13928 0.19324,1.42151 0.15772,3.74677 l -0.054,3.53502 -2.81086,0.0258 c -1.78378,0.0164 -2.91023,0.10826 -3.0828,0.25149 -0.21053,0.17473 -0.27405,0.97029 -0.28137,3.52375 -0.005,1.81395 -0.10201,6.35959 -0.21514,10.10143 -0.11315,3.74184 -0.25281,8.84434 -0.31037,11.3389 -0.29852,12.93728 -0.35882,14.23285 -0.66785,14.34861 -0.0688,0.0258 -1.67808,0.003 -3.57611,-0.0517 z"
         id="path4180" />
      <path
         style="fill:#000000"
         d="m 412.12867,66.992676 c -0.62496,-2.30115 -3.83218,-17.03141 -4.92691,-22.62851 -0.59222,-3.02792 -0.81738,-3.77177 -1.06633,-3.52283 -0.0545,0.0545 -0.14734,1.69025 -0.20638,3.63504 -0.059,1.94477 -0.19334,6.33125 -0.29844,9.74771 -0.10513,3.41646 -0.19121,7.69087 -0.19131,9.49869 -9e-5,1.80781 -0.054,3.4273 -0.11987,3.59887 -0.10276,0.26781 -0.60244,0.31192 -3.53315,0.31192 -2.07667,0 -3.43917,-0.0764 -3.47917,-0.1952 -0.0893,-0.26523 0.27817,-15.63623 0.53043,-22.1868 0.0543,-1.40997 0.18996,-6.06878 0.30146,-10.35292 0.34164,-13.12741 0.30761,-12.54885 0.7836,-13.31901 0.23185,-0.37515 0.52522,-0.6898 0.65196,-0.69926 1.16521,-0.087 8.74586,0.0802 8.86434,0.1955 0.0849,0.0826 0.49812,1.78455 0.91822,3.78203 0.42009,1.9975 1.04333,4.96289 1.38498,6.58977 0.79918,3.80563 0.97747,4.47006 1.16794,4.35235 0.12018,-0.0743 0.50152,-10.84567 0.45429,-12.83187 -0.005,-0.21692 0.0353,-0.77892 0.0898,-1.24888 l 0.0992,-0.85448 3.308,0.0657 c 2.52702,0.0502 3.38936,0.13328 3.65252,0.35201 0.31053,0.25808 0.33236,0.57908 0.22136,3.25378 -0.15165,3.65359 -0.25297,7.27202 -0.40061,14.30634 -0.1194,5.68968 -0.25227,10.72015 -0.40106,15.18427 -0.0488,1.4642 -0.14275,5.04784 -0.20877,7.96368 -0.066,2.91581 -0.16656,5.42269 -0.22341,5.57085 -0.082,0.21376 -0.83011,0.26935 -3.62423,0.26935 l -3.52088,0 -0.2276,-0.83809 z"
         id="path4178" />
      <path
         style="fill:#000000"
         d="m 415.10185,43.760936 c 0,-0.21053 -0.0784,-0.38276 -0.17421,-0.38276 -0.2026,0 -0.42451,0.71595 -0.26985,0.87061 0.18699,0.18699 0.44406,-0.0955 0.44406,-0.48785 z"
         id="path4176" />
      <path
         style="fill:#000000"
         d="m 388.87447,67.230856 c -1.68112,-0.0799 -4.60301,-0.20387 -6.49309,-0.27555 -1.89009,-0.0717 -3.52149,-0.18284 -3.62534,-0.24703 -0.18866,-0.11658 -0.15957,-1.45207 0.2484,-11.3996 0.10674,-2.60302 0.28828,-7.74989 0.40342,-11.4375 0.45754,-14.65509 0.77369,-22.78668 0.91155,-23.4458 l 0.11939,-0.57079 5.45032,0.12857 c 5.50665,0.12992 10.72406,0.33076 11.26768,0.43378 0.16269,0.0308 0.40672,0.0628 0.54229,0.0711 0.18626,0.0114 0.24585,0.77424 0.2438,3.12096 -0.002,1.70823 -0.0591,3.3168 -0.12814,3.57459 l -0.12544,0.4687 -5.19621,-0.14391 -5.19622,-0.14394 -0.0136,0.75981 c -0.007,0.4179 -0.0432,1.42535 -0.0795,2.23879 -0.0362,0.81345 -0.12642,3.35291 -0.20041,5.64327 l -0.13453,4.16425 0.5337,0.10203 c 0.29351,0.0561 1.52122,0.12359 2.72824,0.14993 1.20703,0.0264 2.46079,0.0738 2.78617,0.10537 0.32538,0.0316 0.67061,0.0646 0.76718,0.0735 0.17466,0.016 -0.002,5.22325 -0.20627,6.06669 -0.10224,0.42301 -0.16132,0.42989 -3.38905,0.3944 l -3.28497,-0.0361 -0.13336,1.18319 c -0.0733,0.65075 -0.19615,3.50425 -0.2729,6.34113 l -0.13954,5.15792 1.25889,0.10676 c 0.69239,0.0587 3.02353,0.19444 5.1803,0.30162 2.15678,0.10717 3.99463,0.26809 4.08412,0.35758 0.15206,0.15206 -0.13201,6.17526 -0.3167,6.71533 -0.0946,0.27645 -2.37468,0.28876 -7.59022,0.041 z"
         id="path4174" />
      <path
         style="fill:#000000"
         d="m 392.42404,65.945746 c 0,-0.0478 -0.0887,-0.087 -0.1972,-0.087 -0.10846,0 -0.1972,0.094 -0.1972,0.20883 0,0.11487 0.0887,0.154 0.1972,0.087 0.10846,-0.067 0.1972,-0.16101 0.1972,-0.20884 z"
         id="path4172" />
      <path
         style="fill:#000000"
         d="m 376.23005,66.952526 c -0.0492,-0.0492 -1.24923,-0.10266 -2.66673,-0.11877 -1.4175,-0.0162 -2.69328,-0.10099 -2.83504,-0.18862 -0.21156,-0.13074 -0.21641,-1.65643 -0.027,-8.50866 0.1269,-4.59215 0.28049,-10.34599 0.34135,-12.78632 0.0608,-2.44032 0.15222,-5.31962 0.20307,-6.39843 0.10054,-2.13309 -0.0334,-3.23163 -0.3548,-2.91021 -0.25178,0.25178 -1.21986,6.03166 -2.2362,13.35121 -0.18072,1.30151 -0.49373,3.38688 -0.69556,4.63416 -0.20185,1.24728 -0.68667,4.48626 -1.07738,7.19774 -0.39071,2.71148 -0.79362,5.01446 -0.89536,5.11773 -0.21668,0.21995 -5.53009,0.15172 -5.76394,-0.074 -0.0863,-0.0833 -0.2343,-0.89725 -0.32889,-1.80878 -0.90386,-8.70879 -1.37171,-13.40799 -2.17739,-21.87016 -0.66185,-6.95176 -0.75,-7.6441 -0.99226,-7.79383 -0.3803,-0.23504 -0.53664,0.77118 -0.65943,4.24426 -0.0709,2.00649 -0.21114,5.82228 -0.31157,8.47953 -0.10042,2.65724 -0.23857,7.84849 -0.30698,11.5361 -0.0684,3.68761 -0.16391,6.82744 -0.21221,6.97739 -0.0704,0.21861 -0.46809,0.24862 -2.00667,0.15147 -1.05536,-0.0666 -2.66365,-0.12278 -3.57398,-0.12473 l -1.65515,-0.004 0.13049,-4.58486 c 0.0718,-2.52168 0.21576,-7.06956 0.31999,-10.10642 0.10424,-3.03685 0.23104,-6.89701 0.28178,-8.57812 0.0507,-1.68112 0.18117,-4.87573 0.28984,-7.09914 0.10866,-2.22341 0.24575,-5.4624 0.30464,-7.19774 0.17647,-5.20085 0.32596,-8.25468 0.42847,-8.75229 l 0.0968,-0.46997 5.3633,0.13299 c 2.94981,0.0731 5.73198,0.18251 6.1826,0.24303 l 0.8193,0.11006 0.12782,1.60732 c 0.4229,5.31793 1.13135,11.76347 1.30477,11.87065 0.0768,0.0475 0.28043,-0.46758 0.45247,-1.14454 0.34768,-1.3681 1.74404,-8.51116 2.10333,-10.75961 0.15175,-0.94955 0.33339,-1.48303 0.53074,-1.55876 0.39284,-0.15076 11.94176,0.33323 12.12577,0.50814 0.0777,0.0738 0.15766,0.39905 0.17769,0.72266 0.0445,0.71799 -0.22391,7.88746 -0.321,8.57491 -0.0383,0.27115 -0.12324,2.75584 -0.18877,5.52155 -0.0655,2.76571 -0.20093,6.62586 -0.30085,8.57813 -0.0999,1.95226 -0.23261,5.59057 -0.29487,8.08513 -0.17925,7.1819 -0.48901,13.12797 -0.70492,13.53141 -0.13406,0.25046 -0.13248,0.4946 0.005,0.75119 0.27994,0.52305 0.054,1.00027 -0.47358,1.00027 -0.24147,0 -0.47929,-0.0403 -0.52849,-0.0894 z"
         id="path4170" />
      <path
         style="fill:#000000"
         d="m 372.54002,41.754726 c -0.17549,-0.17549 -0.22704,-0.0685 -0.21686,0.45012 0.0124,0.63892 0.0265,0.65293 0.23021,0.23021 0.16034,-0.33283 0.15685,-0.51013 -0.0134,-0.68033 z"
         id="path4168" />
      <path
         style="fill:#000000"
         d="m 371.04857,34.754856 c -0.0655,-0.0655 -0.11215,0.051 -0.10359,0.25882 0.01,0.22974 0.0562,0.27645 0.11915,0.11915 0.057,-0.14236 0.05,-0.31244 -0.0156,-0.37797 z"
         id="path4166" />
      <path
         style="fill:#000000"
         d="m 356.55613,33.855966 c -0.16105,-0.16105 -0.21939,-0.13899 -0.21939,0.083 0,0.16632 0.0647,0.36708 0.1438,0.44616 0.0791,0.0791 0.1778,0.0418 0.21939,-0.083 0.0416,-0.12473 -0.0231,-0.3255 -0.1438,-0.44616 z"
         id="path4164" />
      <path
         style="fill:#000000"
         d="m 340.36368,66.049296 c -2.22341,-0.0829 -5.50676,-0.21289 -7.29634,-0.28877 -1.78957,-0.0759 -3.52969,-0.12726 -3.86694,-0.11416 -1.12156,0.0436 -1.13765,-0.0582 -0.89455,-5.65644 0.12122,-2.7916 0.27265,-7.24976 0.33648,-9.90701 0.0638,-2.65724 0.14331,-5.40816 0.17661,-6.11314 0.0333,-0.70499 0.11826,-3.14532 0.18882,-5.42296 0.0706,-2.27764 0.16746,-4.93982 0.21532,-5.91595 0.10556,-2.15297 0.26517,-6.23624 0.40463,-10.35117 0.0569,-1.68017 0.19176,-3.14309 0.2996,-3.25094 0.10783,-0.10782 0.70315,-0.19157 1.32295,-0.18611 2.77304,0.0245 13.15654,0.33492 15.02937,0.44939 l 2.07058,0.12655 -0.0612,3.15517 c -0.0336,1.73534 -0.10824,3.40378 -0.1658,3.70764 l -0.10464,0.55247 -1.31318,-0.11587 c -2.60008,-0.22946 -9.40123,-0.46935 -9.53339,-0.33628 -0.22337,0.22488 -0.32812,1.84798 -0.46997,7.28105 -0.1124,4.30559 -0.0895,5.18766 0.13641,5.26001 0.14929,0.0478 1.78001,0.16026 3.62381,0.24987 l 3.35237,0.16297 -0.0654,2.50485 c -0.036,1.37768 -0.0957,2.6644 -0.13281,2.85937 -0.0371,0.19499 -0.0742,0.55727 -0.0825,0.80505 l -0.015,0.45052 -3.62602,-0.13503 -3.62603,-0.135 -0.11952,3.03686 c -0.31737,8.06245 -0.32266,9.41415 -0.038,9.69884 0.21236,0.21236 1.37283,0.3067 5.07494,0.41258 2.63977,0.0755 4.97707,0.16452 5.19398,0.19785 0.35348,0.0543 0.39967,0.23259 0.44522,1.71844 0.0279,0.91183 -0.0164,2.50089 -0.0986,3.53125 l -0.14942,1.87339 -1.08459,0.0227 c -0.59652,0.0124 -2.90374,-0.0451 -5.12716,-0.12802 z"
         id="path4162" />
      <path
         style="fill:#000000"
         d="m 323.27708,65.509116 c -2.40543,-0.0383 -3.44029,-0.12491 -3.58562,-0.30002 -0.11234,-0.1354 -0.38065,-1.08729 -0.59619,-2.11533 -0.21556,-1.02803 -0.57949,-2.75653 -0.80875,-3.84112 -0.22926,-1.08459 -0.50444,-2.5863 -0.61147,-3.33713 -0.10704,-0.75083 -0.26918,-1.46075 -0.36033,-1.57759 -0.0911,-0.11684 -0.21758,-0.52303 -0.28096,-0.90263 -0.0634,-0.37961 -0.65648,-3.30801 -1.31798,-6.50755 -0.66152,-3.19954 -1.30969,-6.3868 -1.44041,-7.08279 -0.13073,-0.69599 -0.33885,-1.29912 -0.46249,-1.3403 -0.31659,-0.1054 -0.4368,1.98135 -0.66133,11.47967 -0.10512,4.44682 -0.24795,9.70462 -0.31739,11.684 l -0.12626,3.59887 -1.60287,-0.0209 c -0.8816,-0.0114 -2.39551,-0.078 -3.36426,-0.1479 -1.74718,-0.12599 -1.76276,-0.13178 -1.93134,-0.71861 -0.14867,-0.51747 0.0708,-12.76774 0.3374,-18.83244 0.0501,-1.13882 0.14719,-4.20032 0.21583,-6.80334 0.0686,-2.60302 0.15504,-4.7832 0.19198,-4.84487 0.0369,-0.0616 0.0918,-2.72382 0.122,-5.91595 0.0302,-3.1921 0.0855,-6.67571 0.12298,-7.74133 l 0.0681,-1.93749 4.17658,0.0523 c 2.29712,0.0288 4.54392,0.0882 4.9929,0.13205 l 0.81631,0.0798 0.42287,2.00265 c 0.84334,3.99408 2.91976,12.76238 3.05405,12.89667 0.3608,0.36082 0.45677,-0.87623 0.57994,-7.47549 0.073,-3.91176 0.18501,-7.19685 0.24889,-7.30018 0.14066,-0.22761 6.32411,-0.16707 6.95993,0.0682 0.44072,0.16302 0.44084,0.16452 0.32548,3.86167 -0.13291,4.25925 -0.30708,7.96165 -0.40402,8.58917 -0.0369,0.23857 -0.12161,3.36218 -0.18834,6.94133 -0.0667,3.57915 -0.16056,7.30619 -0.20852,8.28233 -0.048,0.97613 -0.14315,3.77141 -0.21154,6.21174 -0.27759,9.90437 -0.40177,12.62144 -0.58339,12.76546 -0.10475,0.0831 -1.71207,0.1268 -3.57179,0.0972 z"
         id="path4160" />
      <path
         style="fill:#000000"
         d="m 309.99514,41.110396 c 0,-0.16269 -0.0887,-0.2958 -0.1972,-0.2958 -0.10846,0 -0.1972,0.13311 -0.1972,0.2958 0,0.16269 0.0887,0.2958 0.1972,0.2958 0.10846,0 0.1972,-0.13311 0.1972,-0.2958 z"
         id="path4158" />
      <path
         style="fill:#000000"
         d="m 291.66362,64.916076 c -2.86924,-0.0598 -2.95774,-0.0945 -2.96288,-1.16433 -0.002,-0.34544 -0.0889,-0.85383 -0.19377,-1.12977 -0.19034,-0.50063 -0.19464,-0.50144 -2.02128,-0.38093 -1.0068,0.0664 -1.87491,0.15993 -1.92914,0.20779 -0.0542,0.0479 -0.18733,0.58372 -0.29579,1.1908 l -0.1972,1.10376 -1.47898,-0.0549 c -0.81345,-0.0302 -2.41075,-0.0676 -3.54957,-0.0832 l -2.07059,-0.0283 0.0532,-1.28179 c 0.0293,-0.70498 0.276,-2.92346 0.54831,-4.92996 0.27233,-2.00649 0.53529,-3.95875 0.5844,-4.33836 0.0491,-0.37961 0.30652,-2.11002 0.57207,-3.84537 0.26554,-1.73534 0.58652,-4.08693 0.71328,-5.22575 0.12676,-1.13882 0.40412,-3.22419 0.61637,-4.63416 0.21224,-1.40997 0.4278,-2.96291 0.47905,-3.45097 0.36663,-3.49223 2.57356,-18.85301 2.7496,-19.13784 0.11252,-0.18208 6.29119,-0.0843 6.92487,0.10958 0.12433,0.038 0.28625,0.54135 0.3598,1.11849 0.0736,0.57712 0.38874,2.77973 0.70039,4.89468 0.31167,2.11495 0.70589,4.91024 0.87608,6.21174 0.17018,1.30151 0.4362,3.29815 0.59116,4.43697 0.15494,1.13882 0.38022,3.09108 0.50062,4.33836 0.23944,2.48054 1.26213,11.39055 2.16159,18.83244 0.31461,2.60302 0.60024,5.30956 0.63473,6.01455 l 0.0627,1.28179 -0.8874,0 c -0.48806,0 -2.0818,-0.0249 -3.54164,-0.0553 z"
         id="path4156" />
      <path
         style="fill:#000000"
         d="m 279.89436,61.816216 c 0,-0.10845 -0.14899,-0.22589 -0.33108,-0.26095 -0.20173,-0.0388 -0.33108,0.0631 -0.33108,0.26095 0,0.19787 0.12935,0.29981 0.33108,0.26096 0.18209,-0.0351 0.33108,-0.1525 0.33108,-0.26096 z"
         id="path4154" />
      <path
         style="fill:#000000"
         d="m 287.9245,58.608056 c 0.18241,-0.2079 -1.12919,-10.30923 -1.36981,-10.54985 -0.23378,-0.23378 -0.30002,0.0189 -0.60834,2.32051 -0.35322,2.63668 -0.99461,7.87299 -0.99503,8.12309 0,0.4013 2.63179,0.49537 2.97318,0.10625 z"
         id="path4152" />
      <path
         style="fill:#000000"
         d="m 297.23907,64.552266 c -0.0677,-0.17629 -0.063,-2.19511 0.0102,-4.48626 0.0733,-2.29115 0.26202,-9.66757 0.4193,-16.39203 0.51919,-22.19676 0.61929,-25.10084 0.87965,-25.52212 0.11445,-0.18519 1.00419,-0.22942 3.61411,-0.17967 1.90425,0.0363 3.53107,0.13499 3.61518,0.21931 0.13163,0.13196 -0.18227,16.39102 -0.42153,21.83431 -0.25689,5.84441 -0.50412,14.0051 -0.57172,18.87115 -0.0425,3.05815 -0.13502,5.65377 -0.20564,5.76805 -0.0823,0.13311 -1.40216,0.20779 -3.67254,0.20779 -3.08996,0 -3.55989,-0.0411 -3.66712,-0.32053 z"
         id="path4150" />
      <path
         style="fill:#000000"
         d="m 242.25752,64.548266 c -2.96801,-0.43995 -5.61225,-2.04003 -6.58861,-3.98691 -1.11717,-2.22767 -1.21226,-3.07014 -1.18623,-10.50992 0.0271,-7.74351 0.29467,-21.10155 0.47535,-23.73146 0.15933,-2.31947 0.42827,-3.50238 1.10293,-4.85128 1.10947,-2.21828 2.73001,-3.49433 5.13123,-4.04047 1.75657,-0.39953 6.41727,-0.28683 8.41144,0.20337 1.87498,0.46091 3.549,1.71266 4.59863,3.43862 0.58642,0.9643 0.99027,2.97446 1.10423,5.49626 0.0965,2.13595 0.0723,2.41568 -0.20886,2.41568 -0.17491,0 -0.31802,0.0982 -0.31802,0.21829 0,0.12006 0.13311,0.16723 0.2958,0.1048 0.25456,-0.0977 0.2958,0.28595 0.2958,2.75263 0,1.71038 -0.0876,3.02989 -0.2173,3.27217 -0.21092,0.39412 -0.31879,0.4022 -3.67794,0.27608 -1.90336,-0.0715 -3.536,-0.17654 -3.62808,-0.23343 -0.0921,-0.0569 -0.16742,-1.85421 -0.16742,-3.99401 0,-3.6459 -0.0279,-3.94515 -0.44369,-4.75889 -0.5517,-1.07968 -1.18935,-1.54284 -2.25995,-1.64154 -1.45271,-0.13392 -2.5148,0.92823 -2.71274,2.71294 -0.10821,0.97562 -0.31183,17.91028 -0.28381,23.60422 0.008,1.58908 0.0885,3.21848 0.17921,3.6209 0.20392,0.90411 1.04866,1.81527 1.90119,2.05066 0.80424,0.22207 1.97968,-0.0304 2.3633,-0.50753 0.78061,-0.97096 0.8621,-1.52548 0.8621,-5.86749 l 0,-4.23586 3.6684,0.0601 c 2.86805,0.047 3.70746,0.12008 3.84746,0.33484 0.33811,0.51872 -0.002,9.88197 -0.4356,11.99027 -0.55162,2.68251 -1.73238,4.17055 -4.11188,5.18196 -1.43298,0.60909 -1.60144,0.63457 -4.44737,0.67286 -1.62689,0.0219 -3.22419,0 -3.54957,-0.0479 z"
         id="path4148" />
      <path
         style="fill:#000000"
         d="m 269.39704,64.318786 -1.05987,-0.0605 0.0739,-9.89805 0.0738,-9.89806 -2.31957,-0.0556 c -2.25847,-0.0541 -2.32398,-0.0437 -2.48667,0.3944 -0.0919,0.24748 -0.22508,3.20088 -0.29595,6.56311 -0.0709,3.36224 -0.18537,7.6439 -0.25439,9.51482 l -0.1255,3.40167 -3.11277,0 c -1.71202,0 -3.35226,-0.091 -3.64494,-0.20232 l -0.53216,-0.20233 0.14443,-6.35451 c 0.0794,-3.49499 0.17598,-6.62074 0.21453,-6.94612 0.0386,-0.32538 0.11978,-4.93982 0.1805,-10.25431 0.19982,-17.48544 0.30211,-22.65825 0.45089,-22.80252 0.14224,-0.1379 2.76948,-0.22431 5.73173,-0.18852 l 1.44367,0.0174 -0.12412,9.92479 c -0.10071,8.05301 -0.0755,9.96516 0.13392,10.13887 0.14192,0.11777 1.23416,0.24386 2.42721,0.28024 l 2.16919,0.0661 0.12437,-3.05657 c 0.0684,-1.68112 0.13918,-6.17728 0.15728,-9.99147 0.0264,-5.56586 0.0857,-6.97871 0.30034,-7.15682 0.18158,-0.1507 1.11222,-0.19245 2.89929,-0.13007 1.44753,0.0505 2.9782,0.0987 3.40153,0.10698 l 0.76966,0.0152 -0.13886,8.13443 c -0.0764,4.47394 -0.17813,9.95359 -0.22615,12.177 -0.048,2.22341 -0.14344,8.12457 -0.21209,13.11369 -0.0686,4.98912 -0.18012,10.0456 -0.24772,11.23663 l -0.12291,2.16552 -2.36638,0.004 c -1.30151,0.002 -2.8433,-0.0236 -3.42622,-0.0568 z"
         id="path4146" />
      <path
         style="fill:#000000"
         d="m 257.14599,32.630416 c 0,-0.16269 -0.13311,-0.29579 -0.29579,-0.29579 -0.16269,0 -0.2958,0.1331 -0.2958,0.29579 0,0.16269 0.13311,0.2958 0.2958,0.2958 0.16268,0 0.29579,-0.13311 0.29579,-0.2958 z"
         id="path4144" />
      <path
         style="fill:#000000"
         d="m 205.57205,64.072906 c -0.0707,-0.11434 -0.0981,-4.21853 -0.0609,-9.12043 l 0.0675,-8.91257 -0.45657,-0.64013 c -0.68625,-0.96211 -2.04217,-1.68095 -3.12954,-1.65912 -0.49678,0.0101 -0.94951,0.0644 -1.00605,0.12092 -0.0565,0.0565 -0.17341,2.78828 -0.25973,6.07053 -0.0863,3.28225 -0.20254,7.43191 -0.25831,9.22149 -0.0558,1.78957 -0.10457,3.63921 -0.10847,4.11032 l -0.007,0.85653 -3.73054,-0.0677 c -2.05181,-0.0373 -3.79163,-0.12892 -3.86629,-0.2037 -0.24001,-0.24039 -0.20517,-2.26307 0.32386,-18.79509 0.21776,-6.80545 0.24326,-7.87539 0.48154,-20.21283 0.12045,-6.23667 0.19948,-7.6734 0.44263,-8.04727 0.2874,-0.44192 0.36231,-0.45241 2.5829,-0.36184 1.25779,0.0513 2.46439,0.0857 2.68131,0.0765 2.3138,-0.0986 6.64946,0.15477 7.16076,0.41838 0.18302,0.0944 0.6488,0.22853 1.03507,0.2981 1.81271,0.32655 5.25475,3.37432 5.70681,5.05313 0.5061,1.87958 0.8103,8.07622 0.41955,8.54705 -0.1192,0.14364 -0.18696,1.18035 -0.16367,2.50418 0.037,2.10494 0.002,2.33982 -0.51254,3.44228 -0.89903,1.92594 -2.2899,3.07803 -4.72276,3.9119 -0.53149,0.18217 -0.40923,0.70043 0.1972,0.83582 1.917,0.428 3.50581,1.50238 4.1821,2.82803 0.20485,0.40153 0.42114,1.34593 0.48065,2.0987 0.1778,2.2491 0.36788,16.96777 0.22495,17.41817 -0.12842,0.40455 -0.23942,0.41654 -3.85407,0.41654 -2.39572,0 -3.76761,-0.0741 -3.85029,-0.20784 z"
         id="path4142" />
      <path
         style="fill:#000000"
         d="m 204.08846,36.697126 c 1.1796,-0.60282 1.38114,-1.07006 1.69869,-3.93853 0.35756,-3.22959 0.29039,-5.78747 -0.17681,-6.73432 -0.56059,-1.13614 -1.212,-1.48569 -2.67712,-1.43659 -0.69578,0.0233 -1.32979,0.11207 -1.40893,0.1972 -0.0791,0.0851 -0.20727,2.83411 -0.28473,6.10885 l -0.14082,5.95405 0.66235,0.19455 c 0.77282,0.22702 1.38544,0.13615 2.32737,-0.34521 z"
         id="path4140" />
      <path
         style="fill:#000000"
         d="m 212.38197,29.573846 c 0,-0.10846 -0.0887,-0.1972 -0.19719,-0.1972 -0.10846,0 -0.1972,0.0887 -0.1972,0.1972 0,0.10846 0.0887,0.1972 0.1972,0.1972 0.10845,0 0.19719,-0.0887 0.19719,-0.1972 z"
         id="path4138" />
      <path
         style="fill:#000000"
         d="m 221.94609,63.975266 c -2.07119,-0.38242 -3.15069,-0.7569 -4.02036,-1.39466 -1.24923,-0.91611 -1.94946,-1.86751 -2.48521,-3.37665 -0.9893,-2.78671 -1.02462,-3.3783 -0.96828,-16.22063 0.0288,-6.56177 0.0941,-12.0636 0.14525,-12.22629 0.0511,-0.16269 0.18371,-1.98184 0.2947,-4.04257 0.23717,-4.40399 0.50575,-5.5292 1.50103,-6.28834 0.37239,-0.28404 0.86821,-0.8489 1.10179,-1.25522 0.32496,-0.56525 0.75623,-0.89881 1.83629,-1.42017 1.34302,-0.64828 1.51219,-0.68078 3.48218,-0.66868 3.56012,0.0219 5.90828,0.45033 7.19774,1.31337 3.28783,2.20057 4.16566,5.58006 3.74752,14.42714 -0.0463,0.97892 -0.13607,6.26117 -0.19954,11.73835 -0.0635,5.47718 -0.16535,10.12554 -0.22637,10.32966 -0.088,0.2945 -0.14553,0.31521 -0.27838,0.10026 -0.13627,-0.22047 -0.21453,-0.2238 -0.42049,-0.0179 -0.20595,0.20596 -0.20006,0.28582 0.0317,0.42905 0.15662,0.0968 0.35553,0.13222 0.44206,0.0787 0.21988,-0.13589 0.1998,0.12272 -0.14409,1.85706 -0.67677,3.41299 -2.11507,5.41295 -4.57991,6.36832 -1.44988,0.56195 -4.2415,0.6783 -6.4576,0.26911 z"
         id="path4136" />
      <path
         style="fill:#000000"
         d="m 228.35504,59.942386 c 0,-0.10846 -0.0887,-0.1972 -0.1972,-0.1972 -0.10846,0 -0.1972,0.0887 -0.1972,0.1972 0,0.10846 0.0887,0.1972 0.1972,0.1972 0.10846,0 0.1972,-0.0887 0.1972,-0.1972 z"
         id="path4134" />
      <path
         style="fill:#000000"
         d="m 225.36255,56.292996 c 0.40105,-0.33745 0.65198,-0.79098 0.79106,-1.42969 0.12209,-0.56075 0.25088,-6.40388 0.32148,-14.58692 0.11627,-13.47399 0.11256,-13.66172 -0.28486,-14.44071 -0.99031,-1.94118 -3.67765,-1.78916 -4.31945,0.24435 -0.25596,0.81101 -0.39274,6.74641 -0.44306,19.22817 -0.039,9.66101 -0.0297,9.93081 0.35681,10.45152 0.84953,1.1444 2.55048,1.39789 3.57802,0.53328 z"
         id="path4132" />
      <path
         style="fill:#000000"
         d="m 230.32702,39.213296 c 0,-0.10846 -0.0887,-0.14236 -0.1972,-0.0753 -0.10846,0.067 -0.1972,0.21061 -0.1972,0.31906 0,0.10846 0.0887,0.14236 0.1972,0.0753 0.10846,-0.067 0.1972,-0.2106 0.1972,-0.31906 z"
         id="path4130" />
      <path
         style="fill:#000000"
         d="m 173.06331,63.138816 -0.5692,-0.0727 0.13206,-5.06216 c 0.21849,-8.3747 0.34697,-11.95304 0.43424,-12.09425 0.0455,-0.0737 0.13041,-4.99955 0.18862,-10.9464 0.0582,-5.94685 0.1405,-11.56675 0.18288,-12.48865 0.0424,-0.9219 0.0827,-2.68618 0.0895,-3.92062 l 0.0125,-2.24445 4.68346,0.14009 c 6.53866,0.19558 8.04279,0.35523 9.40131,0.99792 1.66485,0.78759 3.5148,2.67371 4.04475,4.12383 0.92995,2.54459 1.03748,3.60224 0.90384,8.88976 -0.14097,5.57823 -0.34314,7.55802 -0.93418,9.14839 -0.98998,2.66371 -3.52076,3.7681 -8.63492,3.7681 -1.39646,0 -2.5875,0.0784 -2.6467,0.17421 -0.0592,0.0958 -0.19966,4.50026 -0.31211,9.78768 -0.11242,5.28742 -0.2543,9.69419 -0.31526,9.79283 -0.10258,0.16596 -5.37063,0.17101 -6.66079,0.006 z"
         id="path4128" />
      <path
         style="fill:#000000"
         d="m 182.5406,36.872886 c 1.14115,-0.004 1.88063,-0.66503 2.3256,-2.07973 0.27723,-0.88136 0.3482,-1.81865 0.35048,-4.62868 0.003,-3.10114 -0.0419,-3.60187 -0.371,-4.17696 -0.46121,-0.80605 -1.98678,-1.60379 -3.10657,-1.62446 l -0.81027,-0.015 -0.12555,1.77479 c -0.17517,2.47649 -0.22019,10.50694 -0.0603,10.76561 0.0725,0.11729 0.32146,0.16237 0.55326,0.10017 0.23179,-0.0622 0.79178,-0.11429 1.2444,-0.11577 z"
         id="path4126" />
      <path
         style="fill:#000000"
         d="M 170.4375 38.21875 C 168.13251 38.23882 165.8344 38.29061 165.75 38.375 C 165.64237 38.48264 165.47515 39.37474 165.375 40.34375 C 165.27485 41.31275 164.9656 43.86207 164.6875 46.03125 C 163.88294 52.30709 163.25227 57.30169 162.59375 62.8125 C 161.85497 68.99496 161.59873 71.08274 160.71875 77.875 C 160.03992 83.1146 159.94261 84.59887 160.1875 84.84375 C 160.3474 85.00366 163.47203 84.98816 165.75 84.8125 L 167.40625 84.6875 L 167.75 83.125 C 167.94296 82.25733 168.122 81.29444 168.125 81 C 168.13373 80.24077 168.66242 80.02675 170.4375 80.09375 L 171.96875 80.15625 L 172.21875 82.21875 C 172.36118 83.35757 172.56965 84.43106 172.65625 84.59375 C 172.78487 84.83532 173.36554 84.88615 175.84375 84.90625 C 177.51273 84.91976 179.09015 84.8458 179.34375 84.75 C 179.7936 84.58006 179.7841 84.53033 179.6875 82.65625 C 179.5207 79.42109 178.89076 72.60543 178 64.78125 C 177.3518 59.0876 177.00614 55.85169 176.8125 53.53125 C 176.71294 52.3382 176.39379 49.6462 176.125 47.53125 C 175.85622 45.41629 175.53233 42.4642 175.40625 41 C 175.28017 39.5358 175.1536 38.31115 175.125 38.28125 C 175.04555 38.19828 172.74249 38.19868 170.4375 38.21875 z M 170.1875 65.71875 C 170.4259 65.625262 170.61571 66.09629 170.71875 67.0625 C 171.13116 70.92957 171.4736 75.18416 171.375 75.34375 C 171.31267 75.44461 170.78103 75.53125 170.1875 75.53125 C 169.39169 75.53125 169.05585 75.44563 168.96875 75.21875 C 168.75794 74.66939 169.60523 66.62524 169.9375 66 C 170.02304 65.839043 170.10803 65.749913 170.1875 65.71875 z "
         transform="translate(-23.580008,-22.280961)"
         id="path4124" />
      <path
         style="fill:#000000"
         d="m 146.91213,42.600566 c 0,-0.45048 -0.3109,-0.70066 -0.49684,-0.3998 -0.16565,0.26803 0.0273,0.78256 0.29346,0.78256 0.11186,0 0.20338,-0.17223 0.20338,-0.38276 z"
         id="path4120" />
      <path
         style="fill:#000000"
         d="m 144.74295,26.024276 c 0,-0.10846 -0.0887,-0.1972 -0.1972,-0.1972 -0.10846,0 -0.1972,0.0887 -0.1972,0.1972 0,0.10846 0.0887,0.1972 0.1972,0.1972 0.10846,0 0.1972,-0.0887 0.1972,-0.1972 z"
         id="path4118" />
      <path
         style="fill:#000000"
         d="m 103.775,62.161266 c -2.36237,-0.0471 -3.00727,-0.11702 -3.00727,-0.32597 0,-0.14632 -0.0537,-0.53437 -0.11927,-0.86233 -0.10032,-0.50163 -0.0177,-0.68558 0.52048,-1.15854 1.06061,-0.93212 1.18473,-1.07937 1.06839,-1.26761 -0.0626,-0.10134 -0.36879,-0.0476 -0.69779,0.12256 -0.71801,0.3713 -0.96901,0.24091 -0.96901,-0.50337 0,-0.4196 0.18204,-0.70877 0.69019,-1.09637 0.37961,-0.28954 0.6902,-0.64901 0.6902,-0.79883 0,-0.31216 -0.70406,-0.37183 -0.8874,-0.0752 -0.50793,0.82187 -0.53709,-0.39276 -0.39577,-16.48935 0.12309,-14.01912 0.10338,-16.71386 -0.12326,-16.85744 -0.14837,-0.094 -1.40119,-0.17225 -2.78404,-0.17391 l -2.51428,-0.003 -0.0274,-1.42969 c -0.0151,-0.78633 -0.0486,-2.27271 -0.0744,-3.30307 -0.0259,-1.03036 -0.008,-2.02868 0.0407,-2.21848 0.082,-0.32264 0.70218,-0.3451 9.52833,-0.3451 5.19233,0 9.48324,0.069 9.53535,0.15332 0.0521,0.0843 0.15827,1.6245 0.23589,3.42261 0.11596,2.68608 0.0923,3.30073 -0.13241,3.44555 -0.15046,0.0969 -1.50182,0.17626 -3.00302,0.17626 l -2.72947,0 -0.06,7.39493 c -0.12729,15.6756 -0.33195,31.85826 -0.40589,32.09403 -0.0452,0.14421 -0.3458,0.22834 -0.72438,0.20274 -0.3559,-0.0241 -2.00036,-0.0708 -3.65436,-0.10374 z"
         id="path4116" />
      <path
         style="fill:#000000"
         d="m 102.93691,55.592386 c 0,-0.11487 -0.0887,-0.15399 -0.1972,-0.087 -0.10846,0.067 -0.1972,0.16101 -0.1972,0.20883 0,0.0478 0.0887,0.087 0.1972,0.087 0.10846,0 0.1972,-0.094 0.1972,-0.20884 z"
         id="path4114" />
      <path
         style="fill:#000000"
         d="M 145.21875 37.65625 C 142.21541 37.65247 139.70495 37.7312 139.65625 37.8125 C 139.48936 38.09112 139.45906 65.34829 139.625 65.71875 C 139.72334 65.93823 139.69767 66.34492 139.5625 66.71875 C 139.26158 67.55083 139.28131 67.8125 139.625 67.8125 C 140.12006 67.8125 140.17029 68.19102 139.75 68.78125 C 139.35634 69.33408 139.34375 69.61771 139.34375 76.78125 C 139.34375 83.2369 139.36071 84.19585 139.625 84.34375 C 140.13701 84.63036 146.44065 84.63064 146.53125 84.34375 C 146.5737 84.20924 146.6361 79.72755 146.6875 74.375 C 146.74711 68.17185 146.87225 64.56527 147 64.4375 C 147.37054 64.06697 149.26815 64.13823 150.0625 64.5625 C 151.75498 65.46648 151.91365 66.48996 151.96875 76.5 C 151.98961 80.28954 152.04155 83.63313 152.09375 83.90625 L 152.1875 84.40625 L 155.09375 84.375 C 156.68088 84.37335 158.07382 84.31065 158.21875 84.21875 C 158.37412 84.12025 158.53695 83.524 158.59375 82.78125 C 158.64676 82.08845 158.75655 81.21208 158.84375 80.8125 C 159.0776 79.74132 159.07491 71.67618 158.84375 68.8125 C 158.72953 67.39745 158.49443 65.86169 158.28125 65.25 C 157.78996 63.84039 156.74225 62.65363 155.40625 62 C 154.25682 61.43763 153.96712 60.9375 154.8125 60.9375 C 155.67024 60.9375 157.33142 59.55027 157.9375 58.3125 C 158.23359 57.70779 158.46675 57.07992 158.46875 56.9375 C 158.47033 56.7951 158.60445 56.30056 158.78125 55.8125 C 159.27524 54.44877 159.27879 45.54604 158.78125 43.875 C 158.3272 42.34999 157.70504 41.31517 156.5625 40.15625 C 154.4798 38.04373 152.85085 37.66625 145.21875 37.65625 z M 147.625 46.125 C 148.19412 46.02331 149.63723 46.170439 150.09375 46.40625 C 151.28568 47.021967 151.70223 48.885834 151.40625 52.34375 C 151.18684 54.906989 150.87216 55.833715 150.09375 56.34375 C 149.53232 56.711608 147.72387 56.890284 147.4375 56.59375 C 147.28083 56.431499 147.21875 55.134004 147.21875 51.34375 C 147.21875 47.508626 147.27898 46.28736 147.4375 46.1875 C 147.47724 46.162468 147.5437 46.139527 147.625 46.125 z "
         transform="translate(-23.580008,-22.280961)"
         id="path4112" />
      <path
         style="fill:#000000"
         d="M 96.1875 37.25 L 96.09375 38 C 96.03093 38.41388 95.82853 40.32899 95.65625 42.28125 C 95.48398 44.23351 95.22309 46.84647 95.0625 48.09375 C 94.90191 49.34103 94.62976 51.67734 94.46875 53.25 C 94.11856 56.67044 93.42053 61.91754 92.59375 67.4375 C 92.26072 69.66091 91.9107 72.04502 91.8125 72.75 C 91.71433 73.45498 91.50625 74.91541 91.34375 76 C 91.18124 77.08459 90.9902 78.34741 90.9375 78.78125 C 90.88481 79.21509 90.75649 80.43836 90.625 81.5 C 90.4935 82.56164 90.42265 83.4539 90.46875 83.5 C 90.65942 83.69068 97.48019 83.84 97.59375 83.65625 C 97.65891 83.55082 97.80894 82.45809 97.9375 81.21875 C 98.06607 79.97942 98.28534 78.8922 98.40625 78.8125 C 98.67617 78.63459 100.5987 78.61348 101.4375 78.78125 C 102.13646 78.92105 102.24521 79.25052 102.59375 81.90625 C 102.70541 82.75712 102.89631 83.52131 103 83.625 C 103.10369 83.72869 104.5486 83.88205 106.21875 83.96875 C 107.8889 84.05544 109.41035 84.14005 109.59375 84.15625 C 109.77715 84.17248 109.9966 84.10656 110.0625 84 C 110.12835 83.89343 110.01377 82.666 109.84375 81.28125 C 109.67374 79.8965 109.3699 77.36034 109.15625 75.625 C 108.66366 71.6241 107.85705 64.39673 107.6875 62.59375 C 107.61611 61.83453 107.36423 59.7188 107.15625 57.875 C 106.94827 56.03119 106.66185 53.26843 106.5 51.75 C 106.15701 48.532 105.74131 45.0636 105.34375 42.28125 C 105.18877 41.19666 104.97545 39.73517 104.90625 39.03125 C 104.83701 38.32733 104.7231 37.64943 104.625 37.53125 C 104.50914 37.39165 102.98781 37.31155 100.3125 37.28125 L 96.1875 37.25 z M 100.09375 64.8125 C 100.43953 64.45749 101.45615 70.09 101.53125 72.75 C 101.57725 74.37868 101.62839 74.32404 100.15625 74.1875 C 99.56851 74.13299 99.30035 74.00726 99.21875 73.75 C 98.99386 73.04145 99.76722 65.14776 100.09375 64.8125 z "
         transform="translate(-23.580008,-22.280961)"
         id="path4108" />
      <path
         style="fill:#000000"
         d="m 87.60687,61.566766 c -0.0602,-0.15697 -0.0514,-4.15842 0.0196,-8.89212 0.071,-4.73369 0.18368,-15.12906 0.25032,-23.1008 0.0666,-7.97174 0.15524,-14.5316 0.19689,-14.57745 0.0417,-0.0459 1.27176,-0.12394 2.73358,-0.17352 2.65043,-0.0899 2.65839,-0.0888 2.85559,0.37917 0.19375,0.45981 0.1469,23.69545 -0.0652,32.31685 -0.052,2.11495 -0.10173,6.22105 -0.11046,9.12466 l -0.0159,5.27929 -2.8775,-0.0353 c -2.30576,-0.0283 -2.89926,-0.0921 -2.98702,-0.32073 z"
         id="path4104" />
      <path
         style="fill:#000000"
         d="M 78 37.21875 C 75.3391 37.26324 70.31863 37.58643 70.1875 37.71875 C 70.16247 37.74405 70.13015 47.42796 70.09375 59.25 C 70.03648 77.86203 70.06704 80.7409 70.3125 80.6875 C 71.68817 80.38845 71.67147 80.38571 71.90625 80.96875 C 72.03163 81.28013 72.18485 81.73997 72.21875 82 C 72.25266 82.26002 72.35459 82.57335 72.46875 82.6875 C 72.5829 82.80166 72.6875 83.03255 72.6875 83.21875 C 72.6875 83.40492 72.80193 83.60165 72.9375 83.65625 C 73.07308 83.71105 74.03213 83.7685 75.0625 83.75 L 76.90625 83.6875 L 76.96875 74.15625 C 77.00168 68.01812 77.08911 64.5312 77.21875 64.375 C 77.78513 63.69256 80.22601 64.06721 81.21875 65 C 82.34922 66.06193 82.34375 66.08281 82.34375 75.21875 C 82.34375 79.83173 82.4187 83.621 82.5 83.625 C 87.67381 83.85101 88.80262 83.83256 88.90625 83.5625 C 88.96645 83.40561 89.0302 81.30878 89.0625 78.90625 C 89.10447 75.78661 89.06952 74.47576 88.90625 74.3125 C 88.73523 74.14127 88.73893 73.96591 88.90625 73.65625 C 89.19909 73.11429 89.31743 69.88258 89.0625 69.40625 C 88.95341 69.20241 88.8313 68.65374 88.8125 68.15625 C 88.79368 67.65874 88.7083 67.25 88.625 67.25 C 88.5417 67.25 88.56505 66.97411 88.65625 66.65625 C 89.09524 65.12556 88.00578 63.32176 86.03125 62.3125 C 85.28858 61.93289 84.67195 61.51386 84.65625 61.40625 C 84.64049 61.29863 85.17304 60.94369 85.875 60.59375 C 87.56649 59.75049 88.38905 58.67017 88.96875 56.5 C 89.28968 55.29873 89.32949 48.08584 89.03125 45.4375 C 88.77146 43.13068 88.44605 42.19767 87.3125 40.53125 C 85.50252 37.87039 83.41592 37.12825 78 37.21875 z M 78.21875 44.75 C 79.016921 44.778956 80.140038 45.148031 81.03125 45.78125 C 82.12176 46.55604 82.33875 47.43367 82.34375 51.1875 C 82.34633 53.19222 82.25818 54.82025 82.125 55.21875 C 81.84074 56.0693 81.06222 56.92415 80.125 57.40625 C 79.28722 57.83718 78.03061 57.89639 77.53125 57.53125 C 77.22436 57.30684 77.20975 56.70661 77.15625 51.375 C 77.12363 48.12255 77.1555 45.28355 77.25 45.09375 C 77.378535 44.835473 77.739847 44.732627 78.21875 44.75 z "
         transform="translate(-23.580008,-22.280961)"
         id="path4102" />
      <path
         style="fill:#000000"
         d="M 58.84375 37.15625 C 58.102449 37.168177 57.335012 37.207415 56.53125 37.25 L 54.4375 37.375 L 54.125 41.09375 C 53.93855 43.15447 53.72495 45.11213 53.65625 45.4375 C 53.58756 45.76288 53.43795 46.87589 53.34375 47.90625 C 53.10478 50.5202 52.40662 56.68624 52.28125 57.21875 C 52.22408 57.46162 51.99591 59.18745 51.78125 61.03125 C 51.56658 62.87506 51.25294 65.3382 51.09375 66.53125 C 50.46553 71.23928 49.8237 76.57457 49.5 79.65625 C 49.17002 82.79746 49.17438 82.8953 49.53125 83.15625 C 49.81636 83.36447 50.68009 83.4166 53.4375 83.375 L 57 83.3125 L 57.1875 81.1875 C 57.35077 79.42003 57.4712 79.01644 57.78125 78.84375 C 58.23395 78.5916 61.03852 78.73963 61.21875 79.03125 C 61.28688 79.1415 61.48396 80.1247 61.625 81.1875 C 61.76603 82.25032 61.9213 83.1682 62 83.25 C 62.1412 83.39683 64.01504 82.94405 64.59375 82.625 C 64.75782 82.53454 65.75274 82.2334 66.78125 81.9375 C 67.80976 81.64162 68.6875 81.3198 68.75 81.21875 C 68.86277 81.03631 68.77554 80.32789 68.21875 76.25 C 68.05923 75.08172 67.58599 71.31623 67.15625 67.875 C 66.7265 64.43377 66.19227 60.16458 65.96875 58.375 C 65.74522 56.58543 65.47624 54.39893 65.375 53.53125 C 65.27376 52.66358 65.04638 50.74545 64.875 49.28125 C 64.70363 47.81705 64.35413 45.12506 64.09375 43.28125 C 63.83336 41.43745 63.5717 39.40165 63.5 38.78125 C 63.42833 38.16086 63.25004 37.56722 63.09375 37.4375 C 62.851613 37.236575 61.067654 37.120469 58.84375 37.15625 z M 59.34375 62.71875 C 59.503651 62.63983 59.69414 62.750293 59.84375 63.03125 C 60.05967 63.43675 60.37893 67.15592 60.5625 71.125 L 60.71875 73.9375 L 59.40625 73.9375 C 58.28678 73.9375 58.10776 73.90204 58 73.5625 C 57.9314 73.34657 57.91105 73.0933 57.96875 73 C 58.02642 72.9067 58.16525 71.56992 58.28125 70.0625 C 58.50727 67.12521 59.01034 63.16165 59.1875 62.875 C 59.23035 62.805665 59.29045 62.745057 59.34375 62.71875 z "
         transform="translate(-23.580008,-22.280961)"
         id="path4098" />
      <path
         style="fill:#000000"
         d="M 37.21875 37.125 C 33.82855 37.10739 31.0414 37.14915 31 37.21875 C 30.95859 37.28838 30.84895 39.87767 30.78125 42.96875 C 30.62676 50.02122 30.49561 54.62447 30.375 56.78125 C 30.32345 57.70315 30.22305 60.04774 30.15625 62 C 30.08951 63.95227 30.0316 65.60205 30 65.65625 C 29.96841 65.71048 29.8804 67.97602 29.8125 70.6875 C 29.74461 73.39898 29.624 77.21605 29.5625 79.15625 C 29.49099 81.41322 29.53035 82.70415 29.65625 82.78125 C 29.76449 82.84755 31.39132 82.93195 33.28125 82.96875 L 36.71875 83.0625 L 36.875 76.65625 C 36.95009 73.14878 37.04505 69.62595 37.09375 68.8125 C 37.34525 64.61323 37.43735 63.56711 37.59375 63.375 C 37.69442 63.25131 38.79736 63.1523 40.25 63.125 C 42.50584 63.08264 43.66527 62.9607 45.40625 62.59375 C 46.25189 62.41553 48.23765 60.47652 48.875 59.21875 C 50.18922 56.62526 50.62875 53.82822 50.53125 48.5 C 50.43901 43.46093 49.86378 41.65941 47.59375 39.375 C 46.53572 38.31027 46.14994 38.07248 44.875 37.65625 C 43.44455 37.18929 43.18045 37.1559 37.21875 37.125 z M 38.9375 44.1875 C 39.61337 44.118462 40.676853 44.237007 41.125 44.46875 C 41.43939 44.63134 41.94613 45.07057 42.25 45.46875 C 42.80132 46.19124 42.79375 46.19658 42.84375 49.65625 C 42.91614 54.66252 42.63486 55.90917 41.125 56.625 C 40.23824 57.04538 38.78088 57.20892 38.1875 56.96875 L 37.71875 56.78125 L 37.84375 51.21875 C 37.97449 45.40887 38.04986 44.55898 38.4375 44.3125 C 38.538498 44.248283 38.71221 44.210513 38.9375 44.1875 z "
         transform="translate(-23.580008,-22.280961)"
         id="path4094" />
      <path
         style="fill:#000000"
         d="m 11.486613,18.481436 c 0.0995,-0.29708 -0.19111,-1.66632 -0.44636,-2.1028 -0.21251,-0.36338 -0.26918,1.16485 -0.0707,1.90561 0.13033,0.48633 0.38731,0.58433 0.51703,0.19719 z"
         id="path4090" />
      <path
         style="fill:#000000"
         d="m 436.10347,12.598366 c -1.08459,-0.0699 -3.87988,-0.14258 -6.21175,-0.16157 -2.33187,-0.0189 -4.99405,-0.0653 -5.91595,-0.10297 -0.9219,-0.0376 -4.11652,-0.13311 -7.09914,-0.21219 -2.98262,-0.0791 -5.45993,-0.17793 -5.50513,-0.2197 -0.0452,-0.0418 7.25363,-0.0759 16.21957,-0.0759 16.17026,0 16.30173,0.003 16.30173,0.3944 0,0.36608 -0.13804,0.39581 -1.92268,0.41411 -1.05748,0.0109 -2.36638,0.0357 -2.90868,0.0553 -0.54229,0.0195 -1.87338,-0.0216 -2.95797,-0.0914 z"
         id="path4088" />
      <path
         style="fill:#000000"
         d="m 410.02168,11.887696 c 0.18854,-0.0494 0.5435,-0.0511 0.78879,-0.004 0.24532,0.0472 0.091,0.0876 -0.34279,0.0897 -0.43383,0.002 -0.63452,-0.0364 -0.446,-0.0858 z"
         id="path3066" />
    </g>
  </g>
</svg>
