<?xml version="1.0" encoding="UTF-8" standalone="no"?>
<!-- Created with Inkscape (http://www.inkscape.org/) -->

<svg
   xmlns:dc="http://purl.org/dc/elements/1.1/"
   xmlns:cc="http://creativecommons.org/ns#"
   xmlns:rdf="http://www.w3.org/1999/02/22-rdf-syntax-ns#"
   xmlns:svg="http://www.w3.org/2000/svg"
   xmlns="http://www.w3.org/2000/svg"
   xmlns:sodipodi="http://sodipodi.sourceforge.net/DTD/sodipodi-0.dtd"
   xmlns:inkscape="http://www.inkscape.org/namespaces/inkscape"
   width="744.09448819"
   height="1052.3622047"
   id="svg2"
   version="1.1"
   inkscape:version="0.48.3.1 r9886"
   sodipodi:docname="New document 1">
  <defs
     id="defs4" />
  <sodipodi:namedview
     id="base"
     pagecolor="#ffffff"
     bordercolor="#666666"
     borderopacity="1.0"
     inkscape:pageopacity="0.0"
     inkscape:pageshadow="2"
     inkscape:zoom="0.98994949"
     inkscape:cx="397.39461"
     inkscape:cy="692.2955"
     inkscape:document-units="px"
     inkscape:current-layer="layer1"
     showgrid="false"
     inkscape:window-width="1453"
     inkscape:window-height="789"
     inkscape:window-x="6"
     inkscape:window-y="66"
     inkscape:window-maximized="0" />
  <metadata
     id="metadata7">
    <rdf:RDF>
      <cc:Work
         rdf:about="">
        <dc:format>image/svg+xml</dc:format>
        <dc:type
           rdf:resource="http://purl.org/dc/dcmitype/StillImage" />
        <dc:title></dc:title>
      </cc:Work>
    </rdf:RDF>
  </metadata>
  <g
     inkscape:label="Layer 1"
     inkscape:groupmode="layer"
     id="layer1">
    <path
       style="fill:#000000"
       d="m 454.73331,99.475166 -3.45097,-0.0986 0.0699,-5.81735 c 0.0384,-3.19954 0.13717,-10.5649 0.2194,-16.36746 0.0822,-5.80256 0.13954,-12.01431 0.12733,-13.80388 l -0.0222,-3.25378 -2.76078,-0.0986 -2.76077,-0.0986 0.0206,-2.46498 c 0.0112,-1.35574 0.0335,-3.05652 0.0493,-3.77949 l 0.0287,-1.31452 9.55429,0.0327 c 6.50268,0.0223 9.62192,0.10035 9.76601,0.24446 0.13927,0.13928 0.19324,1.42151 0.15772,3.74677 l -0.054,3.53502 -2.81086,0.0258 c -1.78378,0.0164 -2.91023,0.10826 -3.0828,0.25149 -0.21053,0.17473 -0.27405,0.97029 -0.28137,3.52375 -0.005,1.81395 -0.10201,6.35959 -0.21514,10.10143 -0.11315,3.74184 -0.25281,8.84434 -0.31037,11.3389 -0.29852,12.93728 -0.35882,14.23285 -0.66785,14.34861 -0.0688,0.0258 -1.67808,0.003 -3.57611,-0.0517 z m -18.35464,-1.23249 c -0.62496,-2.30115 -3.83218,-17.03141 -4.92691,-22.62851 -0.59222,-3.02792 -0.81738,-3.77177 -1.06633,-3.52283 -0.0545,0.0545 -0.14734,1.69025 -0.20638,3.63504 -0.059,1.94477 -0.19334,6.33125 -0.29844,9.74771 -0.10513,3.41646 -0.19121,7.69087 -0.19131,9.49869 -9e-5,1.80781 -0.054,3.4273 -0.11987,3.59887 -0.10276,0.26781 -0.60244,0.31192 -3.53315,0.31192 -2.07667,0 -3.43917,-0.0764 -3.47917,-0.1952 -0.0893,-0.26523 0.27817,-15.63623 0.53043,-22.1868 0.0543,-1.40997 0.18996,-6.06878 0.30146,-10.35292 0.34164,-13.12741 0.30761,-12.54885 0.7836,-13.31901 0.23185,-0.37515 0.52522,-0.6898 0.65196,-0.69926 1.16521,-0.087 8.74586,0.0802 8.86434,0.1955 0.0849,0.0826 0.49812,1.78455 0.91822,3.78203 0.42009,1.9975 1.04333,4.96289 1.38498,6.58977 0.79918,3.80563 0.97747,4.47006 1.16794,4.35235 0.12018,-0.0743 0.50152,-10.84567 0.45429,-12.83187 -0.005,-0.21692 0.0353,-0.77892 0.0898,-1.24888 l 0.0992,-0.85448 3.308,0.0657 c 2.52702,0.0502 3.38936,0.13328 3.65252,0.35201 0.31053,0.25808 0.33236,0.57908 0.22136,3.25378 -0.15165,3.65359 -0.25297,7.27202 -0.40061,14.30634 -0.1194,5.68968 -0.25227,10.72015 -0.40106,15.18427 -0.0488,1.4642 -0.14275,5.04784 -0.20877,7.96368 -0.066,2.91581 -0.16656,5.42269 -0.22341,5.57085 -0.082,0.21376 -0.83011,0.26935 -3.62423,0.26935 l -3.52088,0 -0.2276,-0.83809 z m 2.97318,-23.23174 c 0,-0.21053 -0.0784,-0.38276 -0.17421,-0.38276 -0.2026,0 -0.42451,0.71595 -0.26985,0.87061 0.18699,0.18699 0.44406,-0.0955 0.44406,-0.48785 z m -26.22738,23.46992 c -1.68112,-0.0799 -4.60301,-0.20387 -6.49309,-0.27555 -1.89009,-0.0717 -3.52149,-0.18284 -3.62534,-0.24703 -0.18866,-0.11658 -0.15957,-1.45207 0.2484,-11.3996 0.10674,-2.60302 0.28828,-7.74989 0.40342,-11.4375 0.45754,-14.65509 0.77369,-22.78668 0.91155,-23.4458 l 0.11939,-0.57079 5.45032,0.12857 c 5.50665,0.12992 10.72406,0.33076 11.26768,0.43378 0.16269,0.0308 0.40672,0.0628 0.54229,0.0711 0.18626,0.0114 0.24585,0.77424 0.2438,3.12096 -0.002,1.70823 -0.0591,3.3168 -0.12814,3.57459 l -0.12544,0.4687 -5.19621,-0.14391 -5.19622,-0.14394 -0.0136,0.75981 c -0.007,0.4179 -0.0432,1.42535 -0.0795,2.23879 -0.0362,0.81345 -0.12642,3.35291 -0.20041,5.64327 l -0.13453,4.16425 0.5337,0.10203 c 0.29351,0.0561 1.52122,0.12359 2.72824,0.14993 1.20703,0.0264 2.46079,0.0738 2.78617,0.10537 0.32538,0.0316 0.67061,0.0646 0.76718,0.0735 0.17466,0.016 -0.002,5.22325 -0.20627,6.06669 -0.10224,0.42301 -0.16132,0.42989 -3.38905,0.3944 l -3.28497,-0.0361 -0.13336,1.18319 c -0.0733,0.65075 -0.19615,3.50425 -0.2729,6.34113 l -0.13954,5.15792 1.25889,0.10676 c 0.69239,0.0587 3.02353,0.19444 5.1803,0.30162 2.15678,0.10717 3.99463,0.26809 4.08412,0.35758 0.15206,0.15206 -0.13201,6.17526 -0.3167,6.71533 -0.0946,0.27645 -2.37468,0.28876 -7.59022,0.041 z m 3.54957,-1.28511 c 0,-0.0478 -0.0887,-0.087 -0.1972,-0.087 -0.10846,0 -0.1972,0.094 -0.1972,0.20883 0,0.11487 0.0887,0.154 0.1972,0.087 0.10846,-0.067 0.1972,-0.16101 0.1972,-0.20884 z m -16.19399,1.00678 c -0.0492,-0.0492 -1.24923,-0.10266 -2.66673,-0.11877 -1.4175,-0.0162 -2.69328,-0.10099 -2.83504,-0.18862 -0.21156,-0.13074 -0.21641,-1.65643 -0.027,-8.50866 0.1269,-4.59215 0.28049,-10.34599 0.34135,-12.78632 0.0608,-2.44032 0.15222,-5.31962 0.20307,-6.39843 0.10054,-2.13309 -0.0334,-3.23163 -0.3548,-2.91021 -0.25178,0.25178 -1.21986,6.03166 -2.2362,13.35121 -0.18072,1.30151 -0.49373,3.38688 -0.69556,4.63416 -0.20185,1.24728 -0.68667,4.48626 -1.07738,7.19774 -0.39071,2.71148 -0.79362,5.01446 -0.89536,5.11773 -0.21668,0.21995 -5.53009,0.15172 -5.76394,-0.074 -0.0863,-0.0833 -0.2343,-0.89725 -0.32889,-1.80878 -0.90386,-8.70879 -1.37171,-13.40799 -2.17739,-21.87016 -0.66185,-6.95176 -0.75,-7.6441 -0.99226,-7.79383 -0.3803,-0.23504 -0.53664,0.77118 -0.65943,4.24426 -0.0709,2.00649 -0.21114,5.82228 -0.31157,8.47953 -0.10042,2.65724 -0.23857,7.84849 -0.30698,11.5361 -0.0684,3.68761 -0.16391,6.82744 -0.21221,6.97739 -0.0704,0.21861 -0.46809,0.24862 -2.00667,0.15147 -1.05536,-0.0666 -2.66365,-0.12278 -3.57398,-0.12473 l -1.65515,-0.004 0.13049,-4.58486 c 0.0718,-2.52168 0.21576,-7.06956 0.31999,-10.10642 0.10424,-3.03685 0.23104,-6.89701 0.28178,-8.57812 0.0507,-1.68112 0.18117,-4.87573 0.28984,-7.09914 0.10866,-2.22341 0.24575,-5.4624 0.30464,-7.19774 0.17647,-5.20085 0.32596,-8.25468 0.42847,-8.75229 l 0.0968,-0.46997 5.3633,0.13299 c 2.94981,0.0731 5.73198,0.18251 6.1826,0.24303 l 0.8193,0.11006 0.12782,1.60732 c 0.4229,5.31793 1.13135,11.76347 1.30477,11.87065 0.0768,0.0475 0.28043,-0.46758 0.45247,-1.14454 0.34768,-1.3681 1.74404,-8.51116 2.10333,-10.75961 0.15175,-0.94955 0.33339,-1.48303 0.53074,-1.55876 0.39284,-0.15076 11.94176,0.33323 12.12577,0.50814 0.0777,0.0738 0.15766,0.39905 0.17769,0.72266 0.0445,0.71799 -0.22391,7.88746 -0.321,8.57491 -0.0383,0.27115 -0.12324,2.75584 -0.18877,5.52155 -0.0655,2.76571 -0.20093,6.62586 -0.30085,8.57813 -0.0999,1.95226 -0.23261,5.59057 -0.29487,8.08513 -0.17925,7.1819 -0.48901,13.12797 -0.70492,13.53141 -0.13406,0.25046 -0.13248,0.4946 0.005,0.75119 0.27994,0.52305 0.054,1.00027 -0.47358,1.00027 -0.24147,0 -0.47929,-0.0403 -0.52849,-0.0894 z m -3.69003,-25.1978 c -0.17549,-0.17549 -0.22704,-0.0685 -0.21686,0.45012 0.0124,0.63892 0.0265,0.65293 0.23021,0.23021 0.16034,-0.33283 0.15685,-0.51013 -0.0134,-0.68033 z m -1.49145,-6.99987 c -0.0655,-0.0655 -0.11215,0.051 -0.10359,0.25882 0.01,0.22974 0.0562,0.27645 0.11915,0.11915 0.057,-0.14236 0.05,-0.31244 -0.0156,-0.37797 z m -14.49244,-0.89889 c -0.16105,-0.16105 -0.21939,-0.13899 -0.21939,0.083 0,0.16632 0.0647,0.36708 0.1438,0.44616 0.0791,0.0791 0.1778,0.0418 0.21939,-0.083 0.0416,-0.12473 -0.0231,-0.3255 -0.1438,-0.44616 z m -16.19245,32.19333 c -2.22341,-0.0829 -5.50676,-0.21289 -7.29634,-0.28877 -1.78957,-0.0759 -3.52969,-0.12726 -3.86694,-0.11416 -1.12156,0.0436 -1.13765,-0.0582 -0.89455,-5.65644 0.12122,-2.7916 0.27265,-7.24976 0.33648,-9.90701 0.0638,-2.65724 0.14331,-5.40816 0.17661,-6.11314 0.0333,-0.70499 0.11826,-3.14532 0.18882,-5.42296 0.0706,-2.27764 0.16746,-4.93982 0.21532,-5.91595 0.10556,-2.15297 0.26517,-6.23624 0.40463,-10.35117 0.0569,-1.68017 0.19176,-3.14309 0.2996,-3.25094 0.10783,-0.10782 0.70315,-0.19157 1.32295,-0.18611 2.77304,0.0245 13.15654,0.33492 15.02937,0.44939 l 2.07058,0.12655 -0.0612,3.15517 c -0.0336,1.73534 -0.10824,3.40378 -0.1658,3.70764 l -0.10464,0.55247 -1.31318,-0.11587 c -2.60008,-0.22946 -9.40123,-0.46935 -9.53339,-0.33628 -0.22337,0.22488 -0.32812,1.84798 -0.46997,7.28105 -0.1124,4.30559 -0.0895,5.18766 0.13641,5.26001 0.14929,0.0478 1.78001,0.16026 3.62381,0.24987 l 3.35237,0.16297 -0.0654,2.50485 c -0.036,1.37768 -0.0957,2.6644 -0.13281,2.85937 -0.0371,0.19499 -0.0742,0.55727 -0.0825,0.80505 l -0.015,0.45052 -3.62602,-0.13503 -3.62603,-0.135 -0.11952,3.03686 c -0.31737,8.06245 -0.32266,9.41415 -0.038,9.69884 0.21236,0.21236 1.37283,0.3067 5.07494,0.41258 2.63977,0.0755 4.97707,0.16452 5.19398,0.19785 0.35348,0.0543 0.39967,0.23259 0.44522,1.71844 0.0279,0.91183 -0.0164,2.50089 -0.0986,3.53125 l -0.14942,1.87339 -1.08459,0.0227 c -0.59652,0.0124 -2.90374,-0.0451 -5.12716,-0.12802 z m -17.0866,-0.54018 c -2.40543,-0.0383 -3.44029,-0.12491 -3.58562,-0.30002 -0.11234,-0.1354 -0.38065,-1.08729 -0.59619,-2.11533 -0.21556,-1.02803 -0.57949,-2.75653 -0.80875,-3.84112 -0.22926,-1.08459 -0.50444,-2.5863 -0.61147,-3.33713 -0.10704,-0.75083 -0.26918,-1.46075 -0.36033,-1.57759 -0.0911,-0.11684 -0.21758,-0.52303 -0.28096,-0.90263 -0.0634,-0.37961 -0.65648,-3.30801 -1.31798,-6.50755 -0.66152,-3.19954 -1.30969,-6.3868 -1.44041,-7.08279 -0.13073,-0.69599 -0.33885,-1.29912 -0.46249,-1.3403 -0.31659,-0.1054 -0.4368,1.98135 -0.66133,11.47967 -0.10512,4.44682 -0.24795,9.70462 -0.31739,11.684 l -0.12626,3.59887 -1.60287,-0.0209 c -0.8816,-0.0114 -2.39551,-0.078 -3.36426,-0.1479 -1.74718,-0.12599 -1.76276,-0.13178 -1.93134,-0.71861 -0.14867,-0.51747 0.0708,-12.76774 0.3374,-18.83244 0.0501,-1.13882 0.14719,-4.20032 0.21583,-6.80334 0.0686,-2.60302 0.15504,-4.7832 0.19198,-4.84487 0.0369,-0.0616 0.0918,-2.72382 0.122,-5.91595 0.0302,-3.1921 0.0855,-6.67571 0.12298,-7.74133 l 0.0681,-1.93749 4.17658,0.0523 c 2.29712,0.0288 4.54392,0.0882 4.9929,0.13205 l 0.81631,0.0798 0.42287,2.00265 c 0.84334,3.99408 2.91976,12.76238 3.05405,12.89667 0.3608,0.36082 0.45677,-0.87623 0.57994,-7.47549 0.073,-3.91176 0.18501,-7.19685 0.24889,-7.30018 0.14066,-0.22761 6.32411,-0.16707 6.95993,0.0682 0.44072,0.16302 0.44084,0.16452 0.32548,3.86167 -0.13291,4.25925 -0.30708,7.96165 -0.40402,8.58917 -0.0369,0.23857 -0.12161,3.36218 -0.18834,6.94133 -0.0667,3.57915 -0.16056,7.30619 -0.20852,8.28233 -0.048,0.97613 -0.14315,3.77141 -0.21154,6.21174 -0.27759,9.90437 -0.40177,12.62144 -0.58339,12.76546 -0.10475,0.0831 -1.71207,0.1268 -3.57179,0.0972 z m -13.28194,-24.39872 c 0,-0.16269 -0.0887,-0.2958 -0.1972,-0.2958 -0.10846,0 -0.1972,0.13311 -0.1972,0.2958 0,0.16269 0.0887,0.2958 0.1972,0.2958 0.10846,0 0.1972,-0.13311 0.1972,-0.2958 z m -18.33152,23.80568 c -2.86924,-0.0598 -2.95774,-0.0945 -2.96288,-1.16433 -0.002,-0.34544 -0.0889,-0.85383 -0.19377,-1.12977 -0.19034,-0.50063 -0.19464,-0.50144 -2.02128,-0.38093 -1.0068,0.0664 -1.87491,0.15993 -1.92914,0.20779 -0.0542,0.0479 -0.18733,0.58372 -0.29579,1.1908 l -0.1972,1.10376 -1.47898,-0.0549 c -0.81345,-0.0302 -2.41075,-0.0676 -3.54957,-0.0832 l -2.07059,-0.0283 0.0532,-1.28179 c 0.0293,-0.70498 0.276,-2.92346 0.54831,-4.92996 0.27233,-2.00649 0.53529,-3.95875 0.5844,-4.33836 0.0491,-0.37961 0.30652,-2.11002 0.57207,-3.84537 0.26554,-1.73534 0.58652,-4.08693 0.71328,-5.22575 0.12676,-1.13882 0.40412,-3.22419 0.61637,-4.63416 0.21224,-1.40997 0.4278,-2.96291 0.47905,-3.45097 0.36663,-3.49223 2.57356,-18.85301 2.7496,-19.13784 0.11252,-0.18208 6.29119,-0.0843 6.92487,0.10958 0.12433,0.038 0.28625,0.54135 0.3598,1.11849 0.0736,0.57712 0.38874,2.77973 0.70039,4.89468 0.31167,2.11495 0.70589,4.91024 0.87608,6.21174 0.17018,1.30151 0.4362,3.29815 0.59116,4.43697 0.15494,1.13882 0.38022,3.09108 0.50062,4.33836 0.23944,2.48054 1.26213,11.39055 2.16159,18.83244 0.31461,2.60302 0.60024,5.30956 0.63473,6.01455 l 0.0627,1.28179 -0.8874,0 c -0.48806,0 -2.0818,-0.0249 -3.54164,-0.0553 z m -11.76926,-3.09986 c 0,-0.10845 -0.14899,-0.22589 -0.33108,-0.26095 -0.20173,-0.0388 -0.33108,0.0631 -0.33108,0.26095 0,0.19787 0.12935,0.29981 0.33108,0.26096 0.18209,-0.0351 0.33108,-0.1525 0.33108,-0.26096 z m 8.03014,-3.20816 c 0.18241,-0.2079 -1.12919,-10.30923 -1.36981,-10.54985 -0.23378,-0.23378 -0.30002,0.0189 -0.60834,2.32051 -0.35322,2.63668 -0.99461,7.87299 -0.99503,8.12309 0,0.4013 2.63179,0.49537 2.97318,0.10625 z m 9.31457,5.94421 c -0.0677,-0.17629 -0.063,-2.19511 0.0102,-4.48626 0.0733,-2.29115 0.26202,-9.66757 0.4193,-16.39203 0.51919,-22.19676 0.61929,-25.10084 0.87965,-25.52212 0.11445,-0.18519 1.00419,-0.22942 3.61411,-0.17967 1.90425,0.0363 3.53107,0.13499 3.61518,0.21931 0.13163,0.13196 -0.18227,16.39102 -0.42153,21.83431 -0.25689,5.84441 -0.50412,14.0051 -0.57172,18.87115 -0.0425,3.05815 -0.13502,5.65377 -0.20564,5.76805 -0.0823,0.13311 -1.40216,0.20779 -3.67254,0.20779 -3.08996,0 -3.55989,-0.0411 -3.66712,-0.32053 z m -54.98155,-0.004 c -2.96801,-0.43995 -5.61225,-2.04003 -6.58861,-3.98691 -1.11717,-2.22767 -1.21226,-3.07014 -1.18623,-10.50992 0.0271,-7.74351 0.29467,-21.10155 0.47535,-23.73146 0.15933,-2.31947 0.42827,-3.50238 1.10293,-4.85128 1.10947,-2.21828 2.73001,-3.49433 5.13123,-4.04047 1.75657,-0.39953 6.41727,-0.28683 8.41144,0.20337 1.87498,0.46091 3.549,1.71266 4.59863,3.43862 0.58642,0.9643 0.99027,2.97446 1.10423,5.49626 0.0965,2.13595 0.0723,2.41568 -0.20886,2.41568 -0.17491,0 -0.31802,0.0982 -0.31802,0.21829 0,0.12006 0.13311,0.16723 0.2958,0.1048 0.25456,-0.0977 0.2958,0.28595 0.2958,2.75263 0,1.71038 -0.0876,3.02989 -0.2173,3.27217 -0.21092,0.39412 -0.31879,0.4022 -3.67794,0.27608 -1.90336,-0.0715 -3.536,-0.17654 -3.62808,-0.23343 -0.0921,-0.0569 -0.16742,-1.85421 -0.16742,-3.99401 0,-3.6459 -0.0279,-3.94515 -0.44369,-4.75889 -0.5517,-1.07968 -1.18935,-1.54284 -2.25995,-1.64154 -1.45271,-0.13392 -2.5148,0.92823 -2.71274,2.71294 -0.10821,0.97562 -0.31183,17.91028 -0.28381,23.60422 0.008,1.58908 0.0885,3.21848 0.17921,3.6209 0.20392,0.90411 1.04866,1.81527 1.90119,2.05066 0.80424,0.22207 1.97968,-0.0304 2.3633,-0.50753 0.78061,-0.97096 0.8621,-1.52548 0.8621,-5.86749 l 0,-4.23586 3.6684,0.0601 c 2.86805,0.047 3.70746,0.12008 3.84746,0.33484 0.33811,0.51872 -0.002,9.88197 -0.4356,11.99027 -0.55162,2.68251 -1.73238,4.17055 -4.11188,5.18196 -1.43298,0.60909 -1.60144,0.63457 -4.44737,0.67286 -1.62689,0.0219 -3.22419,0 -3.54957,-0.0479 z m 27.13952,-0.22948 -1.05987,-0.0605 0.0739,-9.89805 0.0738,-9.89806 -2.31957,-0.0556 c -2.25847,-0.0541 -2.32398,-0.0437 -2.48667,0.3944 -0.0919,0.24748 -0.22508,3.20088 -0.29595,6.56311 -0.0709,3.36224 -0.18537,7.6439 -0.25439,9.51482 l -0.1255,3.40167 -3.11277,0 c -1.71202,0 -3.35226,-0.091 -3.64494,-0.20232 l -0.53216,-0.20233 0.14443,-6.35451 c 0.0794,-3.49499 0.17598,-6.62074 0.21453,-6.94612 0.0386,-0.32538 0.11978,-4.93982 0.1805,-10.25431 0.19982,-17.48544 0.30211,-22.65825 0.45089,-22.80252 0.14224,-0.1379 2.76948,-0.22431 5.73173,-0.18852 l 1.44367,0.0174 -0.12412,9.92479 c -0.10071,8.05301 -0.0755,9.96516 0.13392,10.13887 0.14192,0.11777 1.23416,0.24386 2.42721,0.28024 l 2.16919,0.0661 0.12437,-3.05657 c 0.0684,-1.68112 0.13918,-6.17728 0.15728,-9.99147 0.0264,-5.56586 0.0857,-6.97871 0.30034,-7.15682 0.18158,-0.1507 1.11222,-0.19245 2.89929,-0.13007 1.44753,0.0505 2.9782,0.0987 3.40153,0.10698 l 0.76966,0.0152 -0.13886,8.13443 c -0.0764,4.47394 -0.17813,9.95359 -0.22615,12.177 -0.048,2.22341 -0.14344,8.12457 -0.21209,13.11369 -0.0686,4.98912 -0.18012,10.0456 -0.24772,11.23663 l -0.12291,2.16552 -2.36638,0.004 c -1.30151,0.002 -2.8433,-0.0236 -3.42622,-0.0568 z m -12.25105,-31.68837 c 0,-0.16269 -0.13311,-0.29579 -0.29579,-0.29579 -0.16269,0 -0.2958,0.1331 -0.2958,0.29579 0,0.16269 0.13311,0.2958 0.2958,0.2958 0.16268,0 0.29579,-0.13311 0.29579,-0.2958 z m -51.57394,31.44249 c -0.0707,-0.11434 -0.0981,-4.21853 -0.0609,-9.12043 l 0.0675,-8.91257 -0.45657,-0.64013 c -0.68625,-0.96211 -2.04217,-1.68095 -3.12954,-1.65912 -0.49678,0.0101 -0.94951,0.0644 -1.00605,0.12092 -0.0565,0.0565 -0.17341,2.78828 -0.25973,6.07053 -0.0863,3.28225 -0.20254,7.43191 -0.25831,9.22149 -0.0558,1.78957 -0.10457,3.63921 -0.10847,4.11032 l -0.007,0.85653 -3.73054,-0.0677 c -2.05181,-0.0373 -3.79163,-0.12892 -3.86629,-0.2037 -0.24001,-0.24039 -0.20517,-2.26307 0.32386,-18.79509 0.21776,-6.80545 0.24326,-7.87539 0.48154,-20.21283 0.12045,-6.23667 0.19948,-7.6734 0.44263,-8.04727 0.2874,-0.44192 0.36231,-0.45241 2.5829,-0.36184 1.25779,0.0513 2.46439,0.0857 2.68131,0.0765 2.3138,-0.0986 6.64946,0.15477 7.16076,0.41838 0.18302,0.0944 0.6488,0.22853 1.03507,0.2981 1.81271,0.32655 5.25475,3.37432 5.70681,5.05313 0.5061,1.87958 0.8103,8.07622 0.41955,8.54705 -0.1192,0.14364 -0.18696,1.18035 -0.16367,2.50418 0.037,2.10494 0.002,2.33982 -0.51254,3.44228 -0.89903,1.92594 -2.2899,3.07803 -4.72276,3.9119 -0.53149,0.18217 -0.40923,0.70043 0.1972,0.83582 1.917,0.428 3.50581,1.50238 4.1821,2.82803 0.20485,0.40153 0.42114,1.34593 0.48065,2.0987 0.1778,2.2491 0.36788,16.96777 0.22495,17.41817 -0.12842,0.40455 -0.23942,0.41654 -3.85407,0.41654 -2.39572,0 -3.76761,-0.0741 -3.85029,-0.20784 z m -1.48359,-27.37578 c 1.1796,-0.60282 1.38114,-1.07006 1.69869,-3.93853 0.35756,-3.22959 0.29039,-5.78747 -0.17681,-6.73432 -0.56059,-1.13614 -1.212,-1.48569 -2.67712,-1.43659 -0.69578,0.0233 -1.32979,0.11207 -1.40893,0.1972 -0.0791,0.0851 -0.20727,2.83411 -0.28473,6.10885 l -0.14082,5.95405 0.66235,0.19455 c 0.77282,0.22702 1.38544,0.13615 2.32737,-0.34521 z m 8.29351,-7.12328 c 0,-0.10846 -0.0887,-0.1972 -0.19719,-0.1972 -0.10846,0 -0.1972,0.0887 -0.1972,0.1972 0,0.10846 0.0887,0.1972 0.1972,0.1972 0.10845,0 0.19719,-0.0887 0.19719,-0.1972 z m 9.56412,34.40142 c -2.07119,-0.38242 -3.15069,-0.7569 -4.02036,-1.39466 -1.24923,-0.91611 -1.94946,-1.86751 -2.48521,-3.37665 -0.9893,-2.78671 -1.02462,-3.3783 -0.96828,-16.22063 0.0288,-6.56177 0.0941,-12.0636 0.14525,-12.22629 0.0511,-0.16269 0.18371,-1.98184 0.2947,-4.04257 0.23717,-4.40399 0.50575,-5.5292 1.50103,-6.28834 0.37239,-0.28404 0.86821,-0.8489 1.10179,-1.25522 0.32496,-0.56525 0.75623,-0.89881 1.83629,-1.42017 1.34302,-0.64828 1.51219,-0.68078 3.48218,-0.66868 3.56012,0.0219 5.90828,0.45033 7.19774,1.31337 3.28783,2.20057 4.16566,5.58006 3.74752,14.42714 -0.0463,0.97892 -0.13607,6.26117 -0.19954,11.73835 -0.0635,5.47718 -0.16535,10.12554 -0.22637,10.32966 -0.088,0.2945 -0.14553,0.31521 -0.27838,0.10026 -0.13627,-0.22047 -0.21453,-0.2238 -0.42049,-0.0179 -0.20595,0.20596 -0.20006,0.28582 0.0317,0.42905 0.15662,0.0968 0.35553,0.13222 0.44206,0.0787 0.21988,-0.13589 0.1998,0.12272 -0.14409,1.85706 -0.67677,3.41299 -2.11507,5.41295 -4.57991,6.36832 -1.44988,0.56195 -4.2415,0.6783 -6.4576,0.26911 z m 6.40895,-4.03288 c 0,-0.10846 -0.0887,-0.1972 -0.1972,-0.1972 -0.10846,0 -0.1972,0.0887 -0.1972,0.1972 0,0.10846 0.0887,0.1972 0.1972,0.1972 0.10846,0 0.1972,-0.0887 0.1972,-0.1972 z m -2.99249,-3.64939 c 0.40105,-0.33745 0.65198,-0.79098 0.79106,-1.42969 0.12209,-0.56075 0.25088,-6.40388 0.32148,-14.58692 0.11627,-13.47399 0.11256,-13.66172 -0.28486,-14.44071 -0.99031,-1.94118 -3.67765,-1.78916 -4.31945,0.24435 -0.25596,0.81101 -0.39274,6.74641 -0.44306,19.22817 -0.039,9.66101 -0.0297,9.93081 0.35681,10.45152 0.84953,1.1444 2.55048,1.39789 3.57802,0.53328 z m 4.96447,-17.0797 c 0,-0.10846 -0.0887,-0.14236 -0.1972,-0.0753 -0.10846,0.067 -0.1972,0.21061 -0.1972,0.31906 0,0.10846 0.0887,0.14236 0.1972,0.0753 0.10846,-0.067 0.1972,-0.2106 0.1972,-0.31906 z m -57.26371,23.92552 -0.5692,-0.0727 0.13206,-5.06216 c 0.21849,-8.3747 0.34697,-11.95304 0.43424,-12.09425 0.0455,-0.0737 0.13041,-4.99955 0.18862,-10.9464 0.0582,-5.94685 0.1405,-11.56675 0.18288,-12.48865 0.0424,-0.9219 0.0827,-2.68618 0.0895,-3.92062 l 0.0125,-2.24445 4.68346,0.14009 c 6.53866,0.19558 8.04279,0.35523 9.40131,0.99792 1.66485,0.78759 3.5148,2.67371 4.04475,4.12383 0.92995,2.54459 1.03748,3.60224 0.90384,8.88976 -0.14097,5.57823 -0.34314,7.55802 -0.93418,9.14839 -0.98998,2.66371 -3.52076,3.7681 -8.63492,3.7681 -1.39646,0 -2.5875,0.0784 -2.6467,0.17421 -0.0592,0.0958 -0.19966,4.50026 -0.31211,9.78768 -0.11242,5.28742 -0.2543,9.69419 -0.31526,9.79283 -0.10258,0.16596 -5.37063,0.17101 -6.66079,0.006 z m 9.47729,-26.26593 c 1.14115,-0.004 1.88063,-0.66503 2.3256,-2.07973 0.27723,-0.88136 0.3482,-1.81865 0.35048,-4.62868 0.003,-3.10114 -0.0419,-3.60187 -0.371,-4.17696 -0.46121,-0.80605 -1.98678,-1.60379 -3.10657,-1.62446 l -0.81027,-0.015 -0.12555,1.77479 c -0.17517,2.47649 -0.22019,10.50694 -0.0603,10.76561 0.0725,0.11729 0.32146,0.16237 0.55326,0.10017 0.23179,-0.0622 0.79178,-0.11429 1.2444,-0.11577 z m -45.94851,25.6988 c -0.24489,-0.24488 -0.12754,-1.72806 0.55129,-6.96766 0.87998,-6.79226 1.14335,-8.90321 1.88213,-15.08567 0.65852,-5.51081 1.2761,-10.48602 2.08066,-16.76186 0.2781,-2.16918 0.58756,-4.73678 0.68771,-5.70578 0.10015,-0.96901 0.27015,-1.84989 0.37778,-1.95753 0.16879,-0.16878 9.22489,-0.24764 9.3838,-0.0817 0.0286,0.0299 0.15512,1.25225 0.2812,2.71645 0.12608,1.4642 0.44915,4.39259 0.71793,6.50755 0.26879,2.11495 0.57016,4.82149 0.66972,6.01454 0.19364,2.32044 0.53255,5.54666 1.18075,11.24031 0.89076,7.82418 1.54434,14.65885 1.71114,17.89401 0.0966,1.87408 0.0878,1.92521 -0.36205,2.09515 -0.2536,0.0958 -1.82662,0.16315 -3.4956,0.14964 -2.47821,-0.0201 -3.06339,-0.0788 -3.19201,-0.32037 -0.0866,-0.16269 -0.27403,-1.22756 -0.41646,-2.36638 l -0.25896,-2.07058 -1.52583,-0.0575 c -1.77508,-0.067 -2.31696,0.14334 -2.32569,0.90257 -0.003,0.29444 -0.16404,1.24527 -0.357,2.11294 l -0.35085,1.57759 -1.66428,0.12832 c -2.27797,0.17566 -5.41548,0.19591 -5.57538,0.036 z m 11.19888,-9.5174 c 0.0986,-0.15959 -0.23282,-4.4133 -0.64523,-8.28037 -0.13738,-1.28828 -0.44891,-1.70691 -0.79106,-1.06308 -0.33227,0.62524 -1.16418,8.6698 -0.95337,9.21916 0.0871,0.22688 0.40139,0.30765 1.1972,0.30765 0.59353,0 1.13013,-0.0825 1.19246,-0.18336 z m -0.87884,-10.45372 c 0,-0.45048 -0.3109,-0.70066 -0.49684,-0.3998 -0.16565,0.26803 0.0273,0.78256 0.29346,0.78256 0.11186,0 0.20338,-0.17223 0.20338,-0.38276 z m -2.16918,-16.57629 c 0,-0.10846 -0.0887,-0.1972 -0.1972,-0.1972 -0.10846,0 -0.1972,0.0887 -0.1972,0.1972 0,0.10846 0.0887,0.1972 0.1972,0.1972 0.10846,0 0.1972,-0.0887 0.1972,-0.1972 z M 128.025,93.411266 c -2.36237,-0.0471 -3.00727,-0.11702 -3.00727,-0.32597 0,-0.14632 -0.0537,-0.53437 -0.11927,-0.86233 -0.10032,-0.50163 -0.0177,-0.68558 0.52048,-1.15854 1.06061,-0.93212 1.18473,-1.07937 1.06839,-1.26761 -0.0626,-0.10134 -0.36879,-0.0476 -0.69779,0.12256 -0.71801,0.3713 -0.96901,0.24091 -0.96901,-0.50337 0,-0.4196 0.18204,-0.70877 0.69019,-1.09637 0.37961,-0.28954 0.6902,-0.64901 0.6902,-0.79883 0,-0.31216 -0.70406,-0.37183 -0.8874,-0.0752 -0.50793,0.82187 -0.53709,-0.39276 -0.39577,-16.48935 0.12309,-14.01912 0.10338,-16.71386 -0.12326,-16.85744 -0.14837,-0.094 -1.40119,-0.17225 -2.78404,-0.17391 l -2.51428,-0.003 -0.0274,-1.42969 c -0.0151,-0.78633 -0.0486,-2.27271 -0.0744,-3.30307 -0.0259,-1.03036 -0.008,-2.02868 0.0407,-2.21848 0.082,-0.32264 0.70218,-0.3451 9.52833,-0.3451 5.19233,0 9.48324,0.069 9.53535,0.15332 0.0521,0.0843 0.15827,1.6245 0.23589,3.42261 0.11596,2.68608 0.0923,3.30073 -0.13241,3.44555 -0.15046,0.0969 -1.50182,0.17626 -3.00302,0.17626 l -2.72947,0 -0.06,7.39493 c -0.12729,15.6756 -0.33195,31.85826 -0.40589,32.09403 -0.0452,0.14421 -0.3458,0.22834 -0.72438,0.20274 -0.3559,-0.0241 -2.00036,-0.0708 -3.65436,-0.10374 z m -0.83809,-6.56888 c 0,-0.11487 -0.0887,-0.15399 -0.1972,-0.087 -0.10846,0.067 -0.1972,0.16101 -0.1972,0.20883 0,0.0478 0.0887,0.087 0.1972,0.087 0.10846,0 0.1972,-0.094 0.1972,-0.20884 z m 13.121,6.47201 c -0.26429,-0.1479 -0.30311,-1.11797 -0.30311,-7.57362 0,-7.16354 0.0132,-7.42256 0.40686,-7.97539 0.42029,-0.59023 0.37236,-0.96848 -0.1227,-0.96848 -0.34369,0 -0.35722,-0.26296 -0.0563,-1.09504 0.13517,-0.37383 0.16044,-0.78051 0.0621,-0.99999 -0.16594,-0.37046 -0.12769,-27.64979 0.0392,-27.92841 0.0487,-0.0813 2.54585,-0.1448 5.54919,-0.14102 7.6321,0.01 9.26219,0.36571 11.34489,2.47823 1.14254,1.15892 1.76431,2.20413 2.21836,3.72914 0.49754,1.67104 0.50789,10.56427 0.0139,11.928 -0.1768,0.48806 -0.32275,1.00389 -0.32433,1.14629 -0.002,0.14242 -0.24513,0.75367 -0.54122,1.35838 -0.60608,1.23777 -2.24366,2.62248 -3.1014,2.62248 -0.84538,0 -0.56824,0.51262 0.58119,1.07499 1.336,0.65363 2.38706,1.84043 2.87835,3.25004 0.21318,0.61169 0.45919,2.13452 0.57341,3.54957 0.23116,2.86368 0.22585,10.93495 -0.008,12.00613 -0.0872,0.39958 -0.2019,1.29334 -0.25491,1.98614 -0.0568,0.74275 -0.20451,1.32817 -0.35988,1.42667 -0.14493,0.0919 -1.56206,0.16839 -3.14919,0.17004 l -2.88569,0.003 -0.0949,-0.49656 c -0.0522,-0.27312 -0.112,-3.59712 -0.13286,-7.38666 -0.0551,-10.01004 -0.21864,-11.03123 -1.91112,-11.93521 -0.79435,-0.42427 -2.69955,-0.51216 -3.07009,-0.14163 -0.12775,0.12777 -0.23434,3.7292 -0.29395,9.93235 -0.0514,5.35255 -0.12826,9.84195 -0.17071,9.97646 -0.0906,0.28689 -6.3751,0.29061 -6.88711,0.004 z m 10.60012,-27.05868 c 0.92483,-0.60597 1.28831,-1.72551 1.54899,-4.77088 0.35166,-4.10833 -0.13216,-6.3081 -1.54829,-7.03963 -0.61987,-0.32019 -2.78619,-0.49883 -3.1639,-0.26091 -0.18834,0.11865 -0.2465,1.56226 -0.2465,6.11875 0,4.50318 0.0604,6.02598 0.2465,6.21875 0.34023,0.35231 2.49617,0.17097 3.1632,-0.26608 z m -44.01262,26.69203 c -1.67015,-0.0867 -3.12148,-0.24247 -3.22517,-0.34616 -0.10369,-0.10369 -0.27989,-0.88469 -0.39155,-1.73556 -0.34854,-2.65573 -0.46268,-2.96036 -1.16164,-3.10016 -0.8388,-0.16777 -2.783627,-0.15001 -3.053547,0.0279 -0.12091,0.0797 -0.32503,1.15887 -0.4536,2.3982 -0.12856,1.23934 -0.28706,2.3396 -0.35222,2.44503 -0.11356,0.18375 -6.93411,0.0283 -7.12478,-0.16238 -0.0461,-0.0461 0.0237,-0.95248 0.1552,-2.01412 0.13149,-1.06164 0.28219,-2.28521 0.33488,-2.71905 0.0527,-0.43384 0.22876,-1.67619 0.39127,-2.76078 0.1625,-1.08459 0.37578,-2.54879 0.47395,-3.25377 0.0982,-0.70498 0.45096,-3.10094 0.78399,-5.32435 0.82678,-5.51996 1.51896,-10.77784 1.86915,-14.19828 0.16101,-1.57266 0.42413,-3.87988 0.58472,-5.12716 0.16059,-1.24728 0.43293,-3.86509 0.6052,-5.81735 0.17228,-1.95226 0.36463,-3.8882 0.42745,-4.30208 l 0.11422,-0.75249 4.117607,0.0466 c 2.67531,0.0303 4.18007,0.12187 4.29593,0.26147 0.0981,0.11818 0.23498,0.79078 0.30422,1.4947 0.0692,0.70392 0.25269,2.16723 0.40767,3.25182 0.39756,2.78235 0.82523,6.24752 1.16822,9.46552 0.16185,1.51843 0.46443,4.26934 0.67241,6.11315 0.20798,1.8438 0.43656,3.97354 0.50795,4.73276 0.16955,1.80298 0.99224,9.01419 1.48483,13.01509 0.21365,1.73534 0.52756,4.28815 0.69757,5.6729 0.17002,1.38475 0.25523,2.60491 0.18938,2.71148 -0.0659,0.10656 -0.26981,0.18047 -0.45321,0.16424 -0.1834,-0.0162 -1.69995,-0.10043 -3.3701,-0.18712 z m -4.69568,-11.22745 c -0.0751,-2.66 -1.10467,-8.29804 -1.45045,-7.94303 -0.32653,0.33526 -1.096007,8.23718 -0.871117,8.94573 0.0816,0.25726 0.355567,0.38485 0.943307,0.43936 1.47214,0.13654 1.42426,0.18662 1.37826,-1.44206 z m 9.65714,11.09647 c -0.0602,-0.15697 -0.0514,-4.15842 0.0196,-8.89212 0.071,-4.73369 0.18368,-15.12906 0.25032,-23.1008 0.0666,-7.97174 0.15524,-14.5316 0.19689,-14.57745 0.0417,-0.0459 1.27176,-0.12394 2.73358,-0.17352 2.65043,-0.0899 2.65839,-0.0888 2.85559,0.37917 0.19375,0.45981 0.1469,23.69545 -0.0652,32.31685 -0.052,2.11495 -0.10173,6.22105 -0.11046,9.12466 l -0.0159,5.27929 -2.8775,-0.0353 c -2.30576,-0.0283 -2.89926,-0.0921 -2.98702,-0.32073 z m -38.258607,-0.17752 c -0.13557,-0.0546 -0.24649,-0.25168 -0.24649,-0.43785 0,-0.1862 -0.0934,-0.43193 -0.20755,-0.54609 -0.11416,-0.11415 -0.2353,-0.42031 -0.26921,-0.68033 -0.0339,-0.26003 -0.16424,-0.72752 -0.28962,-1.0389 -0.23478,-0.58304 -0.23666,-0.58335 -1.61233,-0.2843 -0.24546,0.0534 -0.2746,-2.82096 -0.21733,-21.43299 0.0364,-11.82204 0.0867,-21.51531 0.11173,-21.54061 0.13113,-0.13232 5.14776,-0.45002 7.80866,-0.49451 5.41592,-0.0905 7.50231,0.6516 9.31229,3.31246 1.13355,1.66642 1.46512,2.61195 1.72491,4.91877 0.29824,2.64834 0.25593,9.84184 -0.065,11.04311 -0.5797,2.17017 -1.39832,3.25632 -3.08981,4.09958 -0.70196,0.34994 -1.2634,0.7243 -1.24764,0.83192 0.0157,0.10761 0.63628,0.50624 1.37895,0.88585 1.97453,1.00926 3.07004,2.82134 2.63105,4.35203 -0.0912,0.31786 -0.0976,0.57793 -0.0143,0.57793 0.0833,0 0.16686,0.40704 0.18568,0.90455 0.0188,0.49749 0.12347,1.07132 0.23256,1.27516 0.25493,0.47633 0.13469,3.70636 -0.15815,4.24832 -0.16732,0.30966 -0.16602,0.47089 0.005,0.64212 0.16327,0.16326 0.21182,1.47719 0.16985,4.59683 -0.0323,2.40253 -0.10802,4.49658 -0.16822,4.65347 -0.10363,0.27006 -1.23735,0.27951 -6.41116,0.0535 -0.0813,-0.004 -0.1479,-3.78075 -0.1479,-8.39373 0,-9.13594 -0.001,-9.14736 -1.13147,-10.20929 -0.99274,-0.93279 -3.42105,-1.32267 -3.98743,-0.64023 -0.12964,0.1562 -0.21991,3.65103 -0.25284,9.78916 l -0.0512,9.54622 -1.87338,0.0336 c -1.03037,0.0185 -1.98431,-0.011 -2.11989,-0.0658 z m 7.2056,-26.27578 c 0.93722,-0.4821 1.70233,-1.31682 1.98659,-2.16737 0.13318,-0.3985 0.22228,-2.03785 0.2197,-4.04257 -0.005,-3.75383 -0.21327,-4.61568 -1.30378,-5.39047 -1.42594,-1.01315 -3.43695,-1.38199 -3.77971,-0.69325 -0.0945,0.1898 -0.14506,3.00619 -0.11244,6.25864 0.0535,5.33161 0.0928,5.93803 0.39969,6.16244 0.49936,0.36514 1.75217,0.30351 2.58995,-0.12742 z m -30.60762,25.75187 c -0.35687,-0.26095 -0.35768,-0.36334 -0.0277,-3.50455 0.3237,-3.08168 0.97209,-8.38764 1.60031,-13.09567 0.15919,-1.19305 0.46508,-3.67774 0.67975,-5.52155 0.21466,-1.8438 0.43708,-3.55107 0.49425,-3.79394 0.12537,-0.53251 0.84021,-6.7058 1.07918,-9.31975 0.0942,-1.03036 0.22748,-2.1396 0.29617,-2.46498 0.0687,-0.32537 0.27745,-2.27764 0.4639,-4.33836 l 0.33902,-3.74677 2.0655,-0.10944 c 3.21505,-0.17034 6.24588,-0.0867 6.56873,0.1812 0.15629,0.12972 0.3428,0.74344 0.41447,1.36383 0.0717,0.6204 0.34336,2.63656 0.60375,4.48036 0.26038,1.84381 0.61365,4.55035 0.78502,6.01455 0.17138,1.4642 0.39444,3.37209 0.49568,4.23976 0.10124,0.86768 0.36695,3.04179 0.59048,4.83136 0.22352,1.78958 0.75801,6.06931 1.18776,9.51054 0.42974,3.44123 0.91186,7.21265 1.07138,8.38093 0.55679,4.07789 0.62994,4.77968 0.51717,4.96212 -0.0625,0.10105 -0.95505,0.42583 -1.98356,0.72171 -1.02851,0.2959 -2.00425,0.612 -2.16832,0.70246 -0.57871,0.31905 -2.44793,0.76619 -2.58913,0.61936 -0.0787,-0.0818 -0.25842,-1.01831 -0.39945,-2.08113 -0.14104,-1.0628 -0.31219,-2.02259 -0.38032,-2.13284 -0.18023,-0.29162 -3.00418,-0.46777 -3.45688,-0.21562 -0.31005,0.17269 -0.4084,0.57584 -0.57167,2.34331 l -0.1972,2.13475 -3.55533,0.0536 c -2.75741,0.0416 -3.63782,-0.007 -3.92293,-0.21522 z m 11.04866,-12.01536 c -0.18357,-3.96908 -0.52242,-7.67963 -0.73834,-8.08513 -0.19948,-0.37461 -0.47767,-0.44758 -0.64907,-0.17024 -0.17716,0.28665 -0.67443,4.26282 -0.90045,7.20011 -0.116,1.50742 -0.25809,2.81713 -0.31576,2.91043 -0.0577,0.0933 -0.0488,0.34634 0.0198,0.56227 0.10776,0.33954 0.29975,0.39264 1.41922,0.39264 l 1.2946,0 -0.12997,-2.81008 z m -30.9161,11.66208 c -0.1259,-0.0771 -0.15651,-1.3912 -0.085,-3.64817 0.0615,-1.9402 0.16735,-5.74612 0.23524,-8.4576 0.0679,-2.71148 0.1493,-4.97433 0.18089,-5.02856 0.0316,-0.0542 0.11204,-1.6959 0.17878,-3.64817 0.0668,-1.95226 0.16354,-4.30385 0.21509,-5.22575 0.12061,-2.15678 0.25786,-6.75142 0.41235,-13.80389 0.0677,-3.09108 0.15699,-5.6771 0.1984,-5.74673 0.0414,-0.0696 2.84907,-0.11221 6.23927,-0.0946 5.9617,0.0309 6.21252,0.0478 7.64297,0.51476 1.27494,0.41623 1.64833,0.65326 2.70636,1.71799 2.27003,2.28441 2.85279,4.0911 2.94503,9.13017 0.0975,5.32822 -0.33292,8.13082 -1.64714,10.72431 -0.63735,1.25777 -2.62953,3.18683 -3.47517,3.36505 -1.74098,0.36695 -2.91496,0.48716 -5.1708,0.52952 -1.45264,0.0273 -2.5398,0.13289 -2.64047,0.25658 -0.1564,0.19211 -0.25342,1.23669 -0.50492,5.43596 -0.0487,0.81345 -0.15001,4.34874 -0.2251,7.85621 l -0.13652,6.37719 -3.43624,-0.0668 c -1.88993,-0.0368 -3.52479,-0.12109 -3.63303,-0.18739 z m 11.45391,-26.18224 c 1.50986,-0.71583 1.81603,-1.93462 1.74364,-6.94089 -0.05,-3.45967 -0.0513,-3.46817 -0.60262,-4.19066 -0.30387,-0.39818 -0.80971,-0.85699 -1.1241,-1.01958 -0.59753,-0.30899 -2.29505,-0.39733 -2.69904,-0.14046 -0.38764,0.24648 -0.45896,1.07974 -0.5897,6.88962 l -0.12524,5.56572 0.4747,0.19213 c 0.59338,0.24017 2.0356,0.0645 2.92236,-0.35588 z m -6.0461,-15.84838 c 0.0995,-0.29708 -0.19111,-1.66632 -0.44636,-2.1028 -0.21251,-0.36338 -0.26918,1.16485 -0.0707,1.90561 0.13033,0.48633 0.38731,0.58433 0.51703,0.19719 z m 424.616857,-5.88307 c -1.08459,-0.0699 -3.87988,-0.14258 -6.21175,-0.16157 -2.33187,-0.0189 -4.99405,-0.0653 -5.91595,-0.10297 -0.9219,-0.0376 -4.11652,-0.13311 -7.09914,-0.21219 -2.98262,-0.0791 -5.45993,-0.17793 -5.50513,-0.2197 -0.0452,-0.0418 7.25363,-0.0759 16.21957,-0.0759 16.17026,0 16.30173,0.003 16.30173,0.3944 0,0.36608 -0.13804,0.39581 -1.92268,0.41411 -1.05748,0.0109 -2.36638,0.0357 -2.90868,0.0553 -0.54229,0.0195 -1.87338,-0.0216 -2.95797,-0.0914 z m -26.08179,-0.71067 c 0.18854,-0.0494 0.5435,-0.0511 0.78879,-0.004 0.24532,0.0472 0.091,0.0876 -0.34279,0.0897 -0.43383,0.002 -0.63452,-0.0364 -0.446,-0.0858 z"
       id="path3066"
       inkscape:connector-curvature="0" />
  </g>
</svg>
