<?xml version="1.0" encoding="UTF-8" standalone="no"?>
<!-- Created with Inkscape (http://www.inkscape.org/) -->

<svg
   xmlns:dc="http://purl.org/dc/elements/1.1/"
   xmlns:cc="http://creativecommons.org/ns#"
   xmlns:rdf="http://www.w3.org/1999/02/22-rdf-syntax-ns#"
   xmlns:svg="http://www.w3.org/2000/svg"
   xmlns="http://www.w3.org/2000/svg"
   xmlns:xlink="http://www.w3.org/1999/xlink"
   xmlns:sodipodi="http://sodipodi.sourceforge.net/DTD/sodipodi-0.dtd"
   xmlns:inkscape="http://www.inkscape.org/namespaces/inkscape"
   width="744.09448819"
   height="1052.3622047"
   id="svg2"
   version="1.1"
   inkscape:version="0.48.0 r9654"
   sodipodi:docname="petite fille du hard.svg">
  <defs
     id="defs4">
    <inkscape:path-effect
       is_visible="true"
       id="path-effect4025"
       effect="spiro" />
    <inkscape:path-effect
       effect="spiro"
       id="path-effect4015"
       is_visible="true" />
    <inkscape:path-effect
       effect="spiro"
       id="path-effect4003"
       is_visible="true" />
    <inkscape:path-effect
       is_visible="true"
       id="path-effect3998"
       effect="spiro" />
    <inkscape:path-effect
       effect="spiro"
       id="path-effect3992"
       is_visible="true" />
    <inkscape:path-effect
       effect="spiro"
       id="path-effect3988"
       is_visible="true" />
    <inkscape:path-effect
       effect="spiro"
       id="path-effect3984"
       is_visible="true" />
    <inkscape:path-effect
       is_visible="true"
       id="path-effect3855"
       effect="spiro" />
    <inkscape:path-effect
       is_visible="true"
       id="path-effect3083"
       effect="spiro" />
    <inkscape:path-effect
       effect="spiro"
       id="path-effect3079"
       is_visible="true" />
  </defs>
  <sodipodi:namedview
     id="base"
     pagecolor="#ffffff"
     bordercolor="#666666"
     borderopacity="1.0"
     inkscape:pageopacity="0.0"
     inkscape:pageshadow="2"
     inkscape:zoom="0.66472918"
     inkscape:cx="175.1873"
     inkscape:cy="326.3104"
     inkscape:document-units="px"
     inkscape:current-layer="layer2"
     showgrid="false"
     inkscape:window-width="800"
     inkscape:window-height="552"
     inkscape:window-x="0"
     inkscape:window-y="0"
     inkscape:window-maximized="0" />
  <metadata
     id="metadata7">
    <rdf:RDF>
      <cc:Work
         rdf:about="">
        <dc:format>image/svg+xml</dc:format>
        <dc:type
           rdf:resource="http://purl.org/dc/dcmitype/StillImage" />
        <dc:title></dc:title>
      </cc:Work>
    </rdf:RDF>
  </metadata>
  <g
     inkscape:label="Layer 1"
     inkscape:groupmode="layer"
     id="layer1"
     sodipodi:insensitive="true"
     style="display:none">
    <image
       y="6.0764618"
       x="17.714273"
       id="image3073"
       xlink:href="file:///Users/harrisson/Desktop/A732_P.JPG"
       height="1024"
       width="696" />
  </g>
  <g
     inkscape:groupmode="layer"
     id="layer2"
     inkscape:label="dessin"
     style="display:inline">
    <path
       style="fill:#000000;stroke:#000000;stroke-width:1px;stroke-linecap:butt;stroke-linejoin:miter;stroke-opacity:1"
       inkscape:path-effect="#path-effect3079"
       inkscape:original-d="m 211.43765,509.11095 c 1.6551,-0.52187 3.44209,2.4657 4.52086,2.58204 1.18021,0.12728 2.97514,0.12644 4.22302,-0.21729 1.76727,-0.48681 2.96861,-1.30719 4.36168,-0.36618 1.23735,0.83582 0.23994,2.20717 1.38684,4.2595 0.83665,1.49714 1.2201,2.83149 2.36591,4.21826 0.88737,1.07398 2.58436,2.24988 3.07674,3.11191 0.66229,1.15948 -1.06801,2.80899 -1.06801,2.80899 0,0 2.21789,-1.48954 2.6969,-0.88051 1.33381,1.69588 1.52735,6.00811 2.42692,7.99356 0.86346,1.90575 2.26538,3.73169 2.34439,5.82243 0.0647,1.71225 -0.74749,3.38824 -1.55463,4.8997 -1.20703,2.26029 -3.13399,4.05729 -4.79607,6.0075 -1.61133,1.89065 -3.84701,3.32074 -5.01337,5.51403 -1.44428,2.71591 -1.4309,5.98362 -2.1902,8.96449 -0.50171,1.96962 -0.99344,3.94273 -1.56293,5.89383 -0.55165,1.89 -1.79491,5.62727 -1.79491,5.62727 l -11.89053,-3.42459 -8.36997,-2.78999 -3.34799,-0.558 -6.84076,-9.59448 -2.04116,-23.036 6.70668,-16.91251 7.87307,-11.08061 z"
       id="path4021"
       d="m 211.43765,509.11095 c 1.17942,1.31369 2.79013,2.23363 4.52086,2.58204 1.39584,0.28099 2.85993,0.19419 4.22302,-0.21729 0.72555,-0.21902 1.42567,-0.52866 2.16907,-0.67615 0.3717,-0.0738 0.75397,-0.1061 1.13053,-0.0637 0.37656,0.0424 0.74789,0.16178 1.06208,0.37364 0.32034,0.21601 0.57357,0.52293 0.75615,0.86343 0.18257,0.34051 0.29689,0.71433 0.37115,1.09349 0.14851,0.75833 0.13988,1.53917 0.25954,2.30258 0.25496,1.62665 1.11236,3.15074 2.36591,4.21826 0.56541,0.4815 1.20414,0.87037 1.77643,1.34368 0.57229,0.47331 1.09045,1.05585 1.30031,1.76823 0.15201,0.516 0.13027,1.08156 -0.0609,1.58437 -0.19118,0.50282 -0.55067,0.93995 -1.00711,1.22462 0.29704,-0.40874 0.72546,-0.72043 1.20578,-0.87725 0.48032,-0.15682 1.01012,-0.15798 1.49112,-0.003 0.70613,0.22713 1.27977,0.77749 1.63881,1.42657 0.35904,0.64908 0.51981,1.39157 0.58097,2.13081 0.12231,1.47848 -0.13391,2.99239 0.20714,4.43618 0.24174,1.02337 0.77037,1.95141 1.2643,2.87972 0.49392,0.92831 0.96677,1.8973 1.08009,2.94271 0.0941,0.86812 -0.0671,1.75027 -0.36512,2.57105 -0.29802,0.82078 -0.72973,1.58629 -1.18951,2.32865 -1.35239,2.18357 -2.96667,4.20466 -4.79607,6.0075 -1.77643,1.75064 -3.7903,3.34043 -5.01337,5.51403 -1.51703,2.696 -1.62127,5.92375 -2.1902,8.96449 -0.37402,1.99901 -0.96083,3.9513 -1.56293,5.89383 -0.58291,1.88062 -1.18124,3.75646 -1.79491,5.62727 -3.99028,-1.04568 -7.95533,-2.18765 -11.89053,-3.42459 -2.80571,-0.88191 -5.59625,-1.81209 -8.36997,-2.78999 l -3.34799,-0.558 -6.84076,-9.59448 -2.04116,-23.036 6.70668,-16.91251 7.87307,-11.08061 8.48752,1.15665"
       inkscape:connector-curvature="0" />
    <path
       style="fill:#000000;stroke:#000000;stroke-width:1px;stroke-linecap:butt;stroke-linejoin:miter;stroke-opacity:1"
       d="m 109.88217,813.23163 c -0.60201,1.9984 -1.30488,3.96642 -2.10502,5.89406 -1.27956,3.0826 -2.81098,6.071 -3.78904,9.2621 -1.00259,3.27113 -1.40447,6.69423 -1.68402,10.10411 -0.26425,3.22318 -0.4226,6.47683 0,9.6831 0.36105,2.73932 1.14243,5.40918 2.10502,7.99909 0.72714,1.95643 1.56062,3.87912 2.10503,5.89406 1.47399,5.45551 0.75501,11.26594 1.68401,16.84018 0.61162,3.66984 1.93638,7.22949 2.10503,10.94612 0.18041,3.9758 -0.9706,7.87269 -1.68402,11.78812 -0.50878,2.79231 -0.79702,5.62032 -1.26302,8.42009 -0.21633,1.29976 -0.47189,2.605 -0.43397,3.92209 0.0379,1.31709 0.39955,2.67211 1.27598,3.656 0.76254,0.85604 1.84715,1.36073 2.94704,1.68401 2.30703,0.67808 4.76321,0.64824 7.15707,0.42101 3.93707,-0.37371 7.83336,-1.26532 11.78813,-1.26302 3.38117,0.002 6.72795,0.65807 10.10411,0.84201 3.78443,0.20619 7.58145,-0.18201 11.36712,0 1.07605,0.0517 2.16365,0.14883 3.22383,-0.0424 0.53009,-0.0956 1.05035,-0.26451 1.51623,-0.53487 0.46587,-0.27037 0.87634,-0.64513 1.154,-1.1067 0.43239,-0.71878 0.51738,-1.61501 0.33109,-2.43287 -0.18628,-0.81786 -0.62655,-1.56188 -1.1731,-2.19818 -0.97853,-1.1392 -2.29251,-1.95207 -3.67991,-2.5269 -1.3874,-0.57483 -2.85563,-0.92546 -4.31917,-1.26214 -3.78281,-0.87022 -7.6748,-1.69969 -10.94612,-3.78904 -2.6905,-1.71839 -4.80412,-4.19458 -6.73607,-6.73608 -1.18552,-1.55956 -2.33597,-3.19079 -2.94703,-5.05205 -1.01626,-3.09551 -0.43934,-6.45479 0,-9.6831 0.34275,-2.51852 0.59549,-5.04833 0.842,-7.57808 0.27356,-2.80741 0.53954,-5.61564 0.84201,-8.42009 1.3515,-12.5307 3.42995,-24.97084 5.05206,-37.4694 0.81782,-6.30144 1.51966,-12.61794 2.10502,-18.94521 l -26.94429,1.68402"
       id="path3986"
       inkscape:path-effect="#path-effect3988"
       inkscape:original-d="m 109.88217,813.23163 c 0,0 -1.35904,3.94577 -2.10502,5.89406 -1.19277,3.11518 -2.87767,6.05329 -3.78904,9.2621 -0.93289,3.28458 -1.40239,6.70125 -1.68402,10.10411 -0.26622,3.2167 -0.41414,6.48208 0,9.6831 0.35376,2.73435 1.28977,5.36523 2.10502,7.99909 0.61687,1.99294 1.64701,3.85873 2.10503,5.89406 1.23853,5.50376 0.86983,11.25785 1.68401,16.84018 0.53624,3.67666 2.01569,7.23163 2.10503,10.94612 0.0954,3.96812 -1.10894,7.86073 -1.68402,11.78812 -0.41119,2.80815 -1.20877,5.58251 -1.26302,8.42009 -0.0486,2.54111 -0.55329,5.45377 0.84201,7.57809 0.62114,0.94567 1.86253,1.36162 2.94704,1.68401 2.29074,0.68097 4.76794,0.47834 7.15707,0.42101 3.95073,-0.0948 7.83654,-1.2164 11.78813,-1.26302 3.37948,-0.0399 6.72732,0.70155 10.10411,0.84201 3.78577,0.15747 7.6147,0.52554 11.36712,0 2.02355,-0.28341 4.81506,0.0512 5.89406,-1.68401 0.82853,-1.33239 0.11268,-3.38594 -0.84201,-4.63105 -1.79523,-2.34133 -5.26781,-2.67332 -7.99908,-3.78904 -3.57439,-1.46013 -7.67337,-1.74029 -10.94612,-3.78904 -2.69153,-1.68491 -4.79737,-4.22118 -6.73607,-6.73608 -1.19029,-1.54406 -2.43823,-3.17002 -2.94703,-5.05205 -0.84237,-3.11584 -0.17849,-6.46034 0,-9.6831 0.14055,-2.53768 0.57521,-5.05055 0.842,-7.57808 0.29608,-2.80511 0.51317,-5.61863 0.84201,-8.42009 1.46924,-12.51688 3.51407,-24.96078 5.05206,-37.4694 0.7754,-6.30644 2.10502,-18.94521 2.10502,-18.94521 z"
       inkscape:connector-curvature="0"
       sodipodi:nodetypes="caaaaaaaaaaaaaaaaaaaaaaaaaacc" />
    <path
       style="fill:#000000;stroke:#000000;stroke-width:1px;stroke-linecap:butt;stroke-linejoin:miter;stroke-opacity:1"
       d="m 124.19633,811.96862 c -0.13594,2.56264 -0.56048,5.10987 -1.26302,7.57808 -1.17907,4.14236 -3.13058,8.03971 -4.21004,12.20913 -1.42057,5.48697 -1.27713,11.31806 0,16.84018 1.32391,5.72439 3.82237,11.09866 6.31506,16.41917 3.28685,7.0156 6.60538,14.05344 8.8411,21.47123 1.52567,5.06196 2.5464,10.29763 4.63105,15.15616 0.82559,1.92415 1.82626,3.81892 2.10502,5.89407 0.25417,1.89211 -0.11049,3.80611 -0.46068,5.68283 -0.3502,1.87671 -0.68808,3.79999 -0.38133,5.68429 0.10409,0.63939 0.28171,1.26709 0.34413,1.91188 0.0624,0.64479 -0.001,1.32766 -0.34413,1.87716 -0.21096,0.3379 -0.51491,0.60615 -0.82053,0.86165 -0.30562,0.2555 -0.62056,0.50666 -0.86349,0.82237 -0.49122,0.63839 -0.64037,1.48771 -0.5762,2.29065 0.0642,0.80295 0.32245,1.57591 0.5762,2.3404 0.32844,0.98949 0.65603,1.98826 1.1742,2.89295 0.51818,0.90469 1.24805,1.72041 2.19384,2.1591 0.97681,0.45308 2.10457,0.47027 3.16871,0.30583 1.06414,-0.16444 2.09385,-0.49954 3.14636,-0.72683 2.75934,-0.59589 5.63178,-0.44082 8.42009,0 3.96539,0.62692 7.85933,1.83642 11.36712,3.78904 1.21798,0.67799 2.38696,1.44356 3.62572,2.08279 1.23876,0.63923 2.56451,1.15475 3.95236,1.28524 1.62795,0.15307 3.25371,-0.22823 4.84296,-0.61287 1.58925,-0.38463 3.21004,-0.77827 4.84014,-0.65014 1.47718,0.11611 2.89103,0.65647 4.36171,0.83715 0.73534,0.0903 1.49047,0.0887 2.20689,-0.10005 0.71642,-0.18875 1.39402,-0.57535 1.85149,-1.15811 0.45169,-0.5754 0.66656,-1.31174 0.70263,-2.04236 0.0361,-0.73063 -0.0965,-1.45997 -0.28162,-2.16768 -0.27663,-1.05772 -0.67708,-2.09401 -1.29748,-2.99423 -0.62041,-0.90022 -1.47294,-1.6607 -2.49156,-2.05782 -1.1207,-0.43692 -2.36232,-0.41405 -3.56296,-0.34098 -1.20064,0.0731 -2.42164,0.1886 -3.59412,-0.08 -0.4331,-0.0992 -0.85301,-0.24977 -1.26301,-0.421 -2.6882,-1.12265 -4.92707,-3.1179 -6.83797,-5.31681 -1.9109,-2.19891 -3.54135,-4.62548 -5.37116,-6.89232 -1.68516,-2.08764 -3.53707,-4.03668 -5.47306,-5.89407 -1.51787,-1.45625 -3.0946,-2.86395 -4.41915,-4.49801 -1.32456,-1.63407 -2.40001,-3.52994 -2.73793,-5.60609 -0.27108,-1.66548 -0.0589,-3.36569 0,-5.05206 0.12289,-3.52139 -0.42632,-7.02618 -0.84201,-10.52511 -1.69124,-14.23553 -1.18299,-28.6365 -2.10502,-42.94246 -0.19899,-3.08747 -0.46361,-6.20315 0,-9.2621 0.26759,-1.7656 0.78414,-3.5096 1.68402,-5.05205 0.92372,-1.58332 2.23975,-2.93992 2.94703,-4.63105 0.66212,-1.58314 0.74082,-3.33901 0.84201,-5.05205 0.1492,-2.52573 0.36666,-5.04854 0.421,-7.57809 0.0181,-0.84188 0.0181,-1.68414 0,-2.52602 l -35.36437,3.78904"
       id="path4001"
       inkscape:path-effect="#path-effect4003"
       inkscape:original-d="m 124.19633,811.96862 c 0,0 -0.63291,5.09594 -1.26302,7.57808 -1.05922,4.17253 -3.49858,7.96346 -4.21004,12.20913 -0.92771,5.5362 -1.02477,11.32112 0,16.84018 1.0705,5.76537 4.14606,10.97115 6.31506,16.41917 2.86297,7.19111 6.2338,14.18352 8.8411,21.47123 1.77949,4.97389 2.97039,10.14134 4.63105,15.15616 0.65583,1.98046 1.82518,3.82669 2.10502,5.89407 0.50964,3.76509 -0.70158,7.5703 -0.84201,11.36712 -0.0467,1.26215 0.48333,2.62217 0,3.78904 -0.3038,0.73343 -1.38022,0.95059 -1.68402,1.68402 -0.59074,1.42618 -0.44734,3.1536 0,4.63105 0.58651,1.93709 1.55279,4.15695 3.36804,5.05205 1.89216,0.93303 4.20654,-0.35079 6.31507,-0.421 2.80514,-0.0934 5.64963,-0.44958 8.42009,0 3.94243,0.63977 7.64339,2.3448 11.36712,3.78904 2.57722,0.99957 4.84252,2.97064 7.57808,3.36803 3.22123,0.46795 6.44118,-0.971 9.6831,-1.26301 2.79887,-0.2521 6.3842,1.5161 8.42009,-0.42101 1.02174,-0.97217 0.7998,-2.85151 0.42101,-4.21004 -0.56536,-2.02768 -1.93472,-4.05576 -3.78904,-5.05205 -2.1052,-1.13108 -4.81038,0.0309 -7.15708,-0.42101 -0.43577,-0.0839 -0.88551,-0.18769 -1.26301,-0.421 -4.89587,-3.02581 -8.21544,-8.06479 -12.20913,-12.20913 -1.86041,-1.93059 -3.78234,-3.81327 -5.47306,-5.89407 -2.60276,-3.20325 -5.90527,-6.17114 -7.15708,-10.1041 -0.51076,-1.6047 0.0672,-3.36938 0,-5.05206 -0.14045,-3.51678 -0.61549,-7.01283 -0.84201,-10.52511 -0.92238,-14.30163 -1.75408,-28.61542 -2.10502,-42.94246 -0.0756,-3.08644 -0.49454,-6.2146 0,-9.2621 0.28434,-1.75219 0.92113,-3.44924 1.68402,-5.05205 0.78637,-1.65214 2.2923,-2.92246 2.94703,-4.63105 0.6109,-1.59421 0.65404,-3.35518 0.84201,-5.05205 0.27854,-2.51454 0.35081,-5.04914 0.421,-7.57809 0.0234,-0.84168 0,-2.52602 0,-2.52602 z"
       inkscape:connector-curvature="0"
       sodipodi:nodetypes="caaaaaaaaaaaaaaaaaaaaaaaaaaaaaaaaacc" />
    <path
       style="fill:#0000ff;stroke:none"
       d="m 141.97111,651.66381 c -6.82238,3.15969 -13.58455,6.44939 -20.28159,9.86671 -6.42722,3.27964 -12.82054,6.69306 -18.63713,10.96302 -2.92718,2.14884 -5.702163,4.5116 -8.222268,7.12597 -5.82321,6.04104 -10.313183,13.6213 -11.511171,21.92604 -0.675118,4.68008 -0.300586,9.46949 -1.052617,14.13782 -0.376016,2.33417 -1.041917,4.64386 -2.206843,6.70121 -1.164926,2.05734 -2.853377,3.85633 -4.962805,4.92406 -2.007733,1.01625 -4.288482,1.33214 -6.526589,1.56589 -2.238107,0.23375 -4.513888,0.40681 -6.629035,1.17487 -2.278611,0.82742 -4.266675,2.31231 -6.019027,3.98741 -1.752353,1.6751 -3.29802,3.55142 -4.943993,5.33116 -1.579301,1.70764 -3.251373,3.32675 -4.933359,4.93335 -3.836037,3.66411 -7.74912,7.29078 -10.963019,11.51118 -3.014627,3.95872 -5.398086,8.45756 -6.51225,13.30711 -1.114165,4.84954 -0.907049,10.06553 1.03074,14.64859 0.832263,1.96838 1.969804,3.80009 3.288906,5.48151 0.783406,0.99858 1.637261,1.95152 2.635957,2.73478 0.998697,0.78326 2.150598,1.39434 3.393704,1.65042 1.717285,0.35376 3.49051,0.0186 5.225028,-0.23765 1.734518,-0.25625 3.56549,-0.42243 5.18984,0.23765 0.878753,0.35709 1.650871,0.94148 2.322776,1.61101 0.671905,0.66953 1.250467,1.42557 1.822976,2.18185 0.572509,0.75627 1.143095,1.51759 1.801508,2.20039 0.658413,0.6828 1.411198,1.289 2.275005,1.68087 0.965098,0.43782 2.037383,0.59525 3.097013,0.61212 1.059631,0.0169 2.116482,-0.0994 3.169318,-0.22038 2.105672,-0.24197 4.221613,-0.39174 6.341142,-0.39174 l 7.125963,0 c 4.92928,5.03747 10.957804,8.99369 17.540832,11.51117 4.545519,1.73829 9.385708,2.79842 14.251928,2.74075 5.13114,-0.0608 10.28028,-1.35322 15.34823,-0.54815 3.15426,0.50107 6.14885,1.80105 9.31856,2.19261 3.83425,0.47365 7.70749,-0.40768 11.39095,-1.573 3.68346,-1.16531 7.29059,-2.62439 11.08324,-3.36036 4.68141,-0.90844 9.5007,-0.68808 14.25193,-1.0963 2.39623,-0.20588 4.77865,-0.57241 7.12596,-1.09631 0.56611,-19.91079 0.56611,-39.83766 0,-59.74845 -0.11956,-4.20504 -0.26441,-8.41032 -0.54815,-12.60748 -0.0617,-0.9133 -0.1298,-1.83461 0,-2.74075 0.24728,-1.7262 1.19382,-3.273 2.26392,-4.64988 1.07009,-1.37688 2.28765,-2.64537 3.21759,-4.12054 1.82555,-2.89587 2.42646,-6.53398 1.64445,-9.86672 -0.28464,-1.21308 -0.74375,-2.38852 -0.90021,-3.62468 -0.0782,-0.61809 -0.0789,-1.25081 0.057,-1.85882 0.13591,-0.60801 0.41333,-1.19149 0.84318,-1.64246 0.54904,-0.57603 1.3023,-0.90086 2.01399,-1.25688 0.35584,-0.17801 0.70765,-0.36818 1.02575,-0.6072 0.31809,-0.23901 0.60298,-0.52947 0.79732,-0.87667 0.27491,-0.49113 0.35511,-1.07247 0.3212,-1.63429 -0.0339,-0.56181 -0.17563,-1.11093 -0.3212,-1.65462 -0.17033,-0.63618 -0.34777,-1.27585 -0.39324,-1.93287 -0.0455,-0.65702 0.0504,-1.34188 0.39324,-1.90419 0.26324,-0.43176 0.66072,-0.77165 1.10314,-1.01656 0.44242,-0.2449 0.92974,-0.39924 1.42268,-0.51205 0.98588,-0.22562 2.01465,-0.29343 2.95569,-0.66399 0.82835,-0.32618 1.55707,-0.87851 2.15288,-1.53999 0.59581,-0.66149 1.06322,-1.43056 1.44649,-2.23409 0.76653,-1.60706 1.20245,-3.35067 1.88214,-4.99634 2.24759,-5.44187 6.94091,-9.40397 10.96302,-13.70377 8.16821,-8.73216 13.92274,-19.41165 19.18529,-30.14831 0.61304,-1.25072 1.2229,-2.50949 1.64445,-3.83705 0.44878,-1.41328 0.67955,-2.90822 0.54815,-4.38521 -0.0908,-1.02107 -0.35241,-2.02036 -0.45994,-3.03981 -0.10754,-1.01945 -0.0473,-2.09901 0.45994,-2.98985 0.35535,-0.62414 0.90331,-1.11102 1.42613,-1.60344 0.52283,-0.49243 1.04268,-1.02073 1.31462,-1.68547 0.19284,-0.47138 0.25021,-0.9895 0.23278,-1.49849 -0.0174,-0.509 -0.10731,-1.01245 -0.19971,-1.51329 -0.0924,-0.50084 -0.18777,-1.00289 -0.2164,-1.51138 -0.0286,-0.50849 0.0114,-1.02709 0.18333,-1.5065 0.24271,-0.67685 0.7314,-1.23535 1.24554,-1.73804 0.51415,-0.5027 1.06854,-0.97209 1.49522,-1.55087 0.5887,-0.79855 0.90469,-1.76734 1.0963,-2.74075 0.46057,-2.3398 0.25036,-4.75444 0,-7.12596 -0.252,-2.38705 -0.5429,-4.76981 -0.80745,-7.1555 -0.3602,-3.24822 -0.71575,-6.63472 -2.46176,-9.39735 -0.98328,-1.55579 -2.38478,-2.84449 -4.01743,-3.69406 -1.63265,-0.84958 -3.49229,-1.25787 -5.33068,-1.17037 0.8696,-0.47285 1.60957,-1.1814 2.11969,-2.02968 0.51013,-0.84827 0.78907,-1.83406 0.79905,-2.82386 0.01,-0.9898 -0.24901,-1.98101 -0.74192,-2.83941 -0.49291,-0.85839 -1.21843,-1.58172 -2.07832,-2.07202 -0.935,-0.53313 -2.00514,-0.78545 -3.07274,-0.92213 -1.06761,-0.13667 -2.14643,-0.16414 -3.21622,-0.28249 -5.13759,-0.56836 -9.78258,-3.17694 -14.58016,-5.10075 -2.27207,-0.91109 -4.62127,-1.67942 -7.05117,-1.97602 -2.4299,-0.2966 -4.95589,-0.10305 -7.21061,0.85017 -0.93979,0.39731 -1.82062,0.9201 -2.73723,1.36829 -0.91661,0.44818 -1.8877,0.82614 -2.90511,0.9031 -1.27146,0.0962 -2.54393,-0.28765 -3.66618,-0.89297 -1.12226,-0.60531 -2.11266,-1.42512 -3.0758,-2.26073 -0.96313,-0.8356 -1.91172,-1.69607 -2.97519,-2.39956 -1.06347,-0.70348 -2.25888,-1.24991 -3.52708,-1.38233 -1.22641,-0.12806 -2.48095,0.14119 -3.58228,0.69577 -1.10132,0.55459 -2.052,1.38702 -2.80843,2.36082 -1.51286,1.9476 -2.23119,4.40066 -2.60611,6.83815 -0.37491,2.43748 -0.43857,4.91465 -0.81057,7.35259 -0.372,2.43793 -1.08415,4.89203 -2.59001,6.84505 -1.8202,2.3607 -4.62519,3.77726 -6.57781,6.02966 -1.96287,2.26422 -2.93926,5.24615 -3.28891,8.22227 -0.34153,2.90703 -0.1297,5.84626 0,8.77041 0.1539,3.46965 0.1914,6.94708 0,10.41487 -0.31675,5.73877 -1.26141,11.43882 -2.74075,16.99268 -1.14629,4.30351 -2.61343,8.52153 -4.38521,12.60748 l -3e-5,0"
       id="path3982"
       inkscape:path-effect="#path-effect3984"
       inkscape:original-d="m 141.97111,651.66381 c -4.99326,5.62041 -13.65612,6.31358 -20.28159,9.86671 -6.35175,3.40634 -12.78332,6.75818 -18.63713,10.96302 -2.94566,2.11589 -5.96984,4.28335 -8.222268,7.12597 -5.126536,6.46981 -8.325645,14.31078 -11.511171,21.92604 -3.478723,8.31617 -1.526799,19.72728 -8.222265,25.76309 -3.327039,2.99925 -9.131879,0.77247 -13.155624,2.74076 -4.30827,2.10747 -7.437285,6.06714 -10.96302,9.31857 -1.70961,1.5766 -3.309079,3.26897 -4.933359,4.93335 -3.700854,3.79222 -8.528764,6.80463 -10.963019,11.51118 -4.362447,8.43465 -7.119868,18.60209 -5.48151,27.9557 0.367634,2.09887 1.850211,3.9097 3.288906,5.48151 1.677972,1.83323 3.666261,3.61666 6.029661,4.3852 3.301453,1.07358 7.185088,-1.27306 10.414868,0 3.487872,1.37479 4.734393,6.29933 8.222265,7.67412 3.909734,1.54107 8.404982,0 12.607473,0 2.375321,0 7.125963,0 7.125963,0 0,0 11.060198,8.88227 17.540832,11.51117 4.482887,1.81851 9.428628,2.36792 14.251928,2.74075 5.10411,0.39454 10.2533,-1.04749 15.34823,-0.54815 3.1758,0.31125 6.12764,2.16867 9.31856,2.19261 7.66955,0.0575 14.88651,-3.8143 22.47419,-4.93336 4.71369,-0.69519 9.51857,-0.55094 14.25193,-1.0963 2.38747,-0.27508 7.12596,-1.09631 7.12596,-1.09631 0,0 0.43265,-39.837 0,-59.74845 -0.0914,-4.20547 -0.45677,-8.40201 -0.54815,-12.60748 -0.0199,-0.91337 -0.25186,-1.86257 0,-2.74075 0.95041,-3.3139 4.261,-5.5462 5.48151,-8.77042 1.18042,-3.11833 1.36944,-6.54381 1.64445,-9.86672 0.19592,-2.36723 -1.0869,-5.0139 0,-7.12596 0.71922,-1.39759 3.11784,-1.34316 3.83706,-2.74075 0.50165,-0.9748 0,-2.19261 0,-3.28891 0,-1.27902 -0.71706,-2.77795 0,-3.83706 1.10327,-1.62957 3.97174,-0.93033 5.48151,-2.1926 2.64488,-2.2113 3.48775,-5.95792 5.48151,-8.77042 3.38307,-4.77232 7.56058,-8.94525 10.96302,-13.70377 6.92824,-9.68958 13.62342,-19.61484 19.18529,-30.14831 0.64974,-1.23052 1.2805,-2.49396 1.64445,-3.83705 0.38529,-1.42183 0.45661,-2.91494 0.54815,-4.38521 0.12489,-2.006 -0.68421,-4.13982 0,-6.02966 0.48581,-1.34183 2.25494,-1.94708 2.74075,-3.28891 0.68421,-1.88984 -0.68422,-4.13982 0,-6.02966 0.48581,-1.34183 2.00997,-2.06316 2.74076,-3.28891 0.50388,-0.84515 0.91023,-1.77454 1.0963,-2.74075 0.44919,-2.33246 0.13339,-4.75439 0,-7.12596 -0.13479,-2.39652 -0.36761,-4.79584 -0.80745,-7.1555 -0.59338,-3.18332 -0.4418,-6.86647 -2.46176,-9.39735 -2.19122,-2.74544 -9.34811,-4.86443 -9.34811,-4.86443 0,0 2.15976,-7.24562 0.0985,-9.76497 -1.3516,-1.65196 -4.22786,-0.64993 -6.28896,-1.20462 -4.97198,-1.33806 -9.54189,-4.03922 -14.58016,-5.10075 -4.66627,-0.98315 -9.54802,-1.84775 -14.26178,-1.12585 -2.00409,0.30693 -3.6174,2.37241 -5.64234,2.27139 -4.97726,-0.2483 -8.49317,-8.43958 -13.24425,-6.93559 -8.61054,2.72572 -6.91687,16.91361 -12.3974,24.09238 -1.80492,2.3642 -4.88686,3.58265 -6.57781,6.02966 -1.67814,2.42847 -2.73069,5.32365 -3.28891,8.22227 -0.55285,2.87072 0,5.84694 0,8.77041 0,3.47162 0.27728,6.95434 0,10.41487 -0.45826,5.7191 -1.33616,11.42984 -2.74075,16.99268 -1.08928,4.31406 -1.43004,9.28114 -4.38521,12.60748 z"
       inkscape:connector-curvature="0"
       sodipodi:nodetypes="aaaaaaaaaaaaaaaacaaaaaacaaaaaaaaaaaaaaaaaaaaaaacaaaaaaaaaaaaa" />
    <path
       style="fill:#ff0000;stroke:none"
       inkscape:path-effect="#path-effect4025"
       inkscape:original-d="m 213.33928,504.81943 c -0.77633,-3.02748 -1.56437,-6.46981 -3.92921,-8.51331 -2.15332,-1.86072 -5.39326,-1.88248 -8.18873,-2.41579 -3.12274,-0.59574 -6.42163,-1.6583 -9.49846,-0.85856 -2.75313,0.7156 -4.40631,3.75797 -7.04937,4.80968 -6.01879,2.39495 -13.29622,0.381 -19.18922,3.07065 -1.53521,0.7007 -2.52436,2.24704 -3.87971,3.25246 -3.56034,2.64112 -8.58745,3.64552 -11.13279,7.27496 -3.098,4.4175 -2.49526,10.4987 -3.70933,15.75588 -1.20151,5.20279 -4.13915,10.3178 -3.53803,15.62358 0.51922,4.58289 5.95817,7.85717 5.99761,12.46921 0.0223,2.61362 -2.84852,4.54506 -3.27747,7.12334 -0.46288,2.78225 1.29913,5.63223 0.85742,8.41792 -0.46311,2.92065 -3.55986,5.15771 -3.58512,8.11474 -0.01,1.13939 0.46197,2.40915 1.32779,3.14986 1.37601,1.17717 4.8993,-0.46227 5.27226,1.30974 0.29948,1.4229 -2.71548,1.41432 -3.45044,2.66898 -0.54929,0.93769 0.01,2.25418 -0.47878,3.22485 -1.52698,3.03311 -5.48146,4.27683 -7.20356,7.20357 -0.80591,1.36966 -1.22392,2.99723 -1.30974,4.58409 -0.13157,2.43285 1.96532,4.87814 1.23835,7.20356 -0.54767,1.75189 -2.57939,2.61215 -3.85783,3.92922 -3.20156,3.29831 -8.22276,5.54821 -9.54797,9.94965 -1.46311,4.85948 3.29559,9.9365 2.72419,14.97919 -0.16072,1.41836 -1.74883,2.50873 -1.68953,3.93493 0.17398,4.18069 2.40621,8.77135 5.89383,11.08328 2.71419,1.79922 6.5546,1.58417 9.73071,0.86561 3.04536,-0.68898 6.23013,-2.23843 8.06428,-4.76525 1.32348,-1.8233 1.72189,-4.35959 1.46623,-6.59804 -0.35349,-3.09503 -4.17899,-5.31916 -4.03214,-8.43084 0.0672,-1.42333 1.1376,-2.71526 2.19935,-3.66557 2.40364,-2.15136 6.69552,-1.58511 8.79739,-4.03214 1.1592,-1.34955 1.21947,-3.36995 1.46623,-5.13181 0.30505,-2.17809 0.37537,-4.43096 0,-6.59804 -0.31001,-1.78977 -1.52278,-3.34204 -1.83279,-5.13181 -0.22939,-1.32433 -0.1784,-2.69999 0,-4.03214 0.18491,-1.38081 0.28509,-2.90197 1.09967,-4.03214 1.28796,-1.78696 4.16132,-1.91505 5.49837,-3.66558 1.17267,-1.53532 1.02552,-3.74318 1.83279,-5.49836 1.48853,-3.2364 4.00984,-5.92755 5.49837,-9.16395 0.80727,-1.75518 1.68167,-3.57236 1.83279,-5.49837 0.0581,-0.74095 -0.0265,-1.53849 -0.36656,-2.19935 -0.63255,-1.22916 -2.40345,-1.65531 -2.93246,-2.93246 -0.46759,-1.12885 -0.61328,-2.60878 0,-3.66558 0.49444,-0.85202 1.58301,-1.53203 2.5659,-1.46623 2.60905,0.17467 3.81156,3.77448 6.23149,4.76525 0.91165,0.37325 1.94927,0.30535 2.93246,0.36656 1.58535,0.0987 3.20703,0.30826 4.76525,0 2.20366,-0.43594 4.0713,-1.9497 6.23149,-2.56591 1.42943,-0.40776 3.07698,-0.0529 4.39869,-0.73311 1.07552,-0.55348 2.06348,-1.46561 2.56591,-2.56591 0.71235,-1.56002 0.51528,-3.42331 0.36655,-5.13181 -0.13108,-1.50566 -0.72167,-2.93537 -1.09967,-4.39869 -0.47441,-1.83655 -0.86855,-3.69816 -1.46623,-5.49837 -0.62199,-1.87342 -1.67934,-3.59412 -2.19935,-5.49837 -0.42336,-1.55034 -0.67727,-3.15912 -0.73311,-4.76525 -0.0511,-1.47043 -0.45831,-3.18035 0.36655,-4.3987 0.76586,-1.13121 2.33604,-1.51892 3.66558,-1.83278 1.07026,-0.25265 2.20379,0.0988 3.29902,0 1.36056,-0.12268 2.82209,-0.0991 4.03214,-0.73312 0.91836,-0.48118 2.59611,-1.24149 2.19935,-2.19935 -0.51434,-1.24174 -2.86255,0.66221 -4.03214,0 -1.23997,-0.70206 -1.69721,-2.33207 -2.19935,-3.66558 -0.48141,-1.27844 0.21392,-3.0476 -0.73311,-4.03213 -0.78095,-0.81186 -3.29902,-0.73312 -3.29902,-0.73312 0,0 2.09635,-1.42445 3.29902,-1.46623 1.42929,-0.0497 2.70234,0.93997 4.03214,1.46623 0.86525,0.34242 1.63688,1.1528 2.5659,1.09967 0.98349,-0.0562 2.07146,-0.61421 2.56591,-1.46623 0.79727,-1.37384 0.71036,-3.34453 0,-4.76525 -0.27322,-0.54643 -1.10902,-0.60406 -1.46624,-1.09967 -0.67777,-0.94036 -0.97755,-2.14631 -1.09967,-3.29902 -0.11656,-1.10029 -0.36155,-2.46592 0.36656,-3.29903 0.66304,-0.75867 1.96507,-0.45141 2.93246,-0.73311 0.37098,-0.10803 0.76629,-0.17123 1.09967,-0.36656 0.37191,-0.21791 0.79601,-0.47021 0.95648,-0.87028 0.40848,-1.01838 0.0435,-2.2209 -0.22902,-3.28376 z"
       id="path4011"
       d="m 213.33928,504.81943 c -0.50576,-1.50453 -0.84054,-3.06388 -1.38405,-4.55519 -0.5435,-1.49131 -1.32419,-2.94391 -2.54516,-3.95812 -1.10898,-0.92118 -2.51057,-1.42188 -3.91998,-1.72513 -1.40942,-0.30325 -2.85155,-0.42616 -4.26875,-0.69066 -1.58346,-0.29553 -3.13097,-0.76691 -4.71885,-1.0377 -1.58789,-0.27079 -3.25244,-0.33315 -4.77961,0.17914 -1.35493,0.45451 -2.52291,1.33279 -3.6233,2.24468 -1.10039,0.9119 -2.17177,1.88006 -3.42607,2.565 -1.44149,0.78716 -3.07521,1.16979 -4.70996,1.32823 -1.63476,0.15843 -3.2817,0.10092 -4.92351,0.0564 -1.64181,-0.0445 -3.29129,-0.0756 -4.92014,0.1351 -1.62884,0.21066 -3.24742,0.67318 -4.63561,1.55093 -1.42795,0.90289 -2.55506,2.20386 -3.87971,3.25246 -1.7491,1.3846 -3.80961,2.30535 -5.7921,3.32818 -1.9825,1.02282 -3.95334,2.19986 -5.34069,3.94678 -1.69905,2.13942 -2.35435,4.92091 -2.67544,7.63399 -0.32109,2.71308 -0.35884,5.47459 -1.03389,8.12189 -0.67251,2.63735 -1.95553,5.07369 -2.87992,7.63365 -0.46219,1.27998 -0.8363,2.59897 -0.98982,3.95116 -0.15351,1.35218 -0.0813,2.74209 0.33171,4.03877 0.71682,2.25047 2.3814,4.04542 3.78328,5.94626 0.70094,0.95042 1.34924,1.95165 1.78012,3.05117 0.43089,1.09952 0.63652,2.3083 0.43421,3.47178 -0.22533,1.29585 -0.93249,2.44961 -1.62866,3.56555 -0.69618,1.11595 -1.40923,2.2645 -1.64881,3.55779 -0.2587,1.39654 0.0587,2.82878 0.38797,4.21039 0.32924,1.38161 0.67418,2.80206 0.46945,4.20753 -0.2147,1.47397 -1.01274,2.78848 -1.79333,4.05709 -0.78058,1.26861 -1.57817,2.58352 -1.79179,4.05765 -0.0879,0.60639 -0.0711,1.23848 0.13867,1.81419 0.20974,0.57571 0.62768,1.09026 1.18912,1.33567 0.4609,0.20146 0.98347,0.21227 1.48332,0.15599 0.49984,-0.0563 0.99125,-0.17592 1.49192,-0.22434 0.50066,-0.0484 1.02469,-0.0208 1.47559,0.20219 0.22544,0.11147 0.42881,0.27151 0.57725,0.47454 0.14844,0.20302 0.24014,0.44989 0.24418,0.70136 0.003,0.19162 -0.0443,0.38268 -0.12765,0.55526 -0.0833,0.17259 -0.20197,0.32701 -0.34039,0.45955 -0.27685,0.26508 -0.62733,0.4402 -0.98397,0.58064 -0.35663,0.14044 -0.72534,0.25038 -1.07513,0.4071 -0.34979,0.15671 -0.68562,0.36573 -0.9233,0.66643 -0.17165,0.21715 -0.28645,0.47562 -0.35663,0.74338 -0.0702,0.26775 -0.0969,0.54526 -0.10435,0.82195 -0.0148,0.5534 0.0467,1.10969 -0.0178,1.65952 -0.10165,0.86705 -0.51596,1.67714 -1.07231,2.34988 -0.55636,0.67274 -1.2508,1.21838 -1.97376,1.7077 -1.44593,0.97865 -3.06377,1.78503 -4.15749,3.14599 -1.02159,1.2712 -1.48697,2.96293 -1.30974,4.58409 0.13408,1.22646 0.61161,2.38426 0.97209,3.56419 0.36048,1.17992 0.60508,2.45304 0.26626,3.63937 -0.25857,0.90534 -0.8427,1.69154 -1.53953,2.32472 -0.69684,0.63318 -1.50661,1.12736 -2.3183,1.6045 -2.05811,1.20983 -4.18243,2.34923 -5.97853,3.92197 -1.79611,1.57274 -3.26586,3.65969 -3.56944,6.02768 -0.16387,1.27821 0.0179,2.58084 0.3551,3.8246 0.33722,1.24377 0.82746,2.43963 1.29387,3.64093 0.46642,1.2013 0.91206,2.41818 1.15447,3.68384 0.2424,1.26567 0.27511,2.59083 -0.0793,3.82982 -0.39298,1.37405 -1.23911,2.57862 -1.68953,3.93493 -0.72282,2.17656 -0.34902,4.64313 0.7955,6.63059 1.14452,1.98745 3.0082,3.50863 5.09833,4.45269 3.0182,1.36324 6.49199,1.55746 9.73071,0.86561 3.12023,-0.66653 6.15057,-2.21225 8.06428,-4.76525 0.7011,-0.93531 1.24419,-1.99748 1.52139,-3.13304 0.27719,-1.13556 0.28217,-2.34583 -0.0552,-3.465 -0.45667,-1.51509 -1.49476,-2.77141 -2.39977,-4.06949 -0.45251,-0.64904 -0.87869,-1.32189 -1.18568,-2.05112 -0.30698,-0.72922 -0.49219,-1.52033 -0.44669,-2.31023 0.0424,-0.73637 0.28631,-1.45645 0.67453,-2.0836 0.38823,-0.62715 0.91832,-1.16222 1.52482,-1.58197 1.34473,-0.93068 2.99562,-1.27082 4.5717,-1.70721 0.78804,-0.2182 1.57198,-0.46671 2.30343,-0.83222 0.73145,-0.36552 1.41228,-0.85354 1.92226,-1.49271 0.56307,-0.70571 0.89828,-1.57011 1.09931,-2.45025 0.20104,-0.88015 0.27519,-1.78342 0.36692,-2.68156 0.22477,-2.20076 0.55458,-4.45647 0,-6.59804 -0.45611,-1.76132 -1.49004,-3.34497 -1.83279,-5.13181 -0.25406,-1.32449 -0.11432,-2.68835 0,-4.03214 0.0599,-0.70414 0.11297,-1.41157 0.26456,-2.1018 0.15159,-0.69024 0.40676,-1.36828 0.83511,-1.93034 0.6736,-0.88387 1.70779,-1.4054 2.71305,-1.87914 1.00526,-0.47374 2.05063,-0.95266 2.78532,-1.78644 0.64601,-0.73314 0.99506,-1.68157 1.22272,-2.63183 0.22765,-0.95026 0.34801,-1.92518 0.61007,-2.86653 0.47996,-1.72405 1.42013,-3.28324 2.44471,-4.75054 1.02458,-1.4673 2.14642,-2.8708 3.05366,-4.41341 0.98869,-1.68111 1.72077,-3.5513 1.83279,-5.49837 0.0432,-0.75148 -0.0135,-1.53459 -0.36656,-2.19935 -0.3263,-0.61432 -0.87614,-1.0749 -1.42377,-1.50382 -0.54762,-0.42893 -1.11731,-0.85359 -1.50869,-1.42864 -0.36404,-0.53488 -0.55451,-1.18375 -0.5502,-1.83074 0.004,-0.647 0.20162,-1.28976 0.5502,-1.83484 0.27722,-0.43349 0.65088,-0.80756 1.09436,-1.0685 0.44348,-0.26094 0.95706,-0.40654 1.47154,-0.39773 0.67077,0.0115 1.31823,0.28246 1.86599,0.6698 0.54776,0.38733 1.00565,0.88729 1.43511,1.40269 0.42945,0.5154 0.83608,1.05141 1.30396,1.53219 0.46789,0.48077 1.00445,0.90917 1.62643,1.16057 0.9186,0.37129 1.94232,0.33047 2.93246,0.36656 1.59245,0.058 3.20583,0.32786 4.76525,0 1.10255,-0.2318 2.12004,-0.75188 3.12028,-1.27041 1.00024,-0.51853 2.01247,-1.04627 3.11121,-1.2955 0.72716,-0.16494 1.47588,-0.20391 2.21822,-0.27385 0.74235,-0.0699 1.49158,-0.17395 2.18047,-0.45926 1.14433,-0.47394 2.0539,-1.4381 2.56591,-2.56591 0.72004,-1.58606 0.67614,-3.41769 0.36655,-5.13181 -0.2687,-1.48775 -0.72452,-2.93415 -1.09967,-4.39869 -0.47095,-1.83853 -0.81724,-3.71489 -1.46623,-5.49837 -0.67553,-1.8564 -1.6729,-3.59432 -2.19935,-5.49837 -0.42874,-1.55066 -0.53327,-3.16887 -0.73311,-4.76525 -0.0933,-0.74564 -0.20812,-1.49246 -0.19473,-2.24381 0.0134,-0.75134 0.16306,-1.51762 0.56128,-2.15489 0.37597,-0.60166 0.95804,-1.05886 1.6038,-1.3527 0.64575,-0.29384 1.35397,-0.43163 2.06178,-0.48008 1.09752,-0.0751 2.20051,0.0589 3.29902,0 1.36588,-0.0733 2.69554,-0.44245 4.03214,-0.73312 0.58964,-0.12823 1.20468,-0.25111 1.68701,-0.61371 0.24117,-0.1813 0.44259,-0.42272 0.54602,-0.70615 0.10343,-0.28342 0.10216,-0.61009 -0.0337,-0.87949 -0.0817,-0.16198 -0.20903,-0.2993 -0.3593,-0.40094 -0.15026,-0.10164 -0.32293,-0.16823 -0.50091,-0.20332 -0.35597,-0.0702 -0.72605,-0.0153 -1.07491,0.0844 -0.34885,0.0997 -0.68348,0.2434 -1.02841,0.35593 -0.34493,0.11253 -0.70706,0.19431 -1.06861,0.16397 -0.3911,-0.0328 -0.76593,-0.19824 -1.07186,-0.4441 -0.30592,-0.24587 -0.54467,-0.56963 -0.71507,-0.92318 -0.3408,-0.70711 -0.40822,-1.51336 -0.41242,-2.2983 -0.004,-0.69709 0.0378,-1.39655 -0.0349,-2.08984 -0.0727,-0.6933 -0.26942,-1.39267 -0.69821,-1.94229 -0.37553,-0.48134 -0.9219,-0.82654 -1.51786,-0.95897 -0.59596,-0.13244 -1.23712,-0.0511 -1.78116,0.22585 0.83392,-0.91559 2.0606,-1.46077 3.29902,-1.46623 1.45057,-0.006 2.81036,0.68428 4.03214,1.46623 0.39741,0.25434 0.78875,0.52094 1.21153,0.73043 0.42277,0.20948 0.8826,0.36152 1.35437,0.36924 0.51136,0.008 1.01766,-0.1552 1.45364,-0.42254 0.43599,-0.26735 0.80454,-0.63521 1.11227,-1.04369 0.52421,-0.69584 0.88281,-1.53408 0.9176,-2.40458 0.0348,-0.87051 -0.27754,-1.76964 -0.9176,-2.36067 -0.44956,-0.41513 -1.03501,-0.66553 -1.46624,-1.09967 -0.41599,-0.41879 -0.65935,-0.9816 -0.80437,-1.55379 -0.14503,-0.57218 -0.20037,-1.16263 -0.2953,-1.74523 -0.0929,-0.56991 -0.22432,-1.13853 -0.21761,-1.71591 0.003,-0.28869 0.0419,-0.57859 0.13505,-0.85187 0.0931,-0.27328 0.24225,-0.52985 0.44912,-0.73125 0.36832,-0.35859 0.88854,-0.5168 1.39795,-0.58564 0.50942,-0.0688 1.02782,-0.0608 1.53451,-0.14747 0.38245,-0.0654 0.75663,-0.18524 1.09967,-0.36656 0.3861,-0.20408 0.73687,-0.4928 0.95648,-0.87028 0.28519,-0.49021 0.32686,-1.09051 0.24104,-1.65111 -0.0858,-0.56059 -0.28935,-1.09508 -0.47006,-1.63265"
       inkscape:connector-curvature="0"
       sodipodi:nodetypes="asssscsaaaaaaaaaaaaaaasssaaaaaaaaaaaaaaaaaaaaaaaaaaaaaaaaaaaaaaacaaaaaaaaaaaa" />
    <path
       style="fill:#000000;stroke:none"
       inkscape:path-effect="#path-effect3079"
       inkscape:original-d="m 221.38063,627.80055 c 0,0 0.12605,8.9416 -0.91828,13.24077 -0.73493,3.02545 -3.70048,8.57599 -3.70048,8.57599 0,0 5.27808,-2.09338 7.85844,-3.27435 1.77534,-0.81253 3.69676,-1.42212 5.23896,-2.61947 3.42251,-2.6572 6.76112,-5.8602 8.5133,-9.82305 0.6393,-1.44589 0.39705,-3.13706 0.56083,-4.70947 0.29082,-2.79199 0.39309,-5.60347 0.74891,-8.38792 0.33662,-2.63419 0.83098,-5.24634 1.30974,-7.85844 0.40133,-2.18966 0.70935,-4.40506 1.30974,-6.5487 0.68909,-2.46034 1.06424,-5.17641 2.61948,-7.20356 1.62192,-2.11407 6.5487,-4.58409 6.5487,-4.58409 0,0 0.50122,2.71918 0,3.92922 -0.47255,1.14084 -1.74017,1.14767 -2.26529,2.26528 -0.57319,1.21992 -0.73006,4.38028 -0.73006,4.38028 0,0 3.72678,0.93292 5.52079,1.60766 1.15945,0.43608 2.19582,1.96931 3.36838,1.56982 1.79691,-0.61221 1.16885,-3.83235 2.61948,-5.05683 0.70047,-0.59127 1.83715,-1.3147 2.61948,-0.837 1.13324,0.69197 0.75873,2.60548 0.65487,3.92922 -0.10799,1.37636 -1.14106,2.55898 -1.30974,3.92922 -0.34775,2.82483 2.05717,6.03659 0.65487,8.51331 -0.24049,0.42475 -0.71047,1.29536 -1.13264,1.54036 -0.68073,0.39504 -2.14171,-0.81543 -2.14171,-0.81543 0,0 -0.63507,6.96222 -1.30974,9.75298 -0.48662,2.01289 -1.0746,4.02395 -1.9646,5.89383 -1.22319,2.5699 -3.11357,4.76673 -4.58409,7.20357 -2.07842,3.4442 -3.72138,7.15445 -5.98787,10.47791 -1.73687,2.54686 -3.88678,4.78621 -5.79979,7.20357 -4.63348,5.85507 -7.73779,13.25686 -13.75226,17.68148 -4.50699,3.31563 -10.26503,4.63535 -15.71687,5.89383 -4.48684,1.03572 -9.55056,3.19392 -13.75227,1.30974 -3.70496,-1.66142 -5.5749,-6.10357 -7.20356,-9.82305 -3.65756,-8.35299 -4.5599,-17.75631 -5.23896,-26.84966 -0.53157,-7.11821 0.93387,-21.39372 0.93387,-21.39372 0,0 20.11201,-6.16314 24.29699,-8.11613 4.18499,-1.95299 5.57999,3.06899 10.32297,3.62699 4.74298,0.558 1.80841,5.37584 1.80841,5.37584 z"
       id="path3077"
       d="m 221.38063,627.80055 c 0.57506,4.41616 0.26089,8.94627 -0.91828,13.24077 -0.82704,3.01206 -2.07653,5.90779 -3.70048,8.57599 2.64854,-1.01988 5.26931,-2.11187 7.85844,-3.27435 1.78201,-0.8001 3.55178,-1.63502 5.23896,-2.61947 1.92138,-1.12111 3.74192,-2.44412 5.25159,-4.07798 1.50966,-1.63386 2.70236,-3.592 3.26171,-5.74507 0.39821,-1.53281 0.47051,-3.12835 0.56083,-4.70947 0.16012,-2.80317 0.38322,-5.6041 0.74891,-8.38792 0.34592,-2.63334 0.81901,-5.24821 1.30974,-7.85844 0.41133,-2.18788 0.83524,-4.37365 1.30974,-6.5487 0.54795,-2.51175 1.18853,-5.06778 2.61948,-7.20356 1.51747,-2.26492 3.90119,-3.93352 6.5487,-4.58409 0.39275,0.5744 0.60745,1.26877 0.60745,1.96461 0,0.69584 -0.2147,1.39021 -0.60745,1.96461 -0.60411,0.88352 -1.57961,1.44346 -2.26529,2.26528 -0.49712,0.59581 -0.83204,1.32564 -0.95961,2.09104 -0.12757,0.76541 -0.0474,1.5644 0.22955,2.28924 1.95394,-0.17384 3.96566,0.41197 5.52079,1.60766 0.51122,0.39306 0.97603,0.8498 1.52595,1.1866 0.27495,0.1684 0.57119,0.30597 0.88486,0.38062 0.31367,0.0747 0.64577,0.0847 0.95757,0.003 0.47932,-0.12625 0.8842,-0.46457 1.16467,-0.87326 0.28046,-0.40869 0.447,-0.88504 0.56756,-1.36582 0.12056,-0.48079 0.19821,-0.97153 0.31891,-1.45228 0.1207,-0.48075 0.28752,-0.95703 0.56834,-1.36547 0.28379,-0.41275 0.68734,-0.74985 1.16,-0.91567 0.47266,-0.16582 1.01422,-0.15077 1.45948,0.0787 0.32386,0.16688 0.58772,0.44013 0.76588,0.75793 0.17816,0.31781 0.27291,0.67868 0.29994,1.04201 0.0541,0.72666 -0.1563,1.44656 -0.41095,2.12928 -0.48393,1.29742 -1.14223,2.55466 -1.30974,3.92922 -0.17371,1.42537 0.19509,2.85312 0.50353,4.25552 0.30844,1.4024 0.55656,2.88024 0.15134,4.25779 -0.0926,0.31493 -0.2198,0.62222 -0.40526,0.89308 -0.18546,0.27086 -0.4317,0.50468 -0.72738,0.64728 -0.38509,0.18572 -0.84686,0.2055 -1.24641,0.0534 -0.39955,-0.15212 -0.73124,-0.474 -0.8953,-0.8688 -0.13295,3.28222 -0.57205,6.55197 -1.30974,9.75298 -0.46607,2.02239 -1.05528,4.02824 -1.9646,5.89383 -1.24807,2.56057 -3.06585,4.79336 -4.58409,7.20357 -2.14514,3.40544 -3.69482,7.17026 -5.98787,10.47791 -1.75691,2.53429 -3.92136,4.75799 -5.79979,7.20357 -2.28784,2.97861 -4.13635,6.26597 -6.22037,9.39059 -2.08401,3.12462 -4.45517,6.13679 -7.53189,8.29089 -4.60645,3.22511 -10.34088,4.24476 -15.71687,5.89383 -2.25499,0.69171 -4.48306,1.50838 -6.80708,1.91133 -2.32402,0.40296 -4.79448,0.36685 -6.94519,-0.60159 -1.90466,-0.85764 -3.44219,-2.3981 -4.58489,-4.14668 -1.14269,-1.74858 -1.92041,-3.70769 -2.61867,-5.67637 -3.05857,-8.62339 -4.733,-17.71392 -5.23896,-26.84966 -0.39537,-7.13875 -0.082,-14.31657 0.93387,-21.39372 6.93379,-5.23958 15.60618,-8.1365 24.29699,-8.11613 1.88412,0.004 3.78552,0.14481 5.59089,0.68385 1.80538,0.53903 3.51996,1.50068 4.73208,2.94314 1.24518,1.4818 1.90483,3.44273 1.80841,5.37584"
       inkscape:connector-curvature="0"
       sodipodi:nodetypes="cscsssssssscsscsssssssccsssssssssscssc" />
    <path
       style="fill:#000000;stroke:none"
       d="m 160.55235,573.63758 c -0.42812,-0.33968 -0.6777,-0.86943 -0.75872,-1.40989 -0.081,-0.54047 -0.007,-1.09345 0.12153,-1.62467 0.12833,-0.53122 0.31026,-1.04803 0.44939,-1.57653 0.13913,-0.5285 0.23565,-1.07599 0.1878,-1.62039 -0.0748,-0.85157 -0.50067,-1.64104 -1.05057,-2.29556 -0.54991,-0.65451 -1.22261,-1.1924 -1.88189,-1.73658 -1.53487,-1.26691 -3.02333,-2.59363 -4.39869,-4.03213 -1.19532,-1.2502 -2.31095,-2.59004 -3.66558,-3.66558 -1.7212,-1.36659 -3.77262,-2.25993 -5.86493,-2.93246 -0.48198,-0.15492 -0.9726,-0.29992 -1.4778,-0.33284 -0.50519,-0.0329 -1.03183,0.0544 -1.45466,0.33284 -0.43906,0.28913 -0.73418,0.76657 -0.86654,1.27534 -0.13237,0.50878 -0.11248,1.04759 -0.0154,1.56425 0.19425,1.03333 0.68774,1.99199 0.8819,3.02533 0.1476,0.78556 0.11819,1.59185 0.11217,2.39113 -0.006,0.79928 0.0139,1.61184 0.25439,2.37412 0.19921,0.63154 0.54255,1.2057 0.84767,1.79342 0.30512,0.58773 0.57855,1.21116 0.61856,1.87216 0.0285,0.47074 -0.0637,0.94343 -0.22298,1.38732 -0.15929,0.44389 -0.38454,0.86127 -0.62791,1.26523 -0.48675,0.80791 -1.05559,1.58267 -1.34846,2.47926 -0.26751,0.81894 -0.28973,1.69845 -0.23185,2.55802 0.0579,0.85957 0.19318,1.71314 0.23185,2.57379 0.035,0.77916 -0.009,1.56425 0.10421,2.33592 0.0566,0.38584 0.1532,0.76774 0.31388,1.12308 0.16067,0.35533 0.38711,0.68403 0.68158,0.9397 0.54018,0.469 1.28335,0.66382 1.99776,0.62675 0.71441,-0.0371 1.40356,-0.28938 2.03438,-0.62675 0.77787,-0.41601 1.49287,-0.96755 2.33211,-1.23927 0.41962,-0.13586 0.86943,-0.19788 1.30456,-0.1258 0.43514,0.0721 0.85451,0.28637 1.12858,0.63195 0.21222,0.26758 0.32917,0.59952 0.39632,0.93437 0.0671,0.33486 0.0879,0.677 0.12899,1.01605 0.041,0.33904 0.1039,0.68009 0.24885,0.98933 0.14494,0.30924 0.38016,0.58673 0.69207,0.72583 0.29377,0.131 0.63168,0.13013 0.94729,0.068 0.3156,-0.0621 0.6164,-0.18171 0.92172,-0.28292 0.30531,-0.10121 0.62269,-0.18511 0.94406,-0.17163 0.16069,0.007 0.32114,0.0382 0.46891,0.10174 0.14776,0.0635 0.28259,0.15961 0.3836,0.28476 0.18346,0.2273 0.24323,0.53394 0.22938,0.82571 -0.0138,0.29177 -0.0943,0.57559 -0.16384,0.85929 -0.0696,0.28369 -0.129,0.57552 -0.0998,0.86616 0.0146,0.14532 0.0517,0.2892 0.11791,0.41939 0.0662,0.13018 0.16212,0.2464 0.28293,0.32847 0.15516,0.10541 0.34528,0.15079 0.53279,0.15591 0.18751,0.005 0.37395,-0.0279 0.55718,-0.068 0.18322,-0.0402 0.36522,-0.0878 0.55114,-0.11266 0.18593,-0.0249 0.37777,-0.0264 0.55824,0.0248 0.18249,0.0517 0.34833,0.15679 0.47965,0.29366 0.13131,0.13688 0.22858,0.30487 0.29051,0.48416 0.12384,0.35857 0.10565,0.75382 0.0161,1.12245 -0.1792,0.73726 -0.62991,1.38942 -0.78621,2.13187 -0.12921,0.61374 -0.0473,1.2605 0.16793,1.8496 0.21525,0.5891 0.55925,1.12436 0.95354,1.61211 0.78858,0.97551 1.78112,1.77412 2.54411,2.76977 0.68923,0.89939 1.19212,1.95938 2.05116,2.69829 0.42952,0.36946 0.95032,0.65 1.51244,0.72075 0.28106,0.0354 0.56983,0.0175 0.84145,-0.0629 0.27163,-0.0804 0.52561,-0.22421 0.72676,-0.42368 0.29288,-0.29043 0.46336,-0.6873 0.53923,-1.09272 0.0759,-0.40543 0.0633,-0.82208 0.0323,-1.23338 -0.031,-0.4113 -0.08,-0.82212 -0.0762,-1.23457 0.004,-0.41244 0.0628,-0.83107 0.23774,-1.20459 0.17957,-0.38335 0.47591,-0.70499 0.81989,-0.95174 0.34397,-0.24676 0.73491,-0.42182 1.13611,-0.55689 0.8024,-0.27013 1.65284,-0.38585 2.4427,-0.69071 1.1456,-0.44216 2.1035,-1.25731 3.00633,-2.08966 0.90282,-0.83234 1.78843,-1.70684 2.85859,-2.30904 1.62617,-0.91508 3.55466,-1.13351 5.25127,-1.91022 0.84831,-0.38835 1.64742,-0.92927 2.20007,-1.68094 0.27633,-0.37584 0.48776,-0.80167 0.59999,-1.25446 0.11222,-0.45279 0.12365,-0.9327 0.013,-1.38586 -0.16906,-0.69209 -0.61382,-1.29236 -1.14883,-1.76283 -0.53501,-0.47046 -1.16021,-0.82481 -1.78364,-1.16964 -0.96402,-0.53321 -1.9411,-1.05444 -2.98225,-1.41451 -1.04116,-0.36007 -2.15612,-0.55522 -3.24923,-0.41827 -1.01923,0.12769 -1.98365,0.53735 -2.99659,0.70788 -0.50647,0.0853 -1.02873,0.10963 -1.53206,0.007 -0.50333,-0.10218 -0.9882,-0.33767 -1.33628,-0.71533 -0.35726,-0.38761 -0.5507,-0.89772 -0.68717,-1.40689 -0.13647,-0.50917 -0.22495,-1.03293 -0.4125,-1.52558 -0.32621,-0.85688 -0.95537,-1.59418 -1.74808,-2.0549 -0.79272,-0.46072 -1.7432,-0.64244 -2.65061,-0.511 -0.81962,0.11873 -1.58337,0.4796 -2.38768,0.67698 -0.40215,0.0987 -0.81834,0.15639 -1.23079,0.11958 -0.41244,-0.0368 -0.8224,-0.17264 -1.14679,-0.43001"
       id="path4013"
       inkscape:path-effect="#path-effect4015"
       inkscape:original-d="m 160.55235,573.63758 c -1.52406,-1.41133 0.64235,-4.25614 0,-6.23148 -0.51393,-1.58045 -1.82564,-2.79242 -2.93246,-4.03214 -1.32468,-1.48374 -2.962,-2.65655 -4.39869,-4.03213 -1.24812,-1.19503 -2.26378,-2.65522 -3.66558,-3.66558 -1.77316,-1.27802 -3.73767,-2.43028 -5.86493,-2.93246 -0.95134,-0.22458 -2.24127,-0.69119 -2.93246,0 -1.38237,1.38237 -0.075,3.91139 0,5.86492 0.0611,1.59194 0.005,3.2136 0.36656,4.76525 0.29827,1.28174 1.48228,2.34969 1.46623,3.66558 -0.0227,1.86094 -1.82515,3.30874 -2.19935,5.13181 -0.34394,1.67567 -0.20901,3.43402 0,5.13181 0.18466,1.50003 -0.0916,3.46859 1.09967,4.3987 1.05938,0.82714 2.69201,0.10248 4.03214,0 1.60243,-0.12254 3.36963,-1.53001 4.76525,-0.73312 1.14281,0.65254 0.37651,2.9278 1.46623,3.66558 1.01178,0.68501 2.75514,-0.81488 3.66558,0 0.82444,0.73791 -0.45788,2.56111 0.36656,3.29902 0.54627,0.48893 1.68096,-0.51839 2.19935,0 0.95038,0.95038 -0.35314,2.73531 0,4.03214 0.63318,2.32521 1.95085,4.53819 3.66558,6.23148 1.40187,1.38435 3.35733,3.78855 5.13181,2.93247 1.44746,-0.69831 -0.21358,-3.46658 0.73311,-4.76526 0.96565,-1.32469 3.00423,-1.33751 4.3987,-2.19934 2.07875,-1.28474 3.92054,-2.91844 5.86492,-4.3987 2.70296,-2.05777 7.84784,-2.84126 8.06428,-6.23148 0.0881,-1.37957 -1.74376,-2.22682 -2.93247,-2.93247 -1.8618,-1.10523 -4.08845,-1.52417 -6.23148,-1.83278 -1.93502,-0.27866 -4.25809,1.11355 -5.86493,0 -0.85806,-0.59463 -0.42654,-2.13451 -1.09967,-2.93247 -1.0945,-1.29747 -2.74426,-2.18611 -4.39869,-2.5659 -1.55272,-0.35645 -3.59636,1.44899 -4.76526,0.36655 z"
       inkscape:connector-curvature="0"
       sodipodi:nodetypes="aaaaaaaaaaaaaaaaaaaaaaaaaaaaaaaa" />
  </g>
</svg>
