<?xml version="1.0" encoding="UTF-8" standalone="no"?>
<!-- Created with Inkscape (http://www.inkscape.org/) -->

<svg
   xmlns:dc="http://purl.org/dc/elements/1.1/"
   xmlns:cc="http://creativecommons.org/ns#"
   xmlns:rdf="http://www.w3.org/1999/02/22-rdf-syntax-ns#"
   xmlns:svg="http://www.w3.org/2000/svg"
   xmlns="http://www.w3.org/2000/svg"
   xmlns:xlink="http://www.w3.org/1999/xlink"
   xmlns:sodipodi="http://sodipodi.sourceforge.net/DTD/sodipodi-0.dtd"
   xmlns:inkscape="http://www.inkscape.org/namespaces/inkscape"
   width="210mm"
   height="297mm"
   id="svg3947"
   version="1.1"
   inkscape:version="0.48.4 r9939"
   sodipodi:docname="New document 10">
  <defs
     id="defs3">
    <inkscape:path-effect
       effect="spiro"
       id="path-effect4520"
       is_visible="true" />
    <inkscape:path-effect
       effect="spiro"
       id="path-effect4514"
       is_visible="true" />
    <inkscape:path-effect
       effect="spiro"
       id="path-effect4510"
       is_visible="true" />
    <inkscape:path-effect
       effect="spiro"
       id="path-effect4506"
       is_visible="true" />
    <inkscape:path-effect
       effect="spiro"
       id="path-effect4502"
       is_visible="true" />
    <inkscape:path-effect
       effect="spiro"
       id="path-effect3990"
       is_visible="true" />
    <inkscape:path-effect
       effect="spiro"
       id="path-effect3986"
       is_visible="true" />
    <inkscape:path-effect
       effect="spiro"
       id="path-effect3982"
       is_visible="true" />
    <inkscape:path-effect
       effect="spiro"
       id="path-effect4520-8"
       is_visible="true" />
  </defs>
  <sodipodi:namedview
     inkscape:document-units="mm"
     id="base"
     pagecolor="#ffffff"
     bordercolor="#666666"
     borderopacity="1.0"
     inkscape:pageopacity="0.0"
     inkscape:pageshadow="2"
     inkscape:zoom="0.35"
     inkscape:cx="483.29161"
     inkscape:cy="324.21703"
     inkscape:current-layer="layer6"
     showgrid="false"
     inkscape:window-width="1366"
     inkscape:window-height="744"
     inkscape:window-x="-4"
     inkscape:window-y="-4"
     inkscape:window-maximized="1" />
  <metadata
     id="metadata4">
    <rdf:RDF>
      <cc:Work
         rdf:about="">
        <dc:format>image/svg+xml</dc:format>
        <dc:type
           rdf:resource="http://purl.org/dc/dcmitype/StillImage" />
        <dc:title></dc:title>
      </cc:Work>
    </rdf:RDF>
  </metadata>
  <g
     inkscape:groupmode="layer"
     id="layer6"
     inkscape:label="INFRABASE"
     style="display:none">
    <image
       y="14.647882"
       x="-11.642848"
       id="image3961"
       xlink:href="file:///F:/fond-affiches_chaumont/MLAC_000081_E_1/PLE/A2041_P.JPG"
       height="1024"
       width="789" />
  </g>
  <g
     inkscape:groupmode="layer"
     id="layer5"
     inkscape:label="BASE">
    <path
       style="fill:#0000ff;stroke:#000000;stroke-width:1px;stroke-linecap:butt;stroke-linejoin:miter;stroke-opacity:1"
       d="m 62.857143,55.219325 634.285717,14.285715 -5.71429,908.57143 -294.28571,2.85714 0,-17.14286 -225.71429,-14.28571 2.85714,25.71429 -125.714281,0 z"
       id="path4565"
       inkscape:connector-curvature="0" />
  </g>
  <g
     inkscape:label="Layer 1"
     inkscape:groupmode="layer"
     id="layer1">
    <path
       style="fill:#00ff00;stroke:#000000;stroke-width:1px;stroke-linecap:butt;stroke-linejoin:miter;stroke-opacity:1;fill-opacity:1"
       d="m 180.81731,558.39759 -22.22336,-23.23351 c -12.0772,8.35204 -23.87134,17.11339 -35.35534,26.26397 -10.48771,8.35672 -20.71654,17.03765 -31.314728,25.25381 -10.118901,7.8446 -20.569579,15.26121 -31.314729,22.22336 l 18.182746,13.13198 35.355341,43.43656 18.18274,19.1929 67.68022,-10.10153 -19.19289,-116.16754"
       id="path3984"
       inkscape:path-effect="#path-effect3986"
       inkscape:original-d="m 180.81731,558.39759 c -2.02031,-6.06092 -22.22336,-23.23351 -22.22336,-23.23351 l -35.35534,26.26397 -31.314728,25.25381 -31.314729,22.22336 18.182746,13.13198 35.355341,43.43656 18.18274,19.1929 67.68022,-10.10153 z"
       inkscape:connector-curvature="0" />
    <path
       style="fill:#00ff00;stroke:#000000;stroke-width:1px;stroke-linecap:butt;stroke-linejoin:miter;stroke-opacity:1;fill-opacity:1"
       d="M 197.9899,673.55498 64.649763,695.77833 c 1.904842,15.46389 3.588659,30.95501 5.050763,46.46702 1.807989,19.18164 3.276854,38.39387 5.050762,57.5787 5.166639,55.87725 12.922212,111.51505 23.233509,166.67517 33.243693,-5.33235 66.586383,-10.04748 100.005103,-14.14214 14.13629,-1.73206 28.28595,-3.35308 42.42641,-5.05076 18.5359,-2.22539 37.05599,-4.58249 55.55839,-7.07107 L 283.85287,806.89511 222.23356,825.07786 197.9899,673.55498"
       id="path3988"
       inkscape:path-effect="#path-effect3990"
       inkscape:original-d="m 197.9899,673.55498 -133.340137,22.22335 5.050763,46.46702 5.050762,57.5787 23.233509,166.67517 100.005103,-14.14214 42.42641,-5.05076 55.55839,-7.07107 -12.12183,-133.34014 -61.61931,18.18275 z"
       inkscape:connector-curvature="0" />
    <path
       style="fill:#00ff00;stroke:#000000;stroke-width:1px;stroke-linecap:butt;stroke-linejoin:miter;stroke-opacity:1;fill-opacity:1"
       d="m 560.63466,279.59549 16.16244,-90.91373 c 10.40611,2.49641 20.8456,4.85372 31.31473,7.07106 31.41834,6.65435 63.10375,12.04761 94.95434,16.16244 l -20.20305,137.38075 -4.04061,15.15229 c -1.11015,8.0683 -2.12041,16.15035 -3.03046,24.24366 -3.54533,31.52946 -5.56876,63.23 -6.06091,94.95434 -0.0557,3.5901 -0.21678,7.21488 -1.18827,10.67148 -0.97149,3.45661 -2.68361,6.68551 -4.87265,9.53157 -3.67306,4.77549 -8.64709,8.54015 -14.24064,10.7782 -5.59355,2.23806 -11.7916,2.94351 -17.74503,2.0197 -5.95343,-0.92381 -11.64624,-3.47439 -16.29852,-7.30231 -4.65227,-3.82793 -8.25153,-8.92292 -10.30466,-14.58696 L 560.63466,279.59549"
       id="path4500"
       inkscape:path-effect="#path-effect4502"
       inkscape:original-d="m 560.63466,279.59549 16.16244,-90.91373 31.31473,7.07106 94.95434,16.16244 -20.20305,137.38075 -4.04061,15.15229 -3.03046,24.24366 -6.06091,94.95434 c 0,0 -2.02031,20.20305 -6.06092,20.20305 -4.04061,0 -58.58885,-9.09137 -58.58885,-9.09137 z"
       inkscape:connector-curvature="0" />
    <path
       style="fill:#00ff00;stroke:#000000;stroke-width:1px;stroke-linecap:butt;stroke-linejoin:miter;stroke-opacity:1;fill-opacity:1"
       d="m 670.74129,462.4331 31.31473,25.25381 -85.86297,88.89342 -15.15229,-100.0051 69.70053,-14.14213"
       id="path4504"
       inkscape:path-effect="#path-effect4506"
       inkscape:original-d="m 670.74129,462.4331 31.31473,25.25381 -85.86297,88.89342 -15.15229,-100.0051 z"
       inkscape:connector-curvature="0" />
    <path
       style="fill:#00ff00;stroke:#000000;stroke-width:1px;stroke-linecap:butt;stroke-linejoin:miter;stroke-opacity:1;fill-opacity:1"
       d="m 481.84276,767.49916 -7.07106,55.55839 -26.26397,122.22846 c 28.64744,4.20196 57.26915,8.5794 85.86297,13.13199 22.57781,3.59475 45.13824,7.29869 67.68022,11.11167 1.98052,-12.8015 4.00083,-25.59685 6.06091,-38.38579 6.35622,-39.45934 13.09099,-78.85771 20.20305,-118.18785 l 13.13199,-44.44671 -79.80205,-17.1726 -79.80206,16.16244"
       id="path4508"
       inkscape:path-effect="#path-effect4510"
       inkscape:original-d="m 481.84276,767.49916 -7.07106,55.55839 -26.26397,122.22846 85.86297,13.13199 67.68022,11.11167 c 0,0 6.06091,-33.33503 6.06091,-38.38579 0,-5.05077 20.20305,-118.18785 20.20305,-118.18785 l 13.13199,-44.44671 -79.80205,-17.1726 z"
       inkscape:connector-curvature="0" />
    <path
       style="fill:#00ff00;stroke:#000000;stroke-width:1px;stroke-linecap:butt;stroke-linejoin:miter;stroke-opacity:1;fill-opacity:1"
       d="m 478.81231,806.89511 c -12.68493,21.15328 -25.8209,42.03609 -39.39595,62.62946 -7.60736,11.54037 -15.3526,22.98986 -23.23351,34.34519 -18.71004,-6.81804 -37.5725,-13.2178 -56.56854,-19.1929 -18.39993,-5.78759 -36.92518,-11.17676 -55.55839,-16.16244 l -16.16244,-18.18275 -4.04061,-20.20305 25.25381,-30.30457 171.72593,-29.29443 -2.0203,36.36549"
       id="path4512"
       inkscape:path-effect="#path-effect4514"
       inkscape:original-d="m 478.81231,806.89511 -39.39595,62.62946 -23.23351,34.34519 -56.56854,-19.1929 -55.55839,-16.16244 -16.16244,-18.18275 -4.04061,-20.20305 25.25381,-30.30457 171.72593,-29.29443 z"
       inkscape:connector-curvature="0" />
  </g>
  <g
     inkscape:groupmode="layer"
     id="layer4"
     inkscape:label="TOP">
    <path
       style="fill:#00ff00;stroke:#000000;stroke-width:1px;stroke-linecap:butt;stroke-linejoin:miter;stroke-opacity:1;fill-opacity:1"
       d="m 130.30968,273.53457 124.24876,-32.32488 c 15.86731,-2.80766 31.69512,-5.83851 47.47717,-9.09137 12.80657,-2.63958 25.58262,-5.42524 38.3858,-8.08122 23.1507,-4.80254 46.38941,-9.18085 69.70052,-13.13199 l 39.39595,-13.13198 93.94419,-17.17259 c 17.53851,95.81427 36.05927,191.44874 55.55839,286.88332 5.14339,25.17329 10.35764,50.34833 14.14214,75.76144 2.60234,17.47482 4.52592,35.04469 7.07106,52.52793 1.77043,12.16155 3.84116,24.27787 6.06092,36.36549 6.47925,35.28254 14.23046,70.33148 23.23351,105.05587 -30.29796,6.09392 -60.60256,12.15484 -90.91373,18.18274 -42.42272,8.43649 -84.85829,16.8083 -127.27922,25.25382 -51.8766,10.32804 -103.73126,20.76632 -155.5635,31.31473 l -51.51777,14.14213 -3.03046,-29.29442 -13.13199,-36.36549 -2.0203,-39.39595 c -2.25428,-13.15015 -4.6114,-26.28267 -7.07107,-39.39595 -3.90913,-20.84088 -8.07897,-41.64313 -11.11168,-62.62946 -3.01069,-20.834 -4.89648,-41.82136 -8.08122,-62.62946 -3.88693,-25.39602 -9.69809,-50.45697 -14.14213,-75.76144 -4.41527,-25.14065 -7.47677,-50.49616 -11.11168,-75.76144 -6.34047,-44.0709 -14.43017,-87.8901 -24.24366,-131.31983"
       id="path3980"
       inkscape:path-effect="#path-effect3982"
       inkscape:original-d="m 130.30968,273.53457 124.24876,-32.32488 47.47717,-9.09137 38.3858,-8.08122 69.70052,-13.13199 39.39595,-13.13198 93.94419,-17.17259 55.55839,286.88332 14.14214,75.76144 7.07106,52.52793 6.06092,36.36549 23.23351,105.05587 -90.91373,18.18274 -127.27922,25.25382 -155.5635,31.31473 -51.51777,14.14213 -3.03046,-29.29442 -13.13199,-36.36549 -2.0203,-39.39595 -7.07107,-39.39595 -11.11168,-62.62946 -8.08122,-62.62946 -14.14213,-75.76144 -11.11168,-75.76144 z"
       inkscape:connector-curvature="0" />
  </g>
</svg>
