<?xml version="1.0" encoding="UTF-8" standalone="no"?>
<!-- Created with Inkscape (http://www.inkscape.org/) -->

<svg
   xmlns:dc="http://purl.org/dc/elements/1.1/"
   xmlns:cc="http://creativecommons.org/ns#"
   xmlns:rdf="http://www.w3.org/1999/02/22-rdf-syntax-ns#"
   xmlns:svg="http://www.w3.org/2000/svg"
   xmlns="http://www.w3.org/2000/svg"
   xmlns:sodipodi="http://sodipodi.sourceforge.net/DTD/sodipodi-0.dtd"
   xmlns:inkscape="http://www.inkscape.org/namespaces/inkscape"
   width="744.09448819"
   height="1052.3622047"
   id="svg2"
   version="1.1"
   inkscape:version="0.48.3.1 r9886"
   sodipodi:docname="drawing.svg">
  <defs
     id="defs4" />
  <sodipodi:namedview
     id="base"
     pagecolor="#ffffff"
     bordercolor="#666666"
     borderopacity="1.0"
     inkscape:pageopacity="0.0"
     inkscape:pageshadow="2"
     inkscape:zoom="0.20001631"
     inkscape:cx="-1382.6186"
     inkscape:cy="-303.86326"
     inkscape:document-units="px"
     inkscape:current-layer="layer1"
     showgrid="false"
     inkscape:window-width="1280"
     inkscape:window-height="744"
     inkscape:window-x="0"
     inkscape:window-y="27"
     inkscape:window-maximized="1" />
  <metadata
     id="metadata7">
    <rdf:RDF>
      <cc:Work
         rdf:about="">
        <dc:format>image/svg+xml</dc:format>
        <dc:type
           rdf:resource="http://purl.org/dc/dcmitype/StillImage" />
        <dc:title></dc:title>
      </cc:Work>
    </rdf:RDF>
  </metadata>
  <g
     inkscape:label="Layer 1"
     inkscape:groupmode="layer"
     id="layer1">
    <path
       style="fill:#0000ff;stroke:none"
       d="m -1800.7002,98.253567 c 0,0 40.2317,15.031203 45.4569,50.507633 2.9072,19.73814 0.027,64.78042 1.329,118.67302 1.2085,50.03496 -0.6178,117.27155 -7.3899,143.46157 -2.7809,10.75452 -17.6777,17.17259 -17.6777,17.17259 0,0 18.922,13.31855 19.1929,35.86042 0.5239,43.58097 0.3332,76.50627 -0.411,147.98306 -0.5487,52.69464 1.0267,114.36857 -5.1448,152.03224 -3.9771,24.27167 -27.2741,39.39595 -27.2741,39.39595 0,0 18.958,13.15131 45.4568,-2.52539 13.3929,-7.92321 21.2132,-30.80964 21.2132,-30.80964 0,0 8.308,24.08483 24.2437,35.35533 15.4254,10.90957 40.4061,8.08122 40.4061,8.08122 0,0 -22.9624,-13.91646 -25.2538,-42.4264 -2.9656,-36.89788 -6.4166,-86.92869 -7.0173,-135.71384 -1.0167,-82.5725 2.4026,-161.5764 3.0376,-167.29132 1.0101,-9.09137 2.6377,-18.08007 9.1081,-19.18732 21.7796,-3.72705 17.147,31.19399 17.0949,46.42083 -0.2463,72.02854 30.8097,96.46957 30.8097,96.46957 0,0 -9.1298,-90.96133 6.3209,-163.4355 9.3407,-43.81409 7.3718,-88.68558 -5.8158,-130.01382 -7.0827,-22.19639 -30.8097,-30.80965 -30.8097,-30.80965 0,0 15.1523,45.45687 12.1218,82.32743 -1.6487,20.05951 -13.5601,55.31814 -27.2741,50.00256 -15.6657,-6.07208 -2.3363,-212.56783 -2.5254,-219.70818 -0.2919,-11.02135 1.6925,-23.23351 11.1117,-23.23351 14.6472,0 17.8238,54.92731 28.2843,81.82235 18.0455,46.39681 48.4873,60.60916 48.4873,60.60916 0,0 -18.5055,-55.07167 -11.1117,-127.27922 6.7524,-65.94345 34.3452,-108.086333 34.3452,-108.086333 0,0 -28.4166,8.448317 -46.9721,28.28427 -18.9896,20.300013 -24.2436,41.921343 -24.2436,41.921343 0,0 -2.4988,-37.375653 -38.8909,-37.880723 -36.362,-0.50466 -38.3858,40.406103 -38.3858,40.406103 0,0 -3.0305,-34.85026 -47.9823,-42.426413 -19.0305,-3.2074 -33.8401,4.04061 -33.8401,4.04061 z"
       id="path3221"
       inkscape:connector-curvature="0"
       sodipodi:nodetypes="cssscssscscscssssscsscssssscscscscsc" />
    <path
       style="fill:#0000ff;stroke:none"
       d="m -1583.5091,96.247827 c 0,0 12.2434,15.964643 15.1563,52.500003 5.9953,75.19525 -20.7094,250.01411 -24.75,264.15625 -4.0407,14.14214 -15.1563,17.1875 -15.1563,17.1875 0,0 10.3967,10.33052 12.125,31.8125 1.3796,17.14687 -19.6942,258.59231 -25.25,292.9375 -5.5558,34.34518 -26.2812,51.53125 -26.2812,51.53125 0,0 7.7064,4.18556 17.6875,2.53125 15.7995,-2.61869 25.25,-19.1875 25.25,-19.1875 0,0 2.8205,11.59471 12.125,19.6875 10.2966,8.95563 23.2187,3.03125 23.2187,3.03125 0,0 -15.6229,-11.01721 -14.625,-37.375 3.9073,-103.20397 21.1875,-309.125 21.1875,-309.125 0,0 4.0504,13.65625 17.6875,13.65625 9.6097,0 17.1875,-17.1875 17.1875,-17.1875 0,0 -1.0363,277.80947 -0.5312,306.09375 0.505,28.28427 -16.6563,36.875 -16.6563,36.875 0,0 14.5336,2.5172 21.7188,1.5 17.1817,-2.43239 32.8437,-27.78125 32.8437,-27.78125 0,0 10.2691,17.51141 17.6563,24.25 14.339,13.08007 41.4375,10.59375 41.4375,10.59375 0,0 -22.7466,-16.66924 -29.3125,-46.46875 -3.8838,-17.62617 -16.1512,-305.0606 -16.6563,-317.6875 -0.5051,-12.62691 13.125,-17.65625 13.125,-17.65625 0,0 -13.5826,-13.44316 -14.6562,-22.25 -3.3056,-27.11446 -2.488,-61.70621 -4.0625,-98.46875 -3.291,-76.83426 -5.5498,-159.03539 -3.5,-174.75 3.0304,-23.23351 18.1875,-38.906253 18.1875,-38.906253 0,0 -19.4961,-0.99845 -31.3125,3.531253 -32.424,12.42934 -30.3125,37.375 -30.3125,37.375 0,0 -3.5354,-23.67304 -23.75,-36.875 -8.46,-5.525143 -29.7813,-5.531253 -29.7813,-5.531253 z m 50,100.500003 4.0313,215.65625 c 0,0 -4.0092,-17.15118 -13.625,-17.65625 -10.0877,-0.52986 -13.6563,11.59375 -13.6563,11.59375 z"
       id="path3223"
       inkscape:connector-curvature="0"
       sodipodi:nodetypes="csscsscscscscscscscscsscssscscscccscc" />
    <path
       style="fill:#0000ff;stroke:none"
       d="m -1449.4689,431.72162 c 0,0 12.1428,8.57143 13.5714,29.28571 1.1314,16.40512 -1.2832,271.25664 0,295.14286 1.2832,23.88622 14.2857,61.28572 68.5714,59.85714 37.2397,-0.98 70.7143,-8.57143 75,-65.71428 4.2858,-57.14286 4.2858,-284.28572 6.4286,-294.28572 2.1429,-10 13.5714,-21.42857 13.5714,-21.42857 0,0 -15,-6.42857 -15,-21.42857 0,-15 2.218,-256.83623 5,-277.14286 3.4843,-25.43265 22.8572,-35.71429 22.8572,-35.71429 0,0 -20.3119,-0.666433 -28.5714,4.28572 -14.3443,8.60032 -20,27.85714 -20,27.85714 0,0 -3.5715,-16.42857 -12.1429,-24.28571 -7.7742,-7.1264 -20.7143,-7.85714 -20.7143,-7.85714 0,0 12.8572,2.85714 13.5714,75.71428 0.7143,72.85714 -9.2857,527.85715 -9.2857,545 0,17.14286 -5.9153,32.06997 -20,30 -17.7961,-2.61542 -12.3773,-27.05755 -11.4285,-98.57143 0.9487,-71.51388 2.2018,-492.70386 4.2857,-515 2.0839,-22.29614 12.8571,-39.285713 12.8571,-39.285713 0,0 -17.9037,1.330613 -30.7143,11.428573 -13.7521,10.84012 -20,23.57143 -20,23.57143 0,0 -0.7143,-13.57143 -21.4285,-26.42857 -11.9697,-7.429443 -24.2858,-9.285723 -24.2858,-9.285723 0,0 15.7143,32.142863 13.5715,86.428573 -2.2546,57.11623 -0.7143,218.57143 -3.5715,228.57143 -2.8571,10 -12.1428,19.28572 -12.1428,19.28572 z"
       id="path3228"
       inkscape:connector-curvature="0"
       sodipodi:nodetypes="cszssscsscscscssszzcscscssc" />
    <path
       style="fill:#0000ff;stroke:none;stroke-width:1px;stroke-linecap:butt;stroke-linejoin:miter;stroke-opacity:1"
       d="m -1210.1832,539.00733 c 0,0 -44.1708,17.16054 -48.5596,85.59511 -4.3054,67.13497 15.5309,148.69667 -22.865,189.22257 -29.9276,31.5878 -57.7445,30.29428 -84.2897,30.03947 -25.87,-0.24834 -57.131,-12.83742 -57.131,-12.83742 0,0 48.4779,47.05831 114.3489,28.52013 68.5832,-19.3015 83.4964,-68.53986 83.4964,-68.53986 0,0 17.1271,27.13102 55,23.57143 35.3078,-3.31851 71.4049,-62.84925 73.5478,-143.56354 2.1428,-80.71428 -37.8572,-195.77348 -44.2858,-217.20205 -6.4285,-21.42857 12.873,-44.23835 12.873,-44.23835 0,0 -38.6716,-13.5024 -48.5912,-48.59117 -16.9464,-59.94456 -37.8532,-128.39384 -38.5675,-165.67482 -0.233,-12.16162 4.681,-30.50487 15.738,-27.15864 10.6377,3.21931 21.1702,57.92655 35.7143,85 18.3083,34.08057 37.1192,34.98027 37.1192,34.98027 0,0 -23.8665,-74.98571 -22.1311,-111.40095 2.1468,-45.04735 15.7064,-77.829524 15.7064,-77.829524 0,0 -12.8255,-0.761635 -27.8255,7.809794 -15,8.57142 -22.1547,22.86898 -22.1547,22.86898 0,0 -10.0277,-32.134969 -32.1705,-29.992109 -22.1429,2.142859 -42.8723,19.497709 -47.8138,82.880819 -6.468,82.9637 18.0165,137.86199 27.8414,174.25415 17.2021,63.71744 -10.7143,74.28571 -10.7143,74.28571 0,0 49.9737,26.54692 72.8808,110.74585 32.1283,118.09276 18.0586,195.37667 -6.4522,204.25415 -25.7143,9.31334 -44.5829,-55.0629 -47.1547,-103.4925 -2.1981,-41.39305 16.4404,-103.5075 16.4404,-103.5075 z"
       id="path3249"
       inkscape:connector-curvature="0"
       sodipodi:nodetypes="cssscscssscsssscscscssscsssc" />
    <path
       style="fill:#0000ff;stroke:none"
       d="m -1103.0364,811.73346 c 0,0 28.2535,10.60701 52.1705,-5.01184 10.083,-6.5847 22.1113,-28.57143 22.1113,-28.57143 0,0 12.2206,18.54959 19.9684,26.40884 17.98486,18.24353 45.03156,9.30545 45.03156,9.30545 0,0 -32.869,-15.06314 -37.86896,-66.51539 -4.5853,-47.185 4.29756,-292.77033 6.44036,-298.48461 2.86113,-8.94633 14.2858,-15.71035 14.2858,-15.71035 0,0 -14.3174,-9.33701 -16.4444,-25.75374 -2.4713,-19.0733 1.70045,-147.82878 1.57933,-176.86661 -0.0941,-22.56184 -4.41849,-61.16518 7.84527,-61.67719 10.011,-0.41796 14.1428,22.13101 16.3055,56.43645 1.9345,30.68658 7.1586,67.17049 19.3014,90.02763 12.1429,22.85714 39.27,36.40095 39.27,36.40095 0,0 -40.0729,-81.11828 -18.5714,-205 4.2948,-24.74489 23.6069,-44.27387 23.6069,-44.27387 0,0 -51.8359,-4.166083 -74.3528,5.73796 -35.78926,15.7419 -42.11126,47.10734 -42.11126,47.10734 0,0 -12.9202,-34.28966 -37.8532,-44.28177 -36.0724,-14.456353 -59.2817,-9.27387 -59.2817,-9.27387 0,0 15.6969,48.15841 14.2778,110.69849 -1.5588,68.69582 -33.5715,126.42857 -33.5715,126.42857 0,0 55.7223,-30.69455 63.5794,-76.40884 7.8572,-45.71428 2.359,-98.30635 15.7064,-94.30544 4.499,1.34859 6.7475,25.30411 7.6871,57.54482 1.9911,68.31596 -1.8941,173.83144 -2.6951,180.29259 -2.1311,17.1902 -19.2816,24.30545 -19.2816,24.30545 0,0 14.2816,10.02367 15.7102,27.16653 1.4286,17.14286 4.191,280.15707 -2.1389,304.28966 -11.4285,43.57143 -40.7064,49.98422 -40.7064,49.98422 z"
       id="path3251"
       inkscape:connector-curvature="0"
       sodipodi:nodetypes="cscscsccssssscscscscscsssscssc" />
    <path
       sodipodi:nodetypes="cssscssscscscssssscsscssssscscscscsc"
       inkscape:connector-curvature="0"
       id="path3253"
       d="m -1789.9913,1250.4418 c 0,0 40.5258,14.2192 46.4632,49.5835 3.3035,19.6757 1.3295,64.7668 3.7147,118.6223 2.2143,50.0005 1.7401,117.2602 -4.504,143.5811 -2.5641,10.8083 -17.3289,17.5245 -17.3289,17.5245 0,0 19.186,12.9355 19.91,35.4674 1.4,43.5616 1.8713,76.484 2.5644,147.9614 0.5108,52.695 3.3259,114.3248 -2.0871,152.105 -3.4883,24.3466 -26.4765,39.9363 -26.4765,39.9363 0,0 19.2185,12.7674 45.3968,-3.4389 13.2309,-8.1908 20.5895,-31.2298 20.5895,-31.2298 0,0 8.7905,23.9129 24.9496,34.8607 15.6416,10.5973 40.5604,7.2672 40.5604,7.2672 0,0 -23.2375,-13.4519 -26.1017,-41.9101 -3.7068,-36.8308 -8.163,-86.7821 -9.7444,-135.5453 -2.6767,-82.5354 -0.8465,-161.592 -0.3265,-167.3185 0.8271,-9.1099 2.2736,-18.1295 8.7205,-19.3667 21.7002,-4.1641 17.7707,30.843 18.0247,46.0678 1.2019,72.0189 32.7431,95.8306 32.7431,95.8306 0,0 -10.9568,-90.7594 3.0336,-163.5296 8.458,-43.9929 5.5873,-88.8158 -8.4286,-129.8706 -7.5275,-22.0495 -31.4229,-30.1839 -31.4229,-30.1839 0,0 16.0632,45.143 13.7746,82.0671 -1.2451,20.0886 -12.4452,55.5795 -26.2633,50.5408 -15.7846,-5.7559 -6.6096,-212.478 -6.9422,-219.613 -0.5134,-11.0133 1.2251,-23.2628 10.6424,-23.4522 14.6442,-0.2945 18.9245,54.5578 29.9236,81.2371 18.9747,46.0246 49.6961,59.6221 49.6961,59.6221 0,0 -19.609,-54.6885 -13.6685,-127.0301 5.4252,-66.0659 32.1652,-108.7551 32.1652,-108.7551 0,0 -28.241,9.0179 -46.394,29.223 -18.5776,20.6777 -23.3958,42.4003 -23.3958,42.4003 0,0 -3.2498,-37.3178 -39.6447,-37.0912 -36.3648,0.2266 -37.5656,41.1697 -37.5656,41.1697 0,0 -3.7306,-34.7822 -48.8256,-41.4531 -19.0912,-2.8241 -33.7521,4.7202 -33.7521,4.7202 z"
       style="fill:#0000ff;stroke:none" />
    <path
       sodipodi:nodetypes="csscsscscscscscscscscsscssscscscccscc"
       inkscape:connector-curvature="0"
       id="path3255"
       d="m -1566.4301,1247.8149 c 0,0 12.5619,15.7153 16.2088,52.1847 7.5059,75.0595 -15.6786,250.3799 -19.434,264.6004 -3.7556,14.2206 -14.8077,17.4888 -14.8077,17.4888 0,0 10.6023,10.1194 12.7621,31.5623 1.7241,17.1157 -14.4911,258.9359 -19.3552,293.3859 -4.8642,34.45 -25.2399,52.0493 -25.2399,52.0493 0,0 7.789,4.0297 17.7349,2.1751 15.7436,-2.9359 24.8591,-19.6913 24.8591,-19.6913 0,0 3.053,11.5356 12.5184,19.4397 10.4745,8.7469 23.2749,2.5639 23.2749,2.5639 0,0 -15.8412,-10.7009 -15.3735,-37.0734 1.8316,-103.2617 14.9682,-309.4885 14.9682,-309.4885 0,0 4.3241,13.572 17.9584,13.2978 9.6078,-0.1932 16.8385,-17.5296 16.8385,-17.5296 0,0 4.5494,277.7742 5.6231,306.0426 1.0735,28.2685 -15.9116,37.2025 -15.9116,37.2025 0,0 14.5813,2.2244 21.7446,1.063 17.1292,-2.7774 32.2784,-28.436 32.2784,-28.436 0,0 10.6191,17.3014 18.1403,23.8901 14.5991,12.7891 41.6421,9.7585 41.6421,9.7585 0,0 -23.0772,-16.2086 -30.2409,-45.87 -4.2374,-17.5445 -22.2813,-304.6743 -23.0401,-317.2885 -0.7589,-12.6141 12.7673,-17.9165 12.7673,-17.9165 0,0 -13.8501,-13.1674 -15.1006,-21.9508 -3.85,-27.0426 -3.7281,-61.6437 -6.0414,-98.3672 -4.8351,-76.7525 -8.7461,-158.8917 -7.0127,-174.6443 2.5627,-23.2898 17.4016,-39.264 17.4016,-39.264 0,0 -19.5122,-0.6063 -31.2352,4.16 -32.1674,13.0788 -29.5548,37.9769 -29.5548,37.9769 0,0 -4.0107,-23.5971 -24.4866,-36.39 -8.5694,-5.3539 -29.8865,-4.9314 -29.8865,-4.9314 z m 52.0105,99.4745 8.3663,215.5315 c 0,0 -4.3532,-17.067 -13.9772,-17.3787 -10.0963,-0.327 -13.4204,11.8659 -13.4204,11.8659 z"
       style="fill:#0000ff;stroke:none" />
    <path
       sodipodi:nodetypes="cszssscsscscscssszzcscscssc"
       inkscape:connector-curvature="0"
       id="path3257"
       d="m -1129.8651,1569.0168 c 0,0 12.3126,8.3256 14.1574,29.007 1.461,16.379 4.1708,271.2275 5.934,295.0831 1.7632,23.8557 15.515,60.9862 69.761,58.4665 37.2124,-1.7286 70.52768,-9.9915 73.66363,-67.209 3.13605,-57.2175 -1.43075,-284.3144 0.51057,-294.3554 1.94141,-10.0411 13.13782,-21.6972 13.13782,-21.6972 0,0 -15.12621,-6.1257 -15.4278,-21.1226 -0.30158,-14.997 -2.94624,-256.8289 -0.57308,-277.1874 2.97226,-25.4976 22.13453,-36.1666 22.13453,-36.1666 0,0 -20.32119,-0.2579 -28.47946,4.8593 -14.16848,8.8869 -19.43587,28.2537 -19.43587,28.2537 0,0 -3.90109,-16.3535 -12.62874,-24.0368 -7.9159,-6.9686 -20.8681,-7.439 -20.8681,-7.439 0,0 12.912,2.598 15.0909,75.4261 2.179,72.828 1.329,527.9371 1.6737,545.0765 0.3446,17.1394 -5.2694,32.1825 -19.3928,30.3961 -17.8451,-2.2571 -12.9188,-26.8033 -13.4081,-98.3217 -0.4893,-71.5185 -7.7046,-492.6486 -6.0694,-514.9821 1.6352,-22.3336 12.0646,-39.5363 12.0646,-39.5363 0,0 -17.8733,1.6903 -30.4783,12.0438 -13.5314,11.1144 -19.522,23.9687 -19.522,23.9687 0,0 -0.987,-13.5543 -21.9555,-25.9923 -12.1167,-7.1874 -24.4676,-8.7957 -24.4676,-8.7957 0,0 16.3573,31.8205 15.3064,86.1383 -1.1058,57.1501 3.6803,218.5417 1.0248,228.5971 -2.6555,10.0554 -11.7526,19.5259 -11.7526,19.5259 z"
       style="fill:#0000ff;stroke:none" />
    <path
       sodipodi:nodetypes="cssscscssscsssscscscssscsssc"
       inkscape:connector-curvature="0"
       id="path3259"
       d="m -878.16503,1677.1608 c 0,0 -43.81686,18.0451 -46.82886,86.5541 -2.95476,67.208 18.51737,148.3544 -19.05598,189.644 -29.28647,32.1832 -57.12383,31.4491 -83.66873,31.728 -25.8698,0.2719 -57.3775,-11.6861 -57.3775,-11.6861 0,0 49.4141,46.0741 114.89916,26.2153 68.18127,-20.6765 82.1015,-70.2047 82.1015,-70.2047 0,0 17.66912,26.7812 55.4628,22.4608 35.23394,-4.0277 70.12685,-64.2721 70.64653,-145.0131 0.51957,-80.7411 -41.78566,-194.9728 -48.64379,-216.2679 -6.85803,-21.2949 11.98097,-44.4881 11.98097,-44.4881 0,0 -38.93525,-12.7222 -49.55832,-47.6045 -18.14819,-59.5917 -40.42696,-127.6068 -41.89067,-164.8659 -0.47747,-12.1544 4.06674,-30.5928 15.18878,-27.4696 10.70028,3.0049 22.33056,57.4893 37.41604,84.2648 18.98981,33.7056 37.81499,34.2269 37.81499,34.2269 0,0 -25.36929,-74.4907 -24.36638,-110.9334 1.24067,-45.0815 14.13843,-78.1297 14.13843,-78.1297 0,0 -12.83822,-0.5036 -27.66286,8.3677 -14.82463,8.8713 -21.69043,23.3098 -21.69043,23.3098 0,0 -10.67176,-31.9269 -32.767,-29.3392 -22.09534,2.5876 -42.47163,20.3557 -46.13778,83.8253 -4.79868,83.077 20.78463,137.4719 31.33922,173.6592 18.47969,63.3587 -9.21859,74.4861 -9.21859,74.4861 0,0 50.49734,25.5368 75.09266,109.2582 34.49611,117.4229 21.98308,194.9741 -2.34428,204.3426 -25.52186,9.8284 -45.68095,-54.1554 -49.22593,-102.5235 -3.02988,-41.3406 14.35602,-103.8171 14.35602,-103.8171 z"
       style="fill:#0000ff;stroke:none" />
    <path
       sodipodi:nodetypes="cscscsccssssscscscscscsssscssc"
       inkscape:connector-curvature="0"
       id="path3261"
       d="m -1398.3864,1960.0659 c 0,0 28.461,10.0368 52.0592,-6.0597 9.9485,-6.7861 21.5324,-29.0103 21.5324,-29.0103 0,0 12.591,18.3002 20.4953,26.0021 18.348,17.8783 45.2096,8.3982 45.2096,8.3982 0,0 -33.1652,-14.3992 -39.1987,-65.7406 -5.533,-47.0833 -1.5895,-292.7975 0.438,-298.5538 2.6806,-9.002 13.967,-15.9943 13.967,-15.9943 0,0 -14.5022,-9.0473 -16.9589,-25.418 -2.8542,-19.0197 -1.2721,-147.833 -1.977,-176.8626 -0.5476,-22.5553 -5.6473,-61.0639 6.6037,-61.8225 10.0006,-0.619 14.5849,21.8423 17.4369,56.0973 2.5511,30.6415 8.5076,67.013 21.1075,89.6214 12.6,22.6084 39.994,35.6041 39.994,35.6041 0,0 -41.6958,-80.2963 -22.6893,-204.5852 3.7964,-24.8263 22.712,-44.7396 22.712,-44.7396 0,0 -51.9092,-3.1231 -74.2224,7.2317 -35.4656,16.4583 -41.1557,47.9445 -41.1557,47.9445 0,0 -13.607,-34.023 -38.7359,-43.5118 -36.3557,-13.7281 -59.4561,-8.0801 -59.4561,-8.0801 0,0 16.6619,47.8331 16.5005,110.3891 -0.1773,68.7133 -31.0228,127.0779 -31.0228,127.0779 0,0 55.0939,-31.8086 62.0303,-77.6716 6.9365,-45.8631 0.3821,-98.334 13.8072,-94.6022 4.5252,1.2578 7.2549,25.1634 8.8425,57.3787 3.3642,68.262 1.6012,173.8343 0.9303,180.3103 -1.785,17.2296 -18.789,24.6882 -18.789,24.6882 0,0 14.4802,9.7345 16.2532,26.8451 1.773,17.1107 9.8228,280.0162 3.9794,304.2712 -10.5502,43.7924 -39.6932,50.7925 -39.6932,50.7925 z"
       style="fill:#0000ff;stroke:none" />
    <path
       style="fill:#ff0000;stroke:none;stroke-width:2.43716311000000019;stroke-linecap:butt;stroke-linejoin:miter;stroke-miterlimit:4;stroke-opacity:1;stroke-dasharray:none"
       d="m -2571.6406,1550.1243 c 0,0 -83.4539,-12.704 -86.1679,62.6682 -1.7816,49.4613 25.6239,108.7984 100.0943,109.669 55.7014,0.6512 124.0765,-53.1263 179.3001,-128.8178 37.4529,-51.3339 85.2978,-146.3994 85.2978,-146.3994 0,0 43.7466,94.4318 66.15,188.1783 29.2581,122.4309 8.7036,221.0789 8.7036,221.0789 0,0 24.8849,-2.0404 43.3084,-28.468 15.3097,-21.9608 19.8697,-43.1153 19.8697,-43.1153 0,0 11.8041,38.977 67.3802,87.2504 21.3988,18.5868 69.719,33.6899 69.719,33.6899 0,0 -81.6055,-62.7735 -135.5697,-212.4802 -53.9641,-149.7071 -75.0924,-191.0633 -89.2713,-291.7806 -7.5786,-53.8345 -16.0326,-112.0744 2.8042,-163.072 5.9979,-16.2388 33.0748,-40.0382 33.0748,-40.0382 0,0 -48.8427,21.2672 -63.5388,69.6307 -7.369,24.2512 -0.7195,57.7632 -20.889,73.113 -15.1747,11.5482 -37.5761,-2.3563 -37.5761,-2.3563 0,0 20.8928,34.831 16.6867,73.7281 -8.8869,82.1816 -67.8189,153.9795 -123.5953,214.986 -84.7329,92.679 -215.8567,69.6313 -193.2261,-6.0929 10.0806,-33.7308 58.3164,-14.7965 58.3164,-14.7965 0,0 -13.3669,-13.0598 -13.0564,-31.3336 0.1609,-9.3416 12.1854,-25.2417 12.1854,-25.2417 z"
       id="path3331"
       inkscape:connector-curvature="0"
       sodipodi:nodetypes="cssscscscscsaacsscssscsc" />
    <path
       style="fill:#ff0000;stroke:none;stroke-width:2.43716311000000019;stroke-linecap:butt;stroke-linejoin:miter;stroke-miterlimit:4;stroke-opacity:1;stroke-dasharray:none"
       d="m -2461.5491,1452.5354 c 0,0 14.8604,51.374 10.0226,76.7 -5.6216,29.4287 -20.8894,43.5194 -20.8894,43.5194 0,0 65.5338,15.8596 82.9415,69.8238 17.4077,53.9641 21.505,176.4959 21.505,176.4959 0,0 125.3365,-147.2124 191.4855,-237.6161 104.4466,-142.7436 283.7467,-215.8561 283.7467,-215.8561 0,0 -174.0778,50.4824 -290.7097,184.522 -116.6324,134.0401 -163.633,177.5595 -163.633,177.5595 0,0 -23.0249,-94.8168 -41.5678,-139.7357 -19.5607,-47.3848 -72.9014,-135.4127 -72.9014,-135.4127 z"
       id="path3333"
       inkscape:connector-curvature="0"
       sodipodi:nodetypes="cscscscscac" />
  </g>
</svg>
